<svg width="11" height="13" viewBox="0 0 11 13" fill="none" xmlns="http://www.w3.org/2000/svg">
<path d="M4.0385 10.5586C3.70172 10.5586 3.41667 10.4419 3.18333 10.2086C2.95 9.97526 2.83333 9.6902 2.83333 9.35343V1.76376C2.83333 1.42698 2.95 1.14193 3.18333 0.908594C3.41667 0.67526 3.70172 0.558594 4.0385 0.558594H9.62817C9.96494 0.558594 10.25 0.67526 10.4833 0.908594C10.7167 1.14193 10.8333 1.42698 10.8333 1.76376V9.35343C10.8333 9.6902 10.7167 9.97526 10.4833 10.2086C10.25 10.4419 9.96494 10.5586 9.62817 10.5586H4.0385ZM4.0385 9.55859H9.62817C9.6795 9.55859 9.7265 9.5372 9.76917 9.49443C9.81194 9.45176 9.83333 9.40476 9.83333 9.35343V1.76376C9.83333 1.71243 9.81194 1.66543 9.76917 1.62276C9.7265 1.57998 9.6795 1.55859 9.62817 1.55859H4.0385C3.98717 1.55859 3.94017 1.57998 3.8975 1.62276C3.85472 1.66543 3.83333 1.71243 3.83333 1.76376V9.35343C3.83333 9.40476 3.85472 9.45176 3.8975 9.49443C3.94017 9.5372 3.98717 9.55859 4.0385 9.55859ZM1.70517 12.8919C1.36839 12.8919 1.08333 12.7753 0.85 12.5419C0.616667 12.3086 0.5 12.0235 0.5 11.6868V3.09709H1.5V11.6868C1.5 11.7381 1.52139 11.7851 1.56417 11.8278C1.60683 11.8705 1.65383 11.8919 1.70517 11.8919H8.29483V12.8919H1.70517Z" fill="#338C93"/>
</svg>
