<svg width="27" height="27" viewBox="0 0 27 27" fill="none" xmlns="http://www.w3.org/2000/svg">
    <path d="M24.3677 11.7451L23.2652 16.4476C22.3202 20.5088 20.4527 22.1513 16.9427 21.8138C16.3802 21.7688 15.7727 21.6676 15.1202 21.5101L13.2302 21.0601C8.53895 19.9463 7.0877 17.6288 8.1902 12.9263L9.2927 8.21257C9.5177 7.25632 9.7877 6.42382 10.1252 5.73757C11.4415 3.01507 13.6802 2.28382 17.4377 3.17257L19.3165 3.61132C24.0302 4.71382 25.4702 7.04257 24.3677 11.7451Z"
          stroke="#1cbcc8" stroke-width="1.5" stroke-linecap="round" stroke-linejoin="round"/>
    <path d="M16.9426 21.8138C16.2451 22.2863 15.3676 22.68 14.2989 23.0288L12.5214 23.6138C8.05514 25.0538 5.70389 23.85 4.25264 19.3838L2.81264 14.9401C1.37264 10.4738 2.56514 8.1113 7.03139 6.6713L8.80889 6.0863C9.27014 5.94005 9.70889 5.8163 10.1251 5.73755C9.78764 6.4238 9.51764 7.2563 9.29264 8.21255L8.19014 12.9263C7.08764 17.6288 8.53889 19.9463 13.2301 21.06L15.1201 21.5101C15.7726 21.6676 16.3801 21.7688 16.9426 21.8138Z"
          stroke="#1cbcc8" stroke-width="1.5" stroke-linecap="round" stroke-linejoin="round"/>
    <path d="M14.2202 9.59619L19.6765 10.9799" stroke="#1cbcc8" stroke-width="1.5" stroke-linecap="round"
          stroke-linejoin="round"/>
    <path d="M13.1177 13.95L16.3802 14.7825" stroke="#1cbcc8" stroke-width="1.5" stroke-linecap="round"
          stroke-linejoin="round"/>
</svg>
