<svg width="22" height="23" viewBox="0 0 22 23" fill="none" xmlns="http://www.w3.org/2000/svg">
    <path d="M14.5 6.46094V13.4609M14.5 13.4609L12 10.4609M14.5 13.4609L17 10.4609M7.5 6.46094V13.4609M7.5 13.4609L5 10.4609M7.5 13.4609L10 10.4609"
          stroke="#1cbcc8" stroke-width="1.5" stroke-linecap="round" stroke-linejoin="round"/>
    <path d="M5 16.4609H17" stroke="#1cbcc8" stroke-width="1.5" stroke-linecap="round"/>
    <path d="M11 21.4609C6.286 21.4609 3.929 21.4609 2.464 19.9969C1 18.5309 1 16.1749 1 11.4609C1 6.74694 1 4.38994 2.464 2.92594C3.93 1.46094 6.286 1.46094 11 1.46094C15.714 1.46094 18.071 1.46094 19.535 2.92594C21 4.38894 21 6.74694 21 11.4609C21 16.1749 21 18.5319 19.535 19.9969C18.072 21.4609 15.714 21.4609 11 21.4609Z"
          stroke="#1cbcc8" stroke-width="1.5"/>
</svg>
