<svg width="22" height="23" viewBox="0 0 22 23" fill="none" xmlns="http://www.w3.org/2000/svg">
    <path d="M14.5 16.5391V9.53906M14.5 9.53906L12 12.5391M14.5 9.53906L17 12.5391M7.5 16.5391V9.53906M7.5 9.53906L5 12.5391M7.5 9.53906L10 12.5391"
          stroke="#52525B" stroke-width="1.5" stroke-linecap="round" stroke-linejoin="round"/>
    <path d="M5 6.53906L17 6.53906" stroke="#52525B" stroke-width="1.5" stroke-linecap="round"/>
    <path d="M11 1.53906C6.286 1.53906 3.929 1.53906 2.464 3.00306C1 4.46906 1 6.82506 1 11.5391C1 16.2531 1 18.6101 2.464 20.0741C3.93 21.5391 6.286 21.5391 11 21.5391C15.714 21.5391 18.071 21.5391 19.535 20.0741C21 18.6111 21 16.2531 21 11.5391C21 6.82506 21 4.46806 19.535 3.00306C18.072 1.53906 15.714 1.53906 11 1.53906Z"
          stroke="#52525B" stroke-width="1.5"/>
</svg>
