<svg width="22" height="22" viewBox="0 0 22 22" fill="none" xmlns="http://www.w3.org/2000/svg">
    <path d="M11 1C15.714 1 18.071 1 19.535 2.465C21 3.928 21 6.286 21 11C21 15.714 21 18.071 19.535 19.536C18.072 21 15.714 21 11 21C6.286 21 3.929 21 2.464 19.536C1 18.07 1 15.714 1 11C1 6.286 1 3.929 2.464 2.465C3.438 1.491 4.807 1.165 7 1.055"
          stroke="#1cbcc8" stroke-width="1.5" stroke-linecap="round"/>
    <path d="M6 13H16L12.563 16M16 9H6L9.438 6" stroke="#1cbcc8" stroke-width="1.5" stroke-linecap="round"
          stroke-linejoin="round"/>
</svg>
