<svg width="26" height="26" viewBox="0 0 26 26" fill="none" xmlns="http://www.w3.org/2000/svg">
    <path d="M9.92327 11.7759C9.81494 11.7651 9.68494 11.7651 9.56577 11.7759C6.98744 11.6892 4.93994 9.57675 4.93994 6.97675C4.93994 4.32258 7.08494 2.16675 9.74994 2.16675C12.4041 2.16675 14.5599 4.32258 14.5599 6.97675C14.5491 9.57675 12.5016 11.6892 9.92327 11.7759Z"
          stroke="#1cbcc8" stroke-width="1.5" stroke-linecap="round" stroke-linejoin="round"/>
    <path d="M17.7776 4.33325C19.8792 4.33325 21.5692 6.03409 21.5692 8.12492C21.5692 10.1724 19.9442 11.8408 17.9184 11.9166C17.8317 11.9058 17.7342 11.9058 17.6367 11.9166"
          stroke="#1cbcc8" stroke-width="1.5" stroke-linecap="round" stroke-linejoin="round"/>
    <path d="M4.50678 15.7733C1.88511 17.5283 1.88511 20.3883 4.50678 22.1324C7.48594 24.1258 12.3718 24.1258 15.3509 22.1324C17.9726 20.3774 17.9726 17.5174 15.3509 15.7733C12.3826 13.7908 7.49678 13.7908 4.50678 15.7733Z"
          stroke="#1cbcc8" stroke-width="1.5" stroke-linecap="round" stroke-linejoin="round"/>
    <path d="M19.8682 21.6667C20.6482 21.5042 21.3848 21.1901 21.9915 20.7242C23.6815 19.4567 23.6815 17.3659 21.9915 16.0984C21.3957 15.6434 20.6698 15.3401 19.9007 15.1667"
          stroke="#1cbcc8" stroke-width="1.5" stroke-linecap="round" stroke-linejoin="round"/>
</svg>
