<svg width="24" height="24" viewBox="0 0 24 24" fill="none" xmlns="http://www.w3.org/2000/svg">
<path d="M10.0385 10.8845C10.2513 10.8845 10.4295 10.8128 10.573 10.6693C10.7167 10.5256 10.7885 10.3474 10.7885 10.1348V7.923C10.7885 7.71017 10.7167 7.532 10.573 7.3885C10.4295 7.24483 10.2513 7.173 10.0385 7.173C9.82567 7.173 9.64742 7.24483 9.50375 7.3885C9.36025 7.532 9.2885 7.71017 9.2885 7.923V10.1348C9.2885 10.3474 9.36025 10.5256 9.50375 10.6693C9.64742 10.8128 9.82567 10.8845 10.0385 10.8845ZM12.9423 10.8845C13.1551 10.8845 13.3333 10.8128 13.477 10.6693C13.6205 10.5256 13.6923 10.3474 13.6923 10.1348V7.923C13.6923 7.71017 13.6205 7.532 13.477 7.3885C13.3333 7.24483 13.1551 7.173 12.9423 7.173C12.7294 7.173 12.5513 7.24483 12.4078 7.3885C12.2641 7.532 12.1923 7.71017 12.1923 7.923V10.1348C12.1923 10.3474 12.2641 10.5256 12.4078 10.6693C12.5513 10.8128 12.7294 10.8845 12.9423 10.8845ZM15.8462 10.8845C16.0589 10.8845 16.2371 10.8128 16.3807 10.6693C16.5243 10.5256 16.596 10.3474 16.596 10.1348V7.923C16.596 7.71017 16.5243 7.532 16.3807 7.3885C16.2371 7.24483 16.0589 7.173 15.8462 7.173C15.6334 7.173 15.4552 7.24483 15.3115 7.3885C15.168 7.532 15.0962 7.71017 15.0962 7.923V10.1348C15.0962 10.3474 15.168 10.5256 15.3115 10.6693C15.4552 10.8128 15.6334 10.8845 15.8462 10.8845ZM6.30775 21.5C5.80258 21.5 5.375 21.325 5.025 20.975C4.675 20.625 4.5 20.1974 4.5 19.6923V8.95975C4.5 8.71858 4.54683 8.48683 4.6405 8.2645C4.734 8.042 4.86283 7.84875 5.027 7.68475L9.68475 3.027C9.84875 2.86283 10.042 2.734 10.2645 2.6405C10.4868 2.54683 10.7186 2.5 10.9598 2.5H17.6923C18.1974 2.5 18.625 2.675 18.975 3.025C19.325 3.375 19.5 3.80258 19.5 4.30775V19.6923C19.5 20.1974 19.325 20.625 18.975 20.975C18.625 21.325 18.1974 21.5 17.6923 21.5H6.30775ZM6.30775 20H17.6923C17.7692 20 17.8398 19.9679 17.9038 19.9038C17.9679 19.8398 18 19.7693 18 19.6923V4.30775C18 4.23075 17.9679 4.16025 17.9038 4.09625C17.8398 4.03208 17.7692 4 17.6923 4H10.85L6 8.85V19.6923C6 19.7693 6.03208 19.8398 6.09625 19.9038C6.16025 19.9679 6.23075 20 6.30775 20ZM6.30775 20H6H18H6.30775Z" fill="#A0AEC0"/>
</svg>
