<svg width="24" height="24" viewBox="0 0 24 24" fill="none" xmlns="http://www.w3.org/2000/svg">
<path d="M6 22C5.45 22 4.97917 21.8042 4.5875 21.4125C4.19583 21.0208 4 20.55 4 20V8.825C4 8.55833 4.05 8.30417 4.15 8.0625C4.25 7.82083 4.39167 7.60833 4.575 7.425L9.425 2.575C9.60833 2.39167 9.82083 2.25 10.0625 2.15C10.3042 2.05 10.5583 2 10.825 2H18C18.55 2 19.0208 2.19583 19.4125 2.5875C19.8042 2.97917 20 3.45 20 4V20C20 20.55 19.8042 21.0208 19.4125 21.4125C19.0208 21.8042 18.55 22 18 22H6ZM10 11C10.2833 11 10.5208 10.9042 10.7125 10.7125C10.9042 10.5208 11 10.2833 11 10V8C11 7.71667 10.9042 7.47917 10.7125 7.2875C10.5208 7.09583 10.2833 7 10 7C9.71667 7 9.47917 7.09583 9.2875 7.2875C9.09583 7.47917 9 7.71667 9 8V10C9 10.2833 9.09583 10.5208 9.2875 10.7125C9.47917 10.9042 9.71667 11 10 11ZM13 11C13.2833 11 13.5208 10.9042 13.7125 10.7125C13.9042 10.5208 14 10.2833 14 10V8C14 7.71667 13.9042 7.47917 13.7125 7.2875C13.5208 7.09583 13.2833 7 13 7C12.7167 7 12.4792 7.09583 12.2875 7.2875C12.0958 7.47917 12 7.71667 12 8V10C12 10.2833 12.0958 10.5208 12.2875 10.7125C12.4792 10.9042 12.7167 11 13 11ZM16 11C16.2833 11 16.5208 10.9042 16.7125 10.7125C16.9042 10.5208 17 10.2833 17 10V8C17 7.71667 16.9042 7.47917 16.7125 7.2875C16.5208 7.09583 16.2833 7 16 7C15.7167 7 15.4792 7.09583 15.2875 7.2875C15.0958 7.47917 15 7.71667 15 8V10C15 10.2833 15.0958 10.5208 15.2875 10.7125C15.4792 10.9042 15.7167 11 16 11Z" fill="#1CBCC8"/>
</svg>
