<svg width="24" height="24" viewBox="0 0 24 24" fill="none" xmlns="http://www.w3.org/2000/svg">
<path d="M14.05 15.8962L13.1673 15.023C13.0186 14.8743 12.842 14.7958 12.6375 14.7875C12.433 14.7792 12.2532 14.8526 12.098 15.0078C11.943 15.1629 11.8655 15.3411 11.8655 15.5423C11.8655 15.7436 11.943 15.9218 12.098 16.077L13.4173 17.3962C13.5981 17.5769 13.809 17.6673 14.05 17.6673C14.291 17.6673 14.5019 17.5769 14.6827 17.3962L18.1423 13.927C18.2909 13.7782 18.3643 13.6041 18.3625 13.4047C18.3605 13.2054 18.282 13.0275 18.127 12.871C17.9718 12.7275 17.7962 12.6532 17.6 12.648C17.4038 12.643 17.2282 12.718 17.073 12.873L14.05 15.8962ZM8 14.75H9C9.2125 14.75 9.39058 14.6781 9.53425 14.5343C9.67808 14.3904 9.75 14.2122 9.75 13.9998C9.75 13.7871 9.67808 13.609 9.53425 13.4655C9.39058 13.3218 9.2125 13.25 9 13.25H8C7.7875 13.25 7.60942 13.3219 7.46575 13.4658C7.32192 13.6096 7.25 13.7878 7.25 14.0003C7.25 14.2129 7.32192 14.391 7.46575 14.5345C7.60942 14.6782 7.7875 14.75 8 14.75ZM8 11.75H13C13.2125 11.75 13.3906 11.6781 13.5343 11.5343C13.6781 11.3904 13.75 11.2122 13.75 10.9998C13.75 10.7871 13.6781 10.609 13.5343 10.4655C13.3906 10.3218 13.2125 10.25 13 10.25H8C7.7875 10.25 7.60942 10.3219 7.46575 10.4658C7.32192 10.6096 7.25 10.7878 7.25 11.0003C7.25 11.2129 7.32192 11.391 7.46575 11.5345C7.60942 11.6782 7.7875 11.75 8 11.75ZM8 8.75H13C13.2125 8.75 13.3906 8.67808 13.5343 8.53425C13.6781 8.39042 13.75 8.21225 13.75 7.99975C13.75 7.78708 13.6781 7.609 13.5343 7.4655C13.3906 7.32183 13.2125 7.25 13 7.25H8C7.7875 7.25 7.60942 7.32192 7.46575 7.46575C7.32192 7.60958 7.25 7.78775 7.25 8.00025C7.25 8.21292 7.32192 8.391 7.46575 8.5345C7.60942 8.67817 7.7875 8.75 8 8.75ZM12.0017 21.5C10.6877 21.5 9.45267 21.2507 8.2965 20.752C7.14033 20.2533 6.13467 19.5766 5.2795 18.7218C4.42433 17.8669 3.74725 16.8617 3.24825 15.706C2.74942 14.5503 2.5 13.3156 2.5 12.0017C2.5 10.6877 2.74933 9.45267 3.248 8.2965C3.74667 7.14033 4.42342 6.13467 5.27825 5.2795C6.13308 4.42433 7.13833 3.74725 8.294 3.24825C9.44967 2.74942 10.6844 2.5 11.9983 2.5C13.3123 2.5 14.5473 2.74933 15.7035 3.248C16.8597 3.74667 17.8653 4.42342 18.7205 5.27825C19.5757 6.13308 20.2528 7.13833 20.7518 8.294C21.2506 9.44967 21.5 10.6844 21.5 11.9983C21.5 13.3123 21.2507 14.5473 20.752 15.7035C20.2533 16.8597 19.5766 17.8653 18.7218 18.7205C17.8669 19.5757 16.8617 20.2528 15.706 20.7518C14.5503 21.2506 13.3156 21.5 12.0017 21.5ZM12 20C14.2333 20 16.125 19.225 17.675 17.675C19.225 16.125 20 14.2333 20 12C20 9.76667 19.225 7.875 17.675 6.325C16.125 4.775 14.2333 4 12 4C9.76667 4 7.875 4.775 6.325 6.325C4.775 7.875 4 9.76667 4 12C4 14.2333 4.775 16.125 6.325 17.675C7.875 19.225 9.76667 20 12 20Z" fill="#A0AEC0"/>
</svg>
