<svg width="24" height="24" viewBox="0 0 24 24" fill="none" xmlns="http://www.w3.org/2000/svg">
<path d="M17.25 7.75H15C14.7875 7.75 14.6094 7.67808 14.4658 7.53425C14.3219 7.39042 14.25 7.21225 14.25 6.99975C14.25 6.78708 14.3219 6.609 14.4658 6.4655C14.6094 6.32183 14.7875 6.25 15 6.25H17.25V4C17.25 3.7875 17.3219 3.60942 17.4658 3.46575C17.6096 3.32192 17.7878 3.25 18.0003 3.25C18.2129 3.25 18.391 3.32192 18.5345 3.46575C18.6782 3.60942 18.75 3.7875 18.75 4V6.25H21C21.2125 6.25 21.3906 6.32192 21.5343 6.46575C21.6781 6.60958 21.75 6.78775 21.75 7.00025C21.75 7.21292 21.6781 7.391 21.5343 7.5345C21.3906 7.67817 21.2125 7.75 21 7.75H18.75V10C18.75 10.2125 18.6781 10.3906 18.5343 10.5342C18.3904 10.6781 18.2122 10.75 17.9998 10.75C17.7871 10.75 17.609 10.6781 17.4655 10.5342C17.3218 10.3906 17.25 10.2125 17.25 10V7.75ZM11 19.25C12.0153 19.25 12.9474 19.0276 13.7962 18.5828C14.6449 18.1379 15.3731 17.5187 15.9808 16.725C13.7717 16.6622 11.9311 15.8955 10.4588 14.425C8.98625 12.9545 8.25 11.1462 8.25 9C8.25 8.71917 8.26633 8.43933 8.299 8.1605C8.33167 7.88167 8.38392 7.60058 8.45575 7.31725C7.33658 7.82108 6.43917 8.57875 5.7635 9.59025C5.08783 10.6019 4.75 11.7385 4.75 13C4.75 14.7308 5.359 16.2052 6.577 17.423C7.79483 18.641 9.26917 19.25 11 19.25ZM18.1 16.1077C17.4858 17.5231 16.5392 18.6506 15.26 19.4902C13.9807 20.3301 12.5606 20.75 10.9997 20.75C8.84358 20.75 7.01292 19.9974 5.50775 18.4923C4.00258 16.9871 3.25 15.1563 3.25 13C3.25 11.1417 3.8385 9.50142 5.0155 8.07925C6.19233 6.65725 7.69033 5.76417 9.5095 5.4C9.66467 5.37317 9.80217 5.38667 9.922 5.4405C10.042 5.49433 10.134 5.577 10.198 5.6885C10.2622 5.8 10.301 5.93108 10.3145 6.08175C10.3278 6.23242 10.3025 6.39558 10.2385 6.57125C10.0757 6.96058 9.9535 7.35892 9.872 7.76625C9.79067 8.17342 9.75 8.58467 9.75 9C9.75 10.7362 10.3577 12.2118 11.573 13.427C12.7882 14.6423 14.2638 15.25 16 15.25C16.1993 15.25 16.3895 15.2427 16.5705 15.228C16.7517 15.2132 16.9352 15.1891 17.1212 15.1558C17.3379 15.1186 17.5175 15.1253 17.66 15.176C17.8025 15.2267 17.9171 15.3026 18.0038 15.4038C18.0884 15.5051 18.1417 15.6157 18.1635 15.7355C18.1853 15.8555 18.1642 15.9796 18.1 16.1077Z" fill="#A0AEC0"/>
</svg>
