<svg width="24" height="24" viewBox="0 0 24 24" fill="none" xmlns="http://www.w3.org/2000/svg">
<path d="M17 8H15C14.7167 8 14.4792 7.90417 14.2875 7.7125C14.0958 7.52083 14 7.28333 14 7C14 6.71667 14.0958 6.47917 14.2875 6.2875C14.4792 6.09583 14.7167 6 15 6H17V4C17 3.71667 17.0958 3.47917 17.2875 3.2875C17.4792 3.09583 17.7167 3 18 3C18.2833 3 18.5208 3.09583 18.7125 3.2875C18.9042 3.47917 19 3.71667 19 4V6H21C21.2833 6 21.5208 6.09583 21.7125 6.2875C21.9042 6.47917 22 6.71667 22 7C22 7.28333 21.9042 7.52083 21.7125 7.7125C21.5208 7.90417 21.2833 8 21 8H19V10C19 10.2833 18.9042 10.5208 18.7125 10.7125C18.5208 10.9042 18.2833 11 18 11C17.7167 11 17.4792 10.9042 17.2875 10.7125C17.0958 10.5208 17 10.2833 17 10V8ZM18.35 16.175C17.7167 17.6417 16.7375 18.8125 15.4125 19.6875C14.0875 20.5625 12.6167 21 11 21C8.76667 21 6.875 20.225 5.325 18.675C3.775 17.125 3 15.2333 3 13C3 11.0833 3.6125 9.39167 4.8375 7.925C6.0625 6.45833 7.61667 5.53333 9.5 5.15C9.7 5.11667 9.87917 5.13333 10.0375 5.2C10.1958 5.26667 10.3167 5.375 10.4 5.525C10.4833 5.675 10.5333 5.85417 10.55 6.0625C10.5667 6.27083 10.5333 6.49167 10.45 6.725C10.3 7.09167 10.1875 7.46667 10.1125 7.85C10.0375 8.23333 10 8.61667 10 9C10 10.6667 10.5833 12.0833 11.75 13.25C12.9167 14.4167 14.3333 15 16 15C16.1833 15 16.3583 14.9958 16.525 14.9875C16.6917 14.9792 16.8583 14.9583 17.025 14.925C17.325 14.875 17.5708 14.8833 17.7625 14.95C17.9542 15.0167 18.1083 15.1167 18.225 15.25C18.3417 15.3833 18.4125 15.5292 18.4375 15.6875C18.4625 15.8458 18.4333 16.0083 18.35 16.175Z" fill="#1CBCC8"/>
</svg>
