<svg width="24" height="24" viewBox="0 0 24 24" fill="none" xmlns="http://www.w3.org/2000/svg">
<path d="M11 12C9.9 12 8.95833 11.6083 8.175 10.825C7.39167 10.0417 7 9.1 7 8C7 6.9 7.39167 5.95833 8.175 5.175C8.95833 4.39167 9.9 4 11 4C12.1 4 13.0417 4.39167 13.825 5.175C14.6083 5.95833 15 6.9 15 8C15 9.1 14.6083 10.0417 13.825 10.825C13.0417 11.6083 12.1 12 11 12ZM21.4 22.8L18.9 20.3C18.55 20.5 18.175 20.6667 17.775 20.8C17.375 20.9333 16.95 21 16.5 21C15.25 21 14.1875 20.5625 13.3125 19.6875C12.4375 18.8125 12 17.75 12 16.5C12 15.25 12.4375 14.1875 13.3125 13.3125C14.1875 12.4375 15.25 12 16.5 12C17.75 12 18.8125 12.4375 19.6875 13.3125C20.5625 14.1875 21 15.25 21 16.5C21 16.95 20.9333 17.375 20.8 17.775C20.6667 18.175 20.5 18.55 20.3 18.9L22.8 21.4C22.9833 21.5833 23.075 21.8167 23.075 22.1C23.075 22.3833 22.9833 22.6167 22.8 22.8C22.6167 22.9833 22.3833 23.075 22.1 23.075C21.8167 23.075 21.5833 22.9833 21.4 22.8ZM16.5 19C17.2 19 17.7917 18.7583 18.275 18.275C18.7583 17.7917 19 17.2 19 16.5C19 15.8 18.7583 15.2083 18.275 14.725C17.7917 14.2417 17.2 14 16.5 14C15.8 14 15.2083 14.2417 14.725 14.725C14.2417 15.2083 14 15.8 14 16.5C14 17.2 14.2417 17.7917 14.725 18.275C15.2083 18.7583 15.8 19 16.5 19ZM5 20C4.45 20 3.97917 19.8042 3.5875 19.4125C3.19583 19.0208 3 18.55 3 18V17.225C3 16.6583 3.14167 16.1333 3.425 15.65C3.70833 15.1667 4.1 14.8 4.6 14.55C5.35 14.1667 6.17917 13.8375 7.0875 13.5625C7.99583 13.2875 8.99167 13.1083 10.075 13.025C10.275 13.0083 10.425 13.0917 10.525 13.275C10.625 13.4583 10.6333 13.65 10.55 13.85C10.3667 14.2667 10.2292 14.6958 10.1375 15.1375C10.0458 15.5792 10 16.025 10 16.475C10 16.9083 10.0375 17.3458 10.1125 17.7875C10.1875 18.2292 10.3167 18.65 10.5 19.05C10.6 19.2833 10.5917 19.5 10.475 19.7C10.3583 19.9 10.1833 20 9.95 20H5Z" fill="#1CBCC8"/>
</svg>
