<svg width="24" height="24" viewBox="0 0 24 24" fill="none" xmlns="http://www.w3.org/2000/svg">
<path d="M4.30775 20.5C3.81058 20.5 3.385 20.323 3.031 19.969C2.677 19.615 2.5 19.1894 2.5 18.6922V10.1537C2.5 9.86757 2.564 9.59649 2.692 9.34049C2.82017 9.08432 2.99717 8.87341 3.223 8.70774L8.9155 4.41924C9.0815 4.29874 9.255 4.20832 9.436 4.14799C9.61717 4.08782 9.80583 4.05774 10.002 4.05774C10.1982 4.05774 10.3863 4.08782 10.5665 4.14799C10.7467 4.20832 10.9193 4.29874 11.0845 4.41924L13.6365 6.34424C13.839 6.49941 13.9428 6.67757 13.948 6.87874C13.9532 7.08007 13.8996 7.25841 13.7872 7.41374C13.6749 7.56907 13.522 7.66941 13.3285 7.71474C13.1352 7.76007 12.9321 7.70516 12.7192 7.54999L10.1828 5.62499C10.1314 5.58016 10.0705 5.55774 10 5.55774C9.9295 5.55774 9.86858 5.58016 9.81725 5.62499L4.125 9.90374C4.0865 9.93591 4.05608 9.97282 4.03375 10.0145C4.01125 10.0562 4 10.1026 4 10.1537V18.6922C4 18.7821 4.02883 18.8558 4.0865 18.9135C4.14417 18.9712 4.21792 19 4.30775 19H7.30775C7.52025 19 7.69833 19.0719 7.842 19.2157C7.98583 19.3596 8.05775 19.5377 8.05775 19.7502C8.05775 19.9629 7.98583 20.141 7.842 20.2845C7.69833 20.4282 7.52025 20.5 7.30775 20.5H4.30775ZM16 16.0962C16.8743 16.0962 17.7227 16.2081 18.5452 16.4317C19.3676 16.6554 20.1525 16.9891 20.9 17.4327C21.1552 17.5904 21.3606 17.7977 21.5163 18.0547C21.6721 18.3117 21.75 18.5897 21.75 18.8885V19.0615C21.75 19.4602 21.6132 19.7996 21.3395 20.0797C21.0657 20.3599 20.723 20.5 20.3115 20.5H11.6885C11.2898 20.5 10.9504 20.3599 10.6702 20.0797C10.3901 19.7996 10.25 19.4602 10.25 19.0615V18.8885C10.25 18.5897 10.3279 18.3117 10.4838 18.0547C10.6394 17.7977 10.8448 17.5904 11.1 17.4327C11.8475 16.9891 12.6324 16.6554 13.4548 16.4317C14.2773 16.2081 15.1257 16.0962 16 16.0962ZM11.8422 19H20.1578V18.7307C19.5231 18.3654 18.8568 18.085 18.1587 17.8895C17.4606 17.6938 16.741 17.596 16 17.596C15.259 17.596 14.5394 17.6938 13.8413 17.8895C13.1433 18.085 12.4769 18.3654 11.8422 18.7307V19ZM16.0013 14.548C15.2376 14.548 14.5882 14.2807 14.053 13.7462C13.5177 13.2117 13.25 12.5627 13.25 11.7992C13.25 11.0356 13.5173 10.3862 14.0518 9.85099C14.5863 9.31566 15.2353 9.04799 15.9988 9.04799C16.7624 9.04799 17.4118 9.31524 17.947 9.84974C18.4823 10.3842 18.75 11.0333 18.75 11.797C18.75 12.5605 18.4827 13.2099 17.9482 13.7452C17.4137 14.2804 16.7647 14.548 16.0013 14.548ZM16 13.048C16.3475 13.048 16.6427 12.9266 16.8855 12.6837C17.1285 12.4407 17.25 12.1455 17.25 11.798C17.25 11.4507 17.1285 11.1555 16.8855 10.9125C16.6427 10.6695 16.3475 10.548 16 10.548C15.6525 10.548 15.3573 10.6695 15.1145 10.9125C14.8715 11.1555 14.75 11.4507 14.75 11.798C14.75 12.1455 14.8715 12.4407 15.1145 12.6837C15.3573 12.9266 15.6525 13.048 16 13.048Z" fill="#A0AEC0"/>
</svg>
