<svg width="48" height="47" viewBox="0 0 48 47" fill="none" xmlns="http://www.w3.org/2000/svg">
<path d="M24 47C36.9787 47 47.5 36.4787 47.5 23.5C47.5 10.5213 36.9787 0 24 0C11.0213 0 0.5 10.5213 0.5 23.5C0.5 36.4787 11.0213 47 24 47Z" fill="#F7F7F7"/>
<g clip-path="url(#clip0_4850_71080)">
<path d="M32 16.5H17V31.5H32V16.5Z" fill="#ECEFF1"/>
<path d="M24.5 25.5747L32 31.4972V19.8047L24.5 25.5747Z" fill="#CFD8DC"/>
<path d="M32.625 16.5H32L24.5 22.4225L17 16.5H16.375C15.34 16.5 14.5 17.34 14.5 18.375V29.625C14.5 30.66 15.34 31.5 16.375 31.5H17V19.8075L24.5 25.5763L32 19.8063V31.5H32.625C33.66 31.5 34.5 30.66 34.5 29.625V18.375C34.5 17.34 33.66 16.5 32.625 16.5Z" fill="#F44336"/>
</g>
<defs>
<clipPath id="clip0_4850_71080">
<rect width="20" height="20" fill="white" transform="translate(14.5 14)"/>
</clipPath>
</defs>
</svg>
