<svg width="48" height="47" viewBox="0 0 48 47" fill="none" xmlns="http://www.w3.org/2000/svg">
<path d="M24 47C36.9787 47 47.5 36.4787 47.5 23.5C47.5 10.5213 36.9787 0 24 0C11.0213 0 0.5 10.5213 0.5 23.5C0.5 36.4787 11.0213 47 24 47Z" fill="#1877F2"/>
<path d="M34.4803 21.6706C34.4797 19.6011 33.8862 17.5751 32.77 15.8324C31.6537 14.0898 30.0616 12.7034 28.182 11.8375C26.3024 10.9715 24.214 10.6622 22.1641 10.9462C20.1142 11.2302 18.1885 12.0956 16.6151 13.44C15.0417 14.7843 13.8865 16.5513 13.2861 18.5318C12.6857 20.5123 12.6653 22.6234 13.2274 24.6151C13.7894 26.6068 14.9104 28.3958 16.4575 29.7702C18.0047 31.1447 19.9133 32.0471 21.9573 32.3706V24.8016H19.2073V21.6706H21.9573V19.2846C21.9573 16.5706 23.5743 15.0706 26.0483 15.0706C26.8604 15.0821 27.6706 15.1529 28.4723 15.2826V17.9476H27.1073C26.8744 17.9166 26.6376 17.9385 26.4143 18.0115C26.191 18.0845 25.9871 18.2069 25.8175 18.3695C25.648 18.5321 25.5173 18.7308 25.435 18.9509C25.3527 19.1709 25.321 19.4067 25.3423 19.6406V21.6706H28.3423L27.8623 24.8016H25.3423V32.3696C27.8898 31.966 30.2096 30.6668 31.8847 28.7056C33.5598 26.7444 34.4802 24.2498 34.4803 21.6706Z" fill="#1877F2"/>
<path d="M27.8689 24.8013L28.3489 21.6703H25.3489V19.6383C25.328 19.4045 25.3599 19.169 25.4423 18.9492C25.5247 18.7294 25.6555 18.531 25.825 18.3686C25.9945 18.2062 26.1984 18.084 26.4215 18.0111C26.6446 17.9382 26.8813 17.9164 27.1139 17.9473H28.4799V15.2823C27.6782 15.1526 26.868 15.0818 26.0559 15.0703C23.5819 15.0703 21.9649 16.5703 21.9649 19.2843V21.6703H19.2109V24.8013H21.9609V32.3693C23.0824 32.5448 24.2244 32.5448 25.3459 32.3693V24.8013H27.8689Z" fill="white"/>
</svg>
