<svg width="48" height="47" viewBox="0 0 48 47" fill="none" xmlns="http://www.w3.org/2000/svg">
<path d="M24 47C36.9787 47 47.5 36.4787 47.5 23.5C47.5 10.5213 36.9787 0 24 0C11.0213 0 0.5 10.5213 0.5 23.5C0.5 36.4787 11.0213 47 24 47Z" fill="#1DA1F2"/>
<path d="M32.3034 20.4153C32.3154 20.5883 32.3154 20.7603 32.3154 20.9333C32.3257 22.425 32.0396 23.9039 31.4735 25.2841C30.9075 26.6643 30.0728 27.9183 29.018 28.9732C27.9632 30.0281 26.7093 30.8629 25.3292 31.429C23.949 31.9952 22.4701 32.2815 20.9784 32.2713C18.809 32.2768 16.6841 31.6556 14.8594 30.4823C15.1788 30.5173 15.5 30.5337 15.8214 30.5313C17.6145 30.5365 19.3572 29.9376 20.7684 28.8313C19.9369 28.8162 19.1309 28.5418 18.4629 28.0465C17.7949 27.5511 17.2983 26.8595 17.0424 26.0683C17.2915 26.1078 17.5432 26.1285 17.7954 26.1303C18.1494 26.1292 18.5018 26.0835 18.8444 25.9943C17.9417 25.8117 17.1301 25.3221 16.5476 24.6087C15.9651 23.8953 15.6477 23.0022 15.6494 22.0813V22.0313C16.2012 22.3393 16.8179 22.5127 17.4494 22.5373C16.6035 21.9732 16.0047 21.1075 15.7754 20.117C15.5461 19.1264 15.7034 18.0857 16.2154 17.2073C17.2162 18.4392 18.4648 19.447 19.8802 20.1654C21.2956 20.8838 22.8462 21.2966 24.4314 21.3773C24.367 21.0771 24.3335 20.7712 24.3314 20.4643C24.3316 19.6644 24.5724 18.883 25.0223 18.2217C25.4723 17.5603 26.1107 17.0495 26.8547 16.7556C27.5986 16.4617 28.4138 16.3982 29.1942 16.5735C29.9747 16.7487 30.6845 17.1545 31.2314 17.7383C32.1234 17.5664 32.9788 17.2409 33.7594 16.7763C33.4631 17.6986 32.84 18.481 32.0074 18.9763C32.7989 18.8862 33.5724 18.6782 34.3024 18.3593C33.7564 19.1536 33.0802 19.85 32.3024 20.4193L32.3034 20.4153Z" fill="white"/>
</svg>
