<svg width="23" height="24" viewBox="0 0 23 24" fill="none" xmlns="http://www.w3.org/2000/svg">
<path d="M16.052 3.91297V2.41797C16.052 2.02505 15.7261 1.69922 15.3332 1.69922C14.9403 1.69922 14.6145 2.02505 14.6145 2.41797V3.85547H8.3853V2.41797C8.3853 2.02505 8.05947 1.69922 7.66655 1.69922C7.27364 1.69922 6.9478 2.02505 6.9478 2.41797V3.91297C4.3603 4.15255 3.10489 5.69547 2.91323 7.98588C2.89406 8.2638 3.12406 8.4938 3.39239 8.4938H19.6074C19.8853 8.4938 20.1153 8.25422 20.0865 7.98588C19.8949 5.69547 18.6395 4.15255 16.052 3.91297Z" fill="#A0AEC0"/>
<path opacity="0.4" d="M19.1667 9.93164C19.6938 9.93164 20.125 10.3629 20.125 10.89V16.7933C20.125 19.6683 18.6875 21.585 15.3333 21.585H7.66667C4.3125 21.585 2.875 19.6683 2.875 16.7933V10.89C2.875 10.3629 3.30625 9.93164 3.83333 9.93164H19.1667Z" fill="#A0AEC0"/>
<path d="M8.14583 14.8748C8.02125 14.8748 7.89666 14.846 7.78166 14.7981C7.66666 14.7502 7.56126 14.6831 7.46542 14.5969C7.37917 14.501 7.31207 14.3956 7.26415 14.2806C7.21624 14.1656 7.1875 14.041 7.1875 13.9164C7.1875 13.7919 7.21624 13.6673 7.26415 13.5523C7.31207 13.4373 7.37917 13.3319 7.46542 13.236C7.56126 13.1498 7.66666 13.0827 7.78166 13.0348C8.01166 12.9389 8.28 12.9389 8.51 13.0348C8.625 13.0827 8.73041 13.1498 8.82624 13.236C8.91249 13.3319 8.9796 13.4373 9.02751 13.5523C9.07543 13.6673 9.10417 13.7919 9.10417 13.9164C9.10417 14.041 9.07543 14.1656 9.02751 14.2806C8.9796 14.3956 8.91249 14.501 8.82624 14.5969C8.73041 14.6831 8.625 14.7502 8.51 14.7981C8.395 14.846 8.27042 14.8748 8.14583 14.8748Z" fill="#A0AEC0"/>
<path d="M11.4993 14.8761C11.3748 14.8761 11.2502 14.8474 11.1352 14.7995C11.0202 14.7515 10.9148 14.6844 10.8189 14.5982C10.6464 14.4161 10.541 14.1669 10.541 13.9178C10.541 13.6686 10.6464 13.4194 10.8189 13.2374C10.9148 13.1511 11.0202 13.084 11.1352 13.0361C11.3652 12.9307 11.6335 12.9307 11.8635 13.0361C11.9785 13.084 12.0839 13.1511 12.1798 13.2374C12.3523 13.4194 12.4577 13.6686 12.4577 13.9178C12.4577 14.1669 12.3523 14.4161 12.1798 14.5982C12.0839 14.6844 11.9785 14.7515 11.8635 14.7995C11.7485 14.8474 11.6239 14.8761 11.4993 14.8761Z" fill="#A0AEC0"/>
<path d="M8.14583 18.2302C8.02125 18.2302 7.89666 18.2015 7.78166 18.1536C7.66666 18.1057 7.56126 18.0386 7.46542 17.9523C7.29292 17.7702 7.1875 17.5211 7.1875 17.2719C7.1875 17.0227 7.29292 16.7736 7.46542 16.5915C7.56126 16.5053 7.66666 16.4382 7.78166 16.3902C8.01166 16.2944 8.28 16.2944 8.51 16.3902C8.625 16.4382 8.73041 16.5053 8.82624 16.5915C8.99874 16.7736 9.10417 17.0227 9.10417 17.2719C9.10417 17.5211 8.99874 17.7702 8.82624 17.9523C8.73041 18.0386 8.625 18.1057 8.51 18.1536C8.395 18.2015 8.27042 18.2302 8.14583 18.2302Z" fill="#A0AEC0"/>
</svg>
