<svg width="739" height="739" viewBox="0 0 739 739" fill="none" xmlns="http://www.w3.org/2000/svg">
    <path d="M202.102 373.55C197.801 365.258 195.998 359.317 195.998 357.942C195.998 355.223 201.91 353.597 201.91 353.597C211.133 348.719 254.512 355.77 274.036 359.021C284.966 360.927 296.022 362.013 307.114 362.273C307.114 362.273 309.819 360.115 313.026 357.395C316.233 354.676 331.456 336.792 337.428 335.225C343.399 333.659 348.808 337.398 348.808 337.398C348.808 337.398 358.578 343.31 356.937 344.448C355.297 345.586 331.456 366.13 325.485 369.929C319.514 373.727 307.055 372.101 296.206 374.274C286.865 376.136 249.028 378.442 240.353 379.151C233.837 380.697 226.998 380.127 220.828 377.526"
          fill="white"/>
    <mask id="mask0_2473_3207" style="mask-type:luminance" maskUnits="userSpaceOnUse" x="195" y="334" width="163"
          height="47">
        <path d="M202.102 373.55C197.801 365.258 195.998 359.317 195.998 357.942C195.998 355.223 201.91 353.597 201.91 353.597C211.133 348.719 254.512 355.77 274.036 359.021C284.966 360.927 296.022 362.013 307.114 362.273C307.114 362.273 309.819 360.115 313.026 357.395C316.233 354.676 331.456 336.792 337.428 335.225C343.399 333.659 348.808 337.398 348.808 337.398C348.808 337.398 358.578 343.31 356.937 344.448C355.297 345.586 331.456 366.13 325.485 369.929C319.514 373.727 307.055 372.101 296.206 374.274C286.865 376.136 249.028 378.442 240.353 379.151C233.837 380.697 226.998 380.127 220.828 377.526"
              fill="white"/>
    </mask>
    <g mask="url(#mask0_2473_3207)">
        <path d="M348.912 337.339C348.912 337.339 343.487 333.541 337.531 335.166C331.575 336.792 316.381 354.691 313.129 357.336C309.878 359.982 307.217 362.214 307.217 362.214C296.126 361.954 285.069 360.868 274.14 358.962C254.615 355.711 211.236 348.616 202.013 353.538C202.013 353.538 196.101 355.164 196.101 357.883C196.307 359.404 196.699 360.893 197.269 362.317L198.082 362.613C198.082 362.613 208.916 361.475 232.298 362.036C255.68 362.598 309.76 365.805 313.233 367.062C314.711 367.623 325.19 365.258 336.807 361.15C345.675 353.922 356.095 344.892 357.144 344.256C358.681 343.295 348.912 337.339 348.912 337.339Z"
              fill="#1CBCC8"/>
        <path opacity="0.5"
              d="M348.912 337.339C348.912 337.339 343.487 333.541 337.531 335.166C331.575 336.792 316.381 354.691 313.129 357.336C309.878 359.982 307.217 362.214 307.217 362.214C296.126 361.954 285.069 360.868 274.14 358.962C254.615 355.711 211.236 348.616 202.013 353.538C202.013 353.538 196.101 355.164 196.101 357.883C196.307 359.404 196.699 360.893 197.269 362.317L198.082 362.613C198.082 362.613 208.916 361.475 232.298 362.036C255.68 362.598 309.76 365.805 313.233 367.062C314.711 367.623 325.19 365.258 336.807 361.15C345.675 353.922 356.095 344.892 357.144 344.256C358.681 343.295 348.912 337.339 348.912 337.339Z"
              fill="white"/>
    </g>
    <path d="M202.102 373.55C197.801 365.258 195.998 359.317 195.998 357.942C195.998 355.223 201.91 353.597 201.91 353.597C211.133 348.719 254.512 355.77 274.036 359.021C284.966 360.927 296.022 362.013 307.114 362.273C307.114 362.273 309.819 360.115 313.026 357.395C316.233 354.676 331.456 336.792 337.428 335.225C343.399 333.659 348.808 337.398 348.808 337.398C348.808 337.398 358.578 343.31 356.937 344.448C355.297 345.586 331.456 366.13 325.485 369.929C319.514 373.727 307.055 372.101 296.206 374.274C286.865 376.136 249.028 378.442 240.353 379.151C233.837 380.697 226.998 380.127 220.828 377.526"
          stroke="#263238" stroke-linecap="round" stroke-linejoin="round"/>
    <path d="M416.279 421.762C417.26 419.9 418.731 418.342 420.534 417.255C422.336 416.169 424.402 415.596 426.507 415.599H525.089C525.089 415.599 532.213 415.599 530.085 429.138C527.956 442.676 498.722 525.341 491.657 550.334C484.592 575.327 483.099 628.002 483.099 628.002H364.859C364.859 628.002 374.23 502.033 416.279 421.762Z"
          fill="white"/>
    <mask id="mask1_2473_3207" style="mask-type:luminance" maskUnits="userSpaceOnUse" x="364" y="415" width="167"
          height="214">
        <path d="M416.279 421.762C417.26 419.9 418.731 418.342 420.534 417.255C422.336 416.169 424.402 415.596 426.507 415.599H525.089C525.089 415.599 532.213 415.599 530.085 429.138C527.956 442.676 498.722 525.341 491.657 550.334C484.592 575.327 483.099 628.002 483.099 628.002H364.859C364.859 628.002 374.23 502.033 416.279 421.762Z"
              fill="white"/>
    </mask>
    <g mask="url(#mask1_2473_3207)">
        <path opacity="0.16"
              d="M460.678 415.599H426.506C424.402 415.596 422.336 416.169 420.534 417.255C418.731 418.342 417.26 419.9 416.279 421.762C374.23 502.033 364.756 627.958 364.756 627.958H417.786L430.867 578.283L485.405 589.53C485.789 585.362 486.232 581.12 486.75 576.938L485.553 563.636C485.553 563.636 474.379 551.886 470.861 548.944C467.344 546.003 469.679 540.697 469.088 517.773C468.496 494.849 447.923 478.37 440.267 464.255C432.611 450.14 444.39 441.316 454.973 427.201C458.742 422.102 460.279 418.348 460.678 415.599Z"
              fill="black"/>
    </g>
    <path d="M416.279 421.762C417.26 419.9 418.731 418.342 420.534 417.255C422.336 416.169 424.402 415.596 426.507 415.599H525.089C525.089 415.599 532.213 415.599 530.085 429.138C527.956 442.676 498.722 525.341 491.657 550.334C484.592 575.327 483.099 628.002 483.099 628.002H364.859C364.859 628.002 374.23 502.033 416.279 421.762Z"
          stroke="#263238" stroke-linecap="round" stroke-linejoin="round"/>
    <path d="M507.989 439.114C498.027 462.363 476.951 554.398 473.522 627.958H483.04C483.04 627.958 484.518 575.223 491.598 550.289C498.677 525.355 527.942 442.676 530.026 429.093C532.11 415.51 525.03 415.555 525.03 415.555C525.03 415.555 515.985 420.476 507.989 439.114Z"
          fill="#263238" stroke="#263238" stroke-linecap="round" stroke-linejoin="round"/>
    <path d="M334.811 392.646C334.811 392.646 319.086 383.423 313.129 367.165C307.173 350.907 359.76 324.865 382.595 323.239C405.43 321.613 411.874 327.569 425.457 350.892C439.04 374.215 448.233 406.199 441.183 421.925C434.133 437.651 422.206 441.449 430.837 454.441C439.469 467.432 463.915 504.323 462.289 521.675C460.663 539.027 443.858 554.191 419.427 555.846C394.996 557.502 362.48 542.825 335.373 518.896C308.267 494.968 315.302 459.776 325.027 448.396C334.752 437.015 349.429 432.67 350.508 421.289C351.587 409.909 334.811 392.646 334.811 392.646Z"
          fill="#263238" stroke="#263238" stroke-linecap="round" stroke-linejoin="round"/>
    <path d="M401.839 366.914C410.19 382.462 420.639 403.287 423.905 415.865C429.61 437.887 400.257 451.751 408.401 462.348"
          stroke="white" stroke-linecap="round" stroke-linejoin="round"/>
    <path d="M390.458 346.547C390.458 346.547 393.71 352.089 398.203 360.248" stroke="white" stroke-linecap="round"
          stroke-linejoin="round"/>
    <path d="M434.266 385.669C435.229 388.584 435.854 391.599 436.128 394.656" stroke="white" stroke-linecap="round"
          stroke-linejoin="round"/>
    <path d="M396.104 338.462C396.104 338.462 421.792 357.44 432.049 380.157" stroke="white" stroke-linecap="round"
          stroke-linejoin="round"/>
    <path d="M360.455 352.695C342.113 357.839 315.73 366.189 317.874 371.008" stroke="white" stroke-linecap="round"
          stroke-linejoin="round"/>
    <path d="M377.407 348.173C377.407 348.173 373.491 349.148 367.653 350.715" stroke="white" stroke-linecap="round"
          stroke-linejoin="round"/>
    <path d="M354.72 338.595C365.227 335.284 376.231 333.833 387.236 334.309" stroke="white" stroke-linecap="round"
          stroke-linejoin="round"/>
    <path d="M347.241 341.655C348.903 340.789 350.621 340.039 352.385 339.408" stroke="white" stroke-linecap="round"
          stroke-linejoin="round"/>
    <path d="M202.102 373.55C199.613 368.992 197.63 364.174 196.19 359.184C197.623 364.177 199.606 368.995 202.102 373.55ZM196.027 358.341C196.027 358.43 196.027 358.534 196.027 358.667C196.057 358.534 196.042 358.43 196.027 358.341ZM202.102 373.535C207.63 384.005 214.507 393.705 222.557 402.386C242.082 423.536 298.482 478.858 303.847 482.656C309.213 486.454 307.646 497.288 303.847 508.137C300.049 518.985 285.949 534.741 286.496 552.063C287.043 569.385 292.408 595.989 291.92 601.413C291.432 606.838 277.864 625.283 277.864 625.283H417.772C417.772 625.283 400.331 603.113 400.331 595.531C400.331 587.949 424.275 490.8 425.354 483.75C426.433 476.7 422.102 471.822 413.426 471.275C404.75 470.729 371.673 463.678 370.047 458.254C368.421 452.83 378.723 432.227 378.723 432.227L346.207 433.852C346.207 433.852 344.581 447.953 342.408 450.672C340.236 453.392 336.984 447.953 329.387 444.169C321.79 440.385 307.217 437.119 301.734 432.774C296.25 428.428 244.254 379.566 244.254 379.566"
          fill="white"/>
    <mask id="mask2_2473_3207" style="mask-type:luminance" maskUnits="userSpaceOnUse" x="196" y="358" width="230"
          height="268">
        <path d="M202.102 373.55C199.613 368.992 197.63 364.174 196.19 359.184C197.623 364.177 199.606 368.995 202.102 373.55ZM196.027 358.341C196.027 358.43 196.027 358.534 196.027 358.667C196.057 358.534 196.042 358.43 196.027 358.341ZM202.102 373.535C207.63 384.005 214.507 393.705 222.557 402.386C242.082 423.536 298.482 478.858 303.847 482.656C309.213 486.454 307.646 497.288 303.847 508.137C300.049 518.985 285.949 534.741 286.496 552.063C287.043 569.385 292.408 595.989 291.92 601.413C291.432 606.838 277.864 625.283 277.864 625.283H417.772C417.772 625.283 400.331 603.113 400.331 595.531C400.331 587.949 424.275 490.8 425.354 483.75C426.433 476.7 422.102 471.822 413.426 471.275C404.75 470.729 371.673 463.678 370.047 458.254C368.421 452.83 378.723 432.227 378.723 432.227L346.207 433.852C346.207 433.852 344.581 447.953 342.408 450.672C340.236 453.392 336.984 447.953 329.387 444.169C321.79 440.385 307.217 437.119 301.734 432.774C296.25 428.428 244.254 379.566 244.254 379.566"
              fill="white"/>
    </mask>
    <g mask="url(#mask2_2473_3207)">
        <path d="M310.04 436.957C312.745 441.686 315.45 445.958 315.45 445.958C315.45 445.958 324.569 451.086 326.845 451.086C329.121 451.086 342.808 458.476 342.808 458.476C342.808 458.476 354.218 455.624 350.198 445.928C348.929 443.446 347.328 441.149 345.438 439.1C344.758 443.401 343.665 449.032 342.379 450.643C340.206 453.348 336.955 447.923 329.358 444.14C324.436 441.686 316.47 439.44 310.04 436.957Z"
              fill="#1CBCC8"/>
        <path d="M282.195 415.008C265.449 399.504 244.254 379.625 244.254 379.625L231.928 377.851L230.45 378.679C230.45 378.679 265.242 409.465 272.647 412.894C275.642 414.271 278.898 414.992 282.195 415.008Z"
              fill="#1CBCC8"/>
        <path d="M299.739 431.059L298.408 429.876C299.088 431 299.473 431.709 299.473 431.709L299.739 431.059Z"
              fill="#1CBCC8"/>
        <g opacity="0.5">
            <path d="M310.04 436.957C312.745 441.686 315.45 445.958 315.45 445.958C315.45 445.958 324.569 451.086 326.845 451.086C329.121 451.086 342.808 458.476 342.808 458.476C342.808 458.476 354.218 455.624 350.198 445.928C348.929 443.446 347.328 441.149 345.438 439.1C344.758 443.401 343.665 449.032 342.379 450.643C340.206 453.348 336.955 447.923 329.358 444.14C324.436 441.686 316.47 439.44 310.04 436.957Z"
                  fill="white"/>
            <path d="M282.195 415.008C265.449 399.504 244.254 379.625 244.254 379.625L231.928 377.851L230.45 378.679C230.45 378.679 265.242 409.465 272.647 412.894C275.642 414.271 278.898 414.992 282.195 415.008Z"
                  fill="white"/>
            <path d="M299.739 431.059L298.408 429.876C299.088 431 299.473 431.709 299.473 431.709L299.739 431.059Z"
                  fill="white"/>
        </g>
    </g>
    <path d="M195.998 357.942C195.991 358.046 195.991 358.149 195.998 358.253M196.19 359.184C197.63 364.174 199.613 368.992 202.102 373.55C199.606 368.995 197.623 364.177 196.19 359.184ZM196.19 359.184C196.149 359.044 196.119 358.9 196.101 358.755M202.102 373.535C207.63 384.005 214.507 393.705 222.557 402.386C242.082 423.536 298.482 478.858 303.847 482.656C309.213 486.454 307.646 497.288 303.847 508.137C300.049 518.985 285.949 534.741 286.496 552.063C287.042 569.385 292.408 595.989 291.92 601.413C291.432 606.838 277.864 625.283 277.864 625.283H417.772C417.772 625.283 400.331 603.113 400.331 595.531C400.331 587.949 424.275 490.8 425.354 483.75C426.433 476.7 422.102 471.822 413.426 471.275C404.75 470.729 371.673 463.678 370.047 458.254C368.421 452.83 378.723 432.227 378.723 432.227L346.207 433.852C346.207 433.852 344.581 447.953 342.408 450.672C340.236 453.392 336.984 447.953 329.387 444.169C321.79 440.385 307.217 437.119 301.734 432.774C296.25 428.428 244.254 379.566 244.254 379.566M196.027 358.341C196.027 358.43 196.027 358.534 196.027 358.667C196.057 358.534 196.042 358.43 196.027 358.341Z"
          stroke="#263238" stroke-linecap="round" stroke-linejoin="round"/>
    <path d="M244.254 379.625C244.254 379.625 226.932 379.95 217.266 371.983" stroke="#263238" stroke-linecap="round"
          stroke-linejoin="round"/>
    <path d="M370.062 458.254C368.436 452.845 378.738 432.227 378.738 432.227L346.222 433.852C346.222 433.852 344.596 447.952 342.423 450.672C340.251 453.392 336.999 447.952 329.402 444.169C328.826 443.873 328.19 443.592 327.54 443.312L325.574 474.217C325.574 474.217 328.427 504.146 362.627 498.456C376.476 496.15 391.256 483.794 404.011 469.901C390.887 467.492 371.303 462.407 370.062 458.254Z"
          fill="white"/>
    <mask id="mask3_2473_3207" style="mask-type:luminance" maskUnits="userSpaceOnUse" x="325" y="432" width="80"
          height="68">
        <path d="M370.062 458.254C368.436 452.845 378.738 432.227 378.738 432.227L346.222 433.852C346.222 433.852 344.596 447.952 342.423 450.672C340.251 453.392 336.999 447.952 329.402 444.169C328.826 443.873 328.19 443.592 327.54 443.312L325.574 474.217C325.574 474.217 328.427 504.146 362.627 498.456C376.476 496.15 391.256 483.794 404.011 469.901C390.887 467.492 371.303 462.407 370.062 458.254Z"
              fill="white"/>
    </mask>
    <g mask="url(#mask3_2473_3207)">
        <path d="M369.145 436.321C369.145 436.321 367.18 447.347 365.598 459.54C364.017 471.734 362.849 480.809 362.849 480.809L370.062 458.254L378.191 434.355C378.191 434.355 370.328 434.355 369.145 436.321Z"
              fill="#1CBCC8"/>
        <path opacity="0.5"
              d="M369.145 436.321C369.145 436.321 367.18 447.347 365.598 459.54C364.017 471.734 362.849 480.809 362.849 480.809L370.062 458.254L378.191 434.355C378.191 434.355 370.328 434.355 369.145 436.321Z"
              fill="white"/>
    </g>
    <path d="M370.062 458.254C368.436 452.845 378.738 432.227 378.738 432.227L346.222 433.852C346.222 433.852 344.596 447.952 342.423 450.672C340.251 453.392 336.999 447.952 329.402 444.169C328.826 443.873 328.19 443.592 327.54 443.312L325.574 474.217C325.574 474.217 328.427 504.146 362.627 498.456C376.476 496.15 391.256 483.794 404.011 469.901C390.887 467.492 371.303 462.407 370.062 458.254Z"
          stroke="#263238" stroke-linecap="round" stroke-linejoin="round"/>
    <path d="M342.408 450.672C340.236 453.377 336.984 447.952 329.387 444.169C324.598 441.76 316.972 439.572 310.661 437.207C308.873 432.966 306.508 427.438 304.985 424.098C302.281 418.186 297.935 421.925 297.935 421.925C295.668 419.346 293.836 416.416 292.511 413.249C289.806 407.337 285.461 407.825 279.505 406.746C273.548 405.667 261.059 394.272 261.059 394.272C261.059 394.272 255.221 389.837 252.812 387.635C250.004 393.163 243.279 402.888 228.735 408.963C251.925 433.187 298.97 479.212 303.906 482.671C309.331 486.454 307.705 497.303 303.906 508.151C300.108 519 286.008 534.755 286.555 552.078C287.102 569.4 292.467 596.004 291.979 601.428C291.491 606.261 280.672 621.411 278.322 624.662L283.835 625.283H312.538C312.375 610.739 312.39 551.383 322.337 527.735C333.732 500.554 342.408 450.672 342.408 450.672Z"
          fill="#1CBCC8"/>
    <mask id="mask4_2473_3207" style="mask-type:luminance" maskUnits="userSpaceOnUse" x="228" y="387" width="115"
          height="239">
        <path d="M342.408 450.672C340.236 453.377 336.984 447.952 329.387 444.169C324.598 441.76 316.972 439.572 310.661 437.207C308.873 432.966 306.508 427.438 304.985 424.098C302.281 418.186 297.935 421.925 297.935 421.925C295.668 419.346 293.836 416.416 292.511 413.249C289.806 407.337 285.461 407.825 279.505 406.746C273.548 405.667 261.059 394.272 261.059 394.272C261.059 394.272 255.221 389.837 252.812 387.635C250.004 393.163 243.279 402.888 228.735 408.963C251.925 433.187 298.97 479.212 303.906 482.671C309.331 486.454 307.705 497.303 303.906 508.151C300.108 519 286.008 534.755 286.555 552.078C287.102 569.4 292.467 596.004 291.979 601.428C291.491 606.261 280.672 621.411 278.322 624.662L283.835 625.283H312.538C312.375 610.739 312.39 551.383 322.337 527.735C333.732 500.554 342.408 450.672 342.408 450.672Z"
              fill="white"/>
    </mask>
    <g mask="url(#mask4_2473_3207)">
        <path opacity="0.16"
              d="M329.387 444.169C324.598 441.76 316.972 439.572 310.661 437.207C308.872 432.966 306.508 427.438 304.985 424.098C302.281 418.186 297.935 421.925 297.935 421.925C295.668 419.346 293.836 416.416 292.511 413.249C289.806 407.337 285.461 407.825 279.505 406.746C273.548 405.667 261.059 394.272 261.059 394.272C261.059 394.272 255.221 389.837 252.812 387.635C251.61 389.982 250.179 392.205 248.541 394.272C258.236 402.474 268.937 411.165 272.676 412.894C280.066 416.308 281.796 413.456 287.456 416.885C293.117 420.314 299.428 431.665 299.428 431.665C299.428 431.665 302.857 422.531 305.71 428.812C308.562 435.094 315.405 445.913 315.405 445.913C315.405 445.913 324.525 451.041 326.801 451.041C328.589 451.041 337.354 455.594 341.078 457.559C341.906 453.229 342.364 450.628 342.364 450.628C340.236 453.377 336.984 447.952 329.387 444.169Z"
              fill="black"/>
    </g>
    <path d="M342.408 450.672C340.236 453.377 336.984 447.952 329.387 444.169C324.598 441.76 316.972 439.572 310.661 437.207C308.873 432.966 306.508 427.438 304.985 424.098C302.281 418.186 297.935 421.925 297.935 421.925C295.668 419.346 293.836 416.416 292.511 413.249C289.806 407.337 285.461 407.825 279.505 406.746C273.548 405.667 261.059 394.272 261.059 394.272C261.059 394.272 255.221 389.837 252.812 387.635C250.004 393.163 243.279 402.888 228.735 408.963C251.925 433.187 298.97 479.212 303.906 482.671C309.331 486.454 307.705 497.303 303.906 508.151C300.108 519 286.008 534.755 286.555 552.078C287.102 569.4 292.467 596.004 291.979 601.428C291.491 606.261 280.672 621.411 278.322 624.662L283.835 625.283H312.538C312.375 610.739 312.39 551.383 322.337 527.735C333.732 500.554 342.408 450.672 342.408 450.672Z"
          stroke="#263238" stroke-linecap="round" stroke-linejoin="round"/>
    <path d="M342.793 448.78C342.793 448.78 336.053 446.711 331.9 450.347C327.747 453.983 321.554 472.635 317.903 492.869C315.653 504.648 317.206 516.837 322.337 527.676C322.337 527.676 330.865 505.314 333.452 494.421C336.038 483.528 342.793 448.78 342.793 448.78Z"
          fill="#1CBCC8"/>
    <mask id="mask5_2473_3207" style="mask-type:luminance" maskUnits="userSpaceOnUse" x="316" y="448" width="27"
          height="80">
        <path d="M342.793 448.78C342.793 448.78 336.053 446.711 331.9 450.347C327.747 453.983 321.554 472.635 317.903 492.869C315.653 504.648 317.206 516.837 322.337 527.676C322.337 527.676 330.865 505.314 333.452 494.421C336.038 483.528 342.793 448.78 342.793 448.78Z"
              fill="white"/>
    </mask>
    <g mask="url(#mask5_2473_3207)">
        <path opacity="0.16"
              d="M329.86 452.076C329.86 452.076 334.738 450.894 336.748 451.573C338.44 452.299 340.022 453.26 341.448 454.426L342.793 448.78C340.775 447.749 338.487 447.372 336.245 447.701C332.89 448.381 329.86 452.076 329.86 452.076Z"
              fill="black"/>
    </g>
    <path d="M342.793 448.78C342.793 448.78 336.053 446.711 331.9 450.347C327.747 453.983 321.554 472.635 317.903 492.869C315.653 504.648 317.206 516.837 322.337 527.676C322.337 527.676 330.865 505.314 333.452 494.421C336.038 483.528 342.793 448.78 342.793 448.78Z"
          stroke="#263238" stroke-linecap="round" stroke-linejoin="round"/>
    <path d="M297.403 450.554L306.079 485.804L286.555 441.331" stroke="#263238" stroke-linecap="round"
          stroke-linejoin="round"/>
    <path d="M354.557 625.283H417.786C417.786 625.283 400.346 603.113 400.346 595.531C400.346 587.948 424.289 490.799 425.368 483.749C426.447 476.699 422.117 471.822 413.441 471.275C404.765 470.728 371.687 463.678 370.062 458.254C370.062 458.254 357.587 502.18 353.257 532.006C349.532 557.59 353.39 610.68 354.557 625.283Z"
          fill="#1CBCC8"/>
    <mask id="mask6_2473_3207" style="mask-type:luminance" maskUnits="userSpaceOnUse" x="351" y="458" width="75"
          height="168">
        <path d="M354.557 625.283H417.786C417.786 625.283 400.346 603.113 400.346 595.531C400.346 587.948 424.289 490.799 425.368 483.749C426.447 476.699 422.117 471.822 413.441 471.275C404.765 470.728 371.687 463.678 370.062 458.254C370.062 458.254 357.587 502.18 353.257 532.006C349.532 557.59 353.39 610.68 354.557 625.283Z"
              fill="white"/>
    </mask>
    <g mask="url(#mask6_2473_3207)">
        <path opacity="0.16"
              d="M413.441 471.275C406.332 470.832 382.846 466.014 373.698 461.313L377.023 468.999C383.048 472.196 389.528 474.449 396.237 475.68C407.248 477.645 417.491 477.261 424.186 487.105L424.511 487.592C424.925 485.7 425.206 484.37 425.294 483.75C426.462 476.699 422.117 471.822 413.441 471.275Z"
              fill="black"/>
    </g>
    <path d="M354.557 625.283H417.786C417.786 625.283 400.346 603.113 400.346 595.531C400.346 587.948 424.289 490.799 425.368 483.749C426.447 476.699 422.117 471.822 413.441 471.275C404.765 470.728 371.687 463.678 370.062 458.254C370.062 458.254 357.587 502.18 353.257 532.006C349.532 557.59 353.39 610.68 354.557 625.283Z"
          stroke="#263238" stroke-linecap="round" stroke-linejoin="round"/>
    <path d="M370.062 458.254C370.062 458.254 353.331 511.462 353.257 532.006C353.257 532.006 377.023 503.229 380.127 483.01C383.231 462.791 370.062 458.254 370.062 458.254Z"
          fill="#1CBCC8"/>
    <mask id="mask7_2473_3207" style="mask-type:luminance" maskUnits="userSpaceOnUse" x="353" y="458" width="28"
          height="75">
        <path d="M370.062 458.254C370.062 458.254 353.331 511.462 353.257 532.006C353.257 532.006 377.023 503.229 380.127 483.01C383.231 462.791 370.062 458.254 370.062 458.254Z"
              fill="white"/>
    </mask>
    <g mask="url(#mask7_2473_3207)">
        <path opacity="0.16"
              d="M367.18 465.053C369.694 464.968 372.19 465.498 374.454 466.595C376.717 467.692 378.68 469.324 380.171 471.349C380.171 471.349 376.89 461.698 370.062 458.254L367.18 465.053Z"
              fill="black"/>
    </g>
    <path d="M370.062 458.254C370.062 458.254 353.331 511.462 353.257 532.006C353.257 532.006 377.023 503.229 380.127 483.01C383.231 462.791 370.062 458.254 370.062 458.254Z"
          stroke="#263238" stroke-linecap="round" stroke-linejoin="round"/>
    <path d="M548.678 615.277C548.678 615.277 560.931 615.78 568.956 616.932C574.308 617.658 579.696 618.087 585.096 618.218C585.096 618.218 580.662 609.262 575.932 606.734C571.203 604.207 562.63 599.684 555.447 600.689C548.264 601.694 537.992 608.936 538.849 611.242C539.706 613.548 543.534 614.582 548.678 615.277Z"
          fill="white"/>
    <mask id="mask8_2473_3207" style="mask-type:luminance" maskUnits="userSpaceOnUse" x="538" y="600" width="48"
          height="19">
        <path d="M548.678 615.277C548.678 615.277 560.931 615.78 568.956 616.932C574.308 617.658 579.696 618.087 585.096 618.218C585.096 618.218 580.662 609.262 575.932 606.734C571.203 604.207 562.63 599.684 555.447 600.689C548.264 601.694 537.992 608.936 538.849 611.242C539.706 613.548 543.534 614.582 548.678 615.277Z"
              fill="white"/>
    </mask>
    <g mask="url(#mask8_2473_3207)">
        <path d="M548.678 615.277C548.678 615.277 560.931 615.78 568.956 616.932C574.308 617.658 579.696 618.087 585.096 618.218C585.096 618.218 580.662 609.262 575.932 606.734C571.203 604.207 562.63 599.684 555.447 600.689C548.264 601.694 537.992 608.936 538.849 611.242C539.706 613.548 543.534 614.582 548.678 615.277Z"
              fill="#1CBCC8"/>
        <path opacity="0.5"
              d="M548.678 615.277C548.678 615.277 560.931 615.78 568.956 616.932C574.308 617.658 579.696 618.087 585.096 618.218C585.096 618.218 580.662 609.262 575.932 606.734C571.203 604.207 562.63 599.684 555.447 600.689C548.264 601.694 537.992 608.936 538.849 611.242C539.706 613.548 543.534 614.582 548.678 615.277Z"
              fill="white"/>
    </g>
    <path d="M548.678 615.277C548.678 615.277 560.931 615.78 568.956 616.932C574.308 617.658 579.696 618.087 585.096 618.218C585.096 618.218 580.662 609.262 575.932 606.734C571.203 604.207 562.63 599.684 555.447 600.689C548.264 601.694 537.992 608.936 538.849 611.242C539.706 613.548 543.534 614.582 548.678 615.277Z"
          stroke="#263238" stroke-linecap="round" stroke-linejoin="round"/>
    <path d="M569.03 611.611C569.03 611.611 578.74 606.571 581.164 606.645C583.588 606.719 599.699 617.612 598.9 619.356C598.358 620.165 597.576 620.783 596.663 621.122C595.751 621.462 594.755 621.506 593.816 621.248C592.028 620.405 581.179 615.794 581.179 615.794L574.085 617.464L569.03 611.611Z"
          fill="white"/>
    <mask id="mask9_2473_3207" style="mask-type:luminance" maskUnits="userSpaceOnUse" x="569" y="606" width="30"
          height="16">
        <path d="M569.03 611.611C569.03 611.611 578.74 606.571 581.164 606.645C583.588 606.719 599.699 617.612 598.9 619.356C598.358 620.165 597.576 620.783 596.663 621.122C595.751 621.462 594.755 621.506 593.816 621.248C592.028 620.405 581.179 615.794 581.179 615.794L574.085 617.464L569.03 611.611Z"
              fill="white"/>
    </mask>
    <g mask="url(#mask9_2473_3207)">
        <path d="M569.03 611.611C569.03 611.611 578.74 606.571 581.164 606.645C583.588 606.719 599.699 617.612 598.9 619.356C598.102 621.1 594.289 622.519 593.816 621.248C593.343 619.977 581.179 615.794 581.179 615.794L574.085 617.464L569.03 611.611Z"
              fill="#1CBCC8"/>
        <path opacity="0.5"
              d="M569.03 611.611C569.03 611.611 578.74 606.571 581.164 606.645C583.588 606.719 599.699 617.612 598.9 619.356C598.102 621.1 594.289 622.519 593.816 621.248C593.343 619.977 581.179 615.794 581.179 615.794L574.085 617.464L569.03 611.611Z"
              fill="white"/>
    </g>
    <path d="M569.03 611.611C569.03 611.611 578.74 606.571 581.164 606.645C583.588 606.719 599.699 617.612 598.9 619.356C598.358 620.165 597.576 620.783 596.663 621.122C595.751 621.462 594.755 621.506 593.816 621.248C592.028 620.405 581.179 615.794 581.179 615.794L574.085 617.464L569.03 611.611Z"
          stroke="#263238" stroke-linecap="round" stroke-linejoin="round"/>
    <path d="M562.098 603.32C562.098 603.32 575.046 602.906 577.617 604.207C580.189 605.507 591.806 625.431 590.062 626.879C588.318 628.328 583.5 627.899 583.648 626.288C583.795 624.677 572.947 614.006 572.947 614.006L564.508 612.158L562.098 603.32Z"
          fill="white"/>
    <mask id="mask10_2473_3207" style="mask-type:luminance" maskUnits="userSpaceOnUse" x="562" y="603" width="29"
          height="25">
        <path d="M562.098 603.32C562.098 603.32 575.046 602.906 577.617 604.207C580.189 605.507 591.806 625.431 590.062 626.879C588.318 628.328 583.5 627.899 583.648 626.288C583.795 624.677 572.947 614.006 572.947 614.006L564.508 612.158L562.098 603.32Z"
              fill="white"/>
    </mask>
    <g mask="url(#mask10_2473_3207)">
        <path d="M562.098 603.32C562.098 603.32 575.046 602.906 577.617 604.207C580.189 605.507 591.806 625.431 590.062 626.879C588.318 628.328 583.5 627.899 583.648 626.288C583.795 624.677 572.947 614.006 572.947 614.006L564.508 612.158L562.098 603.32Z"
              fill="#1CBCC8"/>
        <path opacity="0.5"
              d="M562.098 603.32C562.098 603.32 575.046 602.906 577.617 604.207C580.189 605.507 591.806 625.431 590.062 626.879C588.318 628.328 583.5 627.899 583.648 626.288C583.795 624.677 572.947 614.006 572.947 614.006L564.508 612.158L562.098 603.32Z"
              fill="white"/>
    </g>
    <path d="M562.098 603.32C562.098 603.32 575.046 602.906 577.617 604.207C580.189 605.507 591.806 625.431 590.062 626.879C588.318 628.328 583.5 627.899 583.648 626.288C583.795 624.677 572.947 614.006 572.947 614.006L564.508 612.158L562.098 603.32Z"
          stroke="#263238" stroke-linecap="round" stroke-linejoin="round"/>
    <path d="M554.427 600.644C554.427 600.644 567.537 600.216 570.139 601.546C572.74 602.876 584.505 623.021 582.731 624.499C580.958 625.977 576.11 625.519 576.258 623.893C576.405 622.268 565.424 611.463 565.424 611.463L556.881 609.586L554.427 600.644Z"
          fill="white"/>
    <mask id="mask11_2473_3207" style="mask-type:luminance" maskUnits="userSpaceOnUse" x="554" y="600" width="29"
          height="26">
        <path d="M554.427 600.644C554.427 600.644 567.537 600.216 570.139 601.546C572.74 602.876 584.505 623.021 582.731 624.499C580.958 625.977 576.11 625.519 576.258 623.893C576.405 622.268 565.424 611.463 565.424 611.463L556.881 609.586L554.427 600.644Z"
              fill="white"/>
    </mask>
    <g mask="url(#mask11_2473_3207)">
        <path d="M554.427 600.644C554.427 600.644 567.537 600.216 570.139 601.546C572.74 602.876 584.505 623.021 582.731 624.499C580.958 625.977 576.11 625.519 576.258 623.893C576.405 622.268 565.424 611.463 565.424 611.463L556.881 609.586L554.427 600.644Z"
              fill="#1CBCC8"/>
        <path opacity="0.5"
              d="M554.427 600.644C554.427 600.644 567.537 600.216 570.139 601.546C572.74 602.876 584.505 623.021 582.731 624.499C580.958 625.977 576.11 625.519 576.258 623.893C576.405 622.268 565.424 611.463 565.424 611.463L556.881 609.586L554.427 600.644Z"
              fill="white"/>
    </g>
    <path d="M554.427 600.644C554.427 600.644 567.537 600.216 570.139 601.546C572.74 602.876 584.505 623.021 582.731 624.499C580.958 625.977 576.11 625.519 576.258 623.893C576.405 622.268 565.424 611.463 565.424 611.463L556.881 609.586L554.427 600.644Z"
          stroke="#263238" stroke-linecap="round" stroke-linejoin="round"/>
    <path d="M405.371 525.533C414.86 540.15 433.911 577.189 439.469 581.357C448.145 587.86 506.141 603.645 511.728 607.961C517.315 612.277 516.931 616.607 522.222 618.189C527.513 619.77 547.348 624.308 554.915 625.017C562.483 625.727 559.098 621.041 559.098 621.041L546.195 612.173L557.443 609.395C557.443 609.395 568.72 622.963 570.833 623.702C572.947 624.441 576.671 623.702 576.435 622.032C576.021 619.356 563.99 597.467 559.719 596.536C555.447 595.605 529.523 599.196 529.523 599.196C529.523 599.196 475.148 562.527 474.172 561.227C474.172 561.227 470.921 552.004 468.26 548.205C465.6 544.407 463.915 545.501 463.915 545.501C463.915 545.501 465.009 540.609 463.383 538.983L454.707 530.307L454.396 530.721C452.918 527.765 451.44 524.395 449.815 520.552C445.277 509.866 429.211 479.877 426.507 475.547C424.482 472.31 407.514 469.99 398.912 469.014"
          fill="#1CBCC8"/>
    <mask id="mask12_2473_3207" style="mask-type:luminance" maskUnits="userSpaceOnUse" x="398" y="469" width="179"
          height="157">
        <path d="M405.371 525.533C414.86 540.15 433.911 577.189 439.469 581.357C448.145 587.86 506.141 603.645 511.728 607.961C517.315 612.277 516.931 616.607 522.222 618.189C527.513 619.77 547.348 624.308 554.915 625.017C562.483 625.727 559.098 621.041 559.098 621.041L546.195 612.173L557.443 609.395C557.443 609.395 568.72 622.963 570.833 623.702C572.947 624.441 576.671 623.702 576.435 622.032C576.021 619.356 563.99 597.467 559.719 596.536C555.447 595.605 529.523 599.196 529.523 599.196C529.523 599.196 475.148 562.527 474.172 561.227C474.172 561.227 470.921 552.004 468.26 548.205C465.6 544.407 463.915 545.501 463.915 545.501C463.915 545.501 465.009 540.609 463.383 538.983L454.707 530.307L454.396 530.721C452.918 527.765 451.44 524.395 449.815 520.552C445.277 509.866 429.211 479.877 426.507 475.547C424.482 472.31 407.514 469.99 398.912 469.014"
              fill="white"/>
    </mask>
    <g mask="url(#mask12_2473_3207)">
        <path opacity="0.16"
              d="M443.149 526.464C450.243 532.76 447.878 532.76 446.297 538.288C444.715 543.816 447.479 536.322 454.175 536.722C460.87 537.121 458.904 545.767 458.106 547.348C457.308 548.93 466.383 550.896 464.802 554.428C463.22 557.96 454.175 563.089 449.061 568.218C443.947 573.346 462.437 559.941 468.733 559.557C470.654 559.424 472.236 559.675 473.566 559.645C472.171 555.691 470.378 551.887 468.216 548.294C465.496 544.496 463.87 545.59 463.87 545.59C463.87 545.59 464.964 540.697 463.338 539.072L454.662 530.396L454.352 530.81C452.874 527.854 451.396 524.484 449.77 520.641C445.233 509.955 429.167 479.966 426.462 475.636C424.437 472.399 407.47 470.079 398.868 469.103L399.651 475.946L399.843 476.094C399.843 476.094 410.47 478.06 414.017 478.459C417.565 478.858 421.895 481.991 421.496 484.371C421.097 486.75 410.869 497.362 414.017 498.16C417.166 498.959 420.713 490.283 424.26 491.465C427.807 492.648 436.01 520.168 443.149 526.464Z"
              fill="black"/>
    </g>
    <path d="M405.371 525.533C414.86 540.15 433.911 577.189 439.469 581.357C448.145 587.86 506.141 603.645 511.728 607.961C517.315 612.277 516.931 616.607 522.222 618.189C527.513 619.77 547.348 624.308 554.915 625.017C562.483 625.727 559.098 621.041 559.098 621.041L546.195 612.173L557.443 609.395C557.443 609.395 568.72 622.963 570.833 623.702C572.947 624.441 576.671 623.702 576.435 622.032C576.021 619.356 563.99 597.467 559.719 596.536C555.447 595.605 529.523 599.196 529.523 599.196C529.523 599.196 475.148 562.527 474.172 561.227C474.172 561.227 470.921 552.004 468.26 548.205C465.6 544.407 463.915 545.501 463.915 545.501C463.915 545.501 465.009 540.609 463.383 538.983L454.707 530.307L454.396 530.721C452.918 527.765 451.44 524.395 449.815 520.552C445.277 509.866 429.211 479.877 426.507 475.547C424.482 472.31 407.514 469.99 398.912 469.014"
          stroke="#263238" stroke-linecap="round" stroke-linejoin="round"/>
    <path d="M405.519 505.476C405.12 506.806 404.78 508.136 404.514 509.496" stroke="#263238" stroke-linecap="round"
          stroke-linejoin="round"/>
    <path d="M419.885 481.015C415.241 486.309 411.324 492.199 408.239 498.529" stroke="#263238" stroke-linecap="round"
          stroke-linejoin="round"/>
    <path d="M441.597 564.936C445.588 559.024 451.943 551.531 458.949 549.388" stroke="#263238" stroke-linecap="round"
          stroke-linejoin="round"/>
    <path d="M437.178 572.208C437.178 572.208 437.887 570.818 439.158 568.72" stroke="#263238" stroke-linecap="round"
          stroke-linejoin="round"/>
    <path d="M437.178 562.867C437.178 562.867 444.435 544.717 451.692 540.047C458.949 535.376 454.795 544.717 454.795 544.717"
          stroke="#263238" stroke-linecap="round" stroke-linejoin="round"/>
    <path d="M511.728 607.975C517.33 612.306 516.931 616.622 522.222 618.203C527.513 619.785 547.348 624.322 554.915 625.032C562.483 625.741 559.098 621.056 559.098 621.056L546.195 612.188L557.443 609.409C557.443 609.409 568.72 622.977 570.833 623.716C572.947 624.455 576.967 624.721 576.435 622.046C575.4 616.873 563.99 597.482 559.719 596.55C555.447 595.619 529.523 599.211 529.523 599.211C529.523 599.211 479.995 565.217 474.571 561.537C453.539 563.561 443.533 574.573 439.321 581.179L439.469 581.297C448.144 587.86 506.141 603.645 511.728 607.975Z"
          fill="white"/>
    <mask id="mask13_2473_3207" style="mask-type:luminance" maskUnits="userSpaceOnUse" x="439" y="561" width="138"
          height="65">
        <path d="M511.728 607.975C517.33 612.306 516.931 616.622 522.222 618.203C527.513 619.785 547.348 624.322 554.915 625.032C562.483 625.741 559.098 621.056 559.098 621.056L546.195 612.188L557.443 609.409C557.443 609.409 568.72 622.977 570.833 623.716C572.947 624.455 576.967 624.721 576.435 622.046C575.4 616.873 563.99 597.482 559.719 596.55C555.447 595.619 529.523 599.211 529.523 599.211C529.523 599.211 479.995 565.217 474.571 561.537C453.539 563.561 443.533 574.573 439.321 581.179L439.469 581.297C448.144 587.86 506.141 603.645 511.728 607.975Z"
              fill="white"/>
    </mask>
    <g mask="url(#mask13_2473_3207)">
        <path d="M576.42 622.105C573.73 615.528 563.975 597.541 559.704 596.61C555.433 595.678 529.508 599.27 529.508 599.27C529.508 599.27 479.981 565.276 474.556 561.596C469.036 562.076 463.62 563.386 458.49 565.483C466.309 569.917 518.423 599.477 525 600.792C531.977 602.27 555.255 598.442 559.349 601.191C561.951 602.935 569.695 615.218 574.927 623.938C576.42 623.716 576.967 623.435 576.42 622.105Z"
              fill="#1CBCC8"/>
        <path opacity="0.5"
              d="M576.42 622.105C572.223 612.69 563.975 597.541 559.704 596.61C555.433 595.678 529.508 599.27 529.508 599.27C529.508 599.27 479.981 565.276 474.556 561.596C469.036 562.076 463.62 563.386 458.49 565.483C466.309 569.917 518.423 599.477 525 600.792C531.977 602.27 555.255 598.442 559.349 601.191C561.951 602.935 569.695 615.218 574.927 623.938C576.42 623.716 577.011 623.42 576.42 622.105Z"
              fill="white"/>
    </g>
    <path d="M511.728 607.975C517.33 612.306 516.931 616.622 522.222 618.203C527.513 619.785 547.348 624.322 554.915 625.032C562.483 625.741 559.098 621.056 559.098 621.056L546.195 612.188L557.443 609.409C557.443 609.409 568.72 622.977 570.833 623.716C572.947 624.455 576.967 624.721 576.435 622.046C575.4 616.873 563.99 597.482 559.719 596.55C555.447 595.619 529.523 599.211 529.523 599.211C529.523 599.211 479.995 565.217 474.571 561.537C453.539 563.561 443.533 574.573 439.321 581.179L439.469 581.297C448.144 587.86 506.141 603.645 511.728 607.975Z"
          stroke="#263238" stroke-linecap="round" stroke-linejoin="round"/>
    <path d="M381.102 349.887L336.585 368.466C336.046 376.29 334.108 383.953 330.865 391.094C325.604 402.223 328.678 423.285 333.733 434.65C338.787 446.016 361.061 441.568 369.205 440.149C374.728 439.098 380.138 437.519 385.359 435.434C387.737 436.35 390.308 436.646 392.832 436.295C395.355 435.943 397.748 434.955 399.784 433.424C399.784 433.424 375.959 366.544 381.102 349.887Z"
          fill="white"/>
    <mask id="mask14_2473_3207" style="mask-type:luminance" maskUnits="userSpaceOnUse" x="328" y="349" width="72"
          height="94">
        <path d="M381.102 349.887L336.585 368.466C336.046 376.29 334.108 383.953 330.865 391.094C325.604 402.223 328.678 423.285 333.733 434.65C338.787 446.016 361.061 441.568 369.205 440.149C374.728 439.098 380.138 437.519 385.359 435.434C387.737 436.35 390.308 436.646 392.832 436.295C395.355 435.943 397.748 434.955 399.784 433.424C399.784 433.424 375.959 366.544 381.102 349.887Z"
              fill="white"/>
    </mask>
    <g mask="url(#mask14_2473_3207)">
        <path d="M381.102 349.887L336.585 368.466C336.046 376.29 334.108 383.953 330.865 391.094C325.604 402.223 328.678 423.285 333.733 434.65C334.579 436.478 335.94 438.019 337.649 439.084V438.227C337.649 438.227 329.387 417.757 330.954 405.948C332.521 394.139 339.231 388.212 340.014 380.748C340.797 373.284 340.398 369.737 355.37 364.224C370.343 358.711 376.624 353.597 378.191 359.095C379.757 364.593 386.069 400.834 390.399 409.495C394.73 418.156 394.331 427.231 387.65 431.148C380.898 435.201 373.663 438.389 366.116 440.636L369.264 440.09C374.787 439.039 380.197 437.46 385.418 435.375C387.796 436.291 390.367 436.587 392.891 436.236C395.414 435.884 397.807 434.896 399.843 433.365C399.843 433.365 375.959 366.544 381.102 349.887Z"
              fill="#1CBCC8"/>
        <path opacity="0.5"
              d="M381.102 349.887L336.585 368.466C336.046 376.29 334.108 383.953 330.865 391.094C325.604 402.223 328.678 423.285 333.733 434.65C334.579 436.478 335.94 438.019 337.649 439.084V438.227C337.649 438.227 329.387 417.757 330.954 405.948C332.521 394.139 339.231 388.212 340.014 380.748C340.797 373.284 340.398 369.737 355.37 364.224C370.343 358.711 376.624 353.597 378.191 359.095C379.757 364.593 386.069 400.834 390.399 409.495C394.73 418.156 394.331 427.231 387.65 431.148C380.898 435.201 373.663 438.389 366.116 440.636L369.264 440.09C374.787 439.039 380.197 437.46 385.418 435.375C387.796 436.291 390.367 436.587 392.891 436.236C395.414 435.884 397.807 434.896 399.843 433.365C399.843 433.365 375.959 366.544 381.102 349.887Z"
              fill="white"/>
    </g>
    <path d="M381.102 349.887L336.585 368.466C336.046 376.29 334.108 383.953 330.865 391.094C325.604 402.223 328.678 423.285 333.733 434.65C338.787 446.016 361.061 441.568 369.205 440.149C374.728 439.098 380.138 437.519 385.359 435.434C387.737 436.35 390.308 436.646 392.832 436.295C395.355 435.943 397.748 434.955 399.784 433.424C399.784 433.424 375.959 366.544 381.102 349.887Z"
          stroke="#263238" stroke-linecap="round" stroke-linejoin="round"/>
    <path d="M358.607 379.019C358.728 381.636 358.403 384.255 357.647 386.763C356.464 389.719 345.305 401.336 345.645 402.593C345.985 403.849 346.99 407.884 348.971 408.268"
          stroke="#263238" stroke-linecap="round" stroke-linejoin="round"/>
    <path d="M370.978 389.409C372.53 386.305 377.629 389.335 377.555 396.326" stroke="#263238" stroke-linecap="round"
          stroke-linejoin="round"/>
    <path d="M345.704 380.275C345.704 380.275 350.05 378.368 353.937 385.403" stroke="#263238" stroke-linecap="round"
          stroke-linejoin="round"/>
    <path d="M364.8 399.651C369.821 399.904 374.595 401.907 378.294 405.312" stroke="#263238" stroke-width="0.5"
          stroke-linecap="round" stroke-linejoin="round"/>
    <path d="M340.458 390.414C343.054 390.761 345.59 391.462 347.995 392.498" stroke="#263238" stroke-width="0.5"
          stroke-linecap="round" stroke-linejoin="round"/>
    <path d="M358.12 372.456C356.972 371.849 355.699 371.518 354.401 371.487C353.103 371.456 351.816 371.727 350.641 372.279C346.665 374.186 344.226 376.284 344.492 373.846C344.758 371.407 349.429 368.717 350.833 368.362C352.237 368.008 358.519 367.032 358.12 372.456Z"
          fill="#263238"/>
    <path d="M369.264 366.943C373.407 370.295 376.699 374.58 378.871 379.447C381.827 386.837 384.162 378.767 381.827 373.934C379.491 369.101 372.737 363.957 369.264 366.943Z"
          fill="#263238"/>
    <path d="M400.435 446.061C400.435 449.505 398.484 452.298 396.089 452.298C393.695 452.298 391.759 449.505 391.759 446.061C391.759 442.617 393.695 433.853 396.089 433.853C398.484 433.853 400.435 442.617 400.435 446.061Z"
          fill="#1CBCC8" stroke="#263238" stroke-linecap="round" stroke-linejoin="round"/>
    <path d="M371.362 388.064C371.193 388.516 371.059 388.98 370.963 389.453C370.535 391.641 370.106 396.208 370.963 396.4C371.821 396.592 373.919 392.321 374.289 390.133C374.372 389.704 374.422 389.269 374.437 388.833C373.428 388.516 372.401 388.26 371.362 388.064Z"
          fill="#263238"/>
    <path d="M346.148 379.846C346.016 380.232 345.913 380.628 345.837 381.029C345.394 383.216 345.409 388.02 346.34 388.197C347.271 388.374 348.793 383.881 349.222 381.694C349.329 381.163 349.388 380.624 349.399 380.083C348.341 379.792 347.237 379.711 346.148 379.846Z"
          fill="#263238"/>
    <path d="M370.978 389.483L372.456 386.734C374.799 387.19 376.922 388.418 378.486 390.222" stroke="#263238"
          stroke-width="0.75" stroke-linecap="round" stroke-linejoin="round"/>
    <path d="M346.148 379.846L347.626 378.117C347.626 378.117 348.261 377.807 351.749 379.388" stroke="#263238"
          stroke-width="0.75" stroke-linecap="round" stroke-linejoin="round"/>
    <path d="M340.546 419.929C340.546 419.929 343.029 415.362 346.355 415.362C349.68 415.362 352.163 422.826 352.163 422.826"
          stroke="#263238" stroke-linecap="round" stroke-linejoin="round"/>
    <path d="M423.211 625.282H271.361L266.41 541.805C266.273 540.996 266.313 540.166 266.528 539.374C266.743 538.582 267.127 537.845 267.654 537.216C268.18 536.586 268.838 536.079 269.58 535.728C270.322 535.377 271.131 535.191 271.952 535.184H422.56C423.386 535.183 424.202 535.362 424.951 535.709C425.701 536.057 426.365 536.563 426.899 537.193C427.432 537.824 427.821 538.563 428.04 539.36C428.258 540.156 428.299 540.991 428.162 541.805L423.211 625.282Z"
          fill="#263238" stroke="#263238" stroke-linecap="round" stroke-linejoin="round"/>
    <path d="M278.84 537.179H421.467C422.272 537.171 423.07 537.339 423.804 537.671C424.538 538.004 425.19 538.492 425.716 539.103C426.241 539.715 426.626 540.433 426.844 541.209C427.063 541.984 427.109 542.798 426.98 543.594"
          stroke="white" stroke-linecap="round" stroke-linejoin="round"/>
    <path d="M267.518 542.278C267.637 540.881 268.278 539.58 269.314 538.635C270.349 537.69 271.703 537.17 273.105 537.179"
          stroke="white" stroke-linecap="round" stroke-linejoin="round"/>
    <path d="M423.846 617.153H270.725V625.282H423.846V617.153Z" fill="white" stroke="#263238" stroke-linecap="round"
          stroke-linejoin="round"/>
    <path d="M346.739 587.062C352.73 587.062 357.587 584.15 357.587 580.558C357.587 576.967 352.73 574.055 346.739 574.055C340.747 574.055 335.89 576.967 335.89 580.558C335.89 584.15 340.747 587.062 346.739 587.062Z"
          fill="white" stroke="#263238" stroke-linecap="round" stroke-linejoin="round"/>
    <path d="M654.798 624.322H84.4973V638.171H654.798V624.322Z" fill="#263238"/>
    <path opacity="0.1"
          d="M506.925 110.85H232.563C223.315 110.85 215.818 118.347 215.818 127.596V285.018C215.818 294.266 223.315 301.763 232.563 301.763H506.925C516.173 301.763 523.67 294.266 523.67 285.018V127.596C523.67 118.347 516.173 110.85 506.925 110.85Z"
          fill="#1CBCC8"/>
    <path d="M376.983 220.562C401.871 216.563 418.804 193.145 414.804 168.258C410.804 143.371 387.387 126.438 362.499 130.438C337.612 134.437 320.679 157.855 324.679 182.742C328.679 207.629 352.096 224.562 376.983 220.562Z"
          fill="#263238"/>
    <path d="M369.397 183.937L354.188 203.462C353.671 204.274 352.96 204.946 352.119 205.415C351.278 205.885 350.333 206.138 349.37 206.152C348.049 206.17 346.774 205.665 345.823 204.748C345.339 204.304 344.957 203.762 344.702 203.157C344.447 202.553 344.325 201.9 344.345 201.245C344.392 199.776 344.91 198.362 345.823 197.21L363.16 175.764L346.902 154.303C346.146 153.296 345.732 152.074 345.719 150.815C345.715 150.065 345.867 149.321 346.165 148.632C346.462 147.942 346.899 147.322 347.448 146.81C347.964 146.272 348.584 145.843 349.27 145.551C349.955 145.259 350.693 145.109 351.439 145.11C352.394 145.126 353.329 145.38 354.161 145.85C354.992 146.32 355.692 146.99 356.198 147.8L370.889 167.147L385.669 148.125C386.198 147.238 386.937 146.495 387.821 145.961C388.705 145.427 389.708 145.12 390.739 145.066C391.379 145.064 392.013 145.195 392.6 145.449C393.188 145.703 393.716 146.076 394.153 146.544C394.619 146.982 394.99 147.511 395.244 148.099C395.499 148.686 395.63 149.318 395.631 149.958C395.615 151.103 395.22 152.21 394.508 153.106L377.112 175.365L393.917 197.535C394.711 198.526 395.153 199.753 395.173 201.023C395.178 201.757 395.023 202.484 394.719 203.153C394.416 203.821 393.97 204.416 393.414 204.895C392.33 205.938 390.884 206.521 389.379 206.521C388.42 206.509 387.479 206.257 386.642 205.787C385.805 205.317 385.1 204.644 384.591 203.831L369.397 183.937Z"
          fill="white"/>
    <path d="M456.702 268.701H282.727C279.199 268.701 275.815 267.299 273.321 264.805C270.826 262.31 269.425 258.927 269.425 255.399C269.425 251.871 270.826 248.487 273.321 245.993C275.815 243.498 279.199 242.097 282.727 242.097H456.702C460.23 242.097 463.613 243.498 466.108 245.993C468.602 248.487 470.004 251.871 470.004 255.399C470.004 258.927 468.602 262.31 466.108 264.805C463.613 267.299 460.23 268.701 456.702 268.701Z"
          fill="white"/>
    <path d="M306.567 259.685C306.451 259.685 306.336 259.661 306.229 259.615C306.122 259.57 306.026 259.503 305.946 259.419C305.859 259.332 305.79 259.228 305.744 259.114C305.698 258.999 305.676 258.877 305.68 258.753C305.68 258.545 305.736 258.341 305.842 258.162L307.173 256.093H304.453C304.327 256.1 304.202 256.079 304.085 256.033C303.967 255.987 303.861 255.917 303.773 255.827C303.621 255.65 303.538 255.425 303.538 255.191C303.538 254.958 303.621 254.733 303.773 254.556C303.861 254.466 303.967 254.396 304.085 254.35C304.202 254.304 304.327 254.283 304.453 254.29L307.128 254.364L305.946 252.442C305.827 252.246 305.761 252.022 305.754 251.792C305.75 251.669 305.772 251.546 305.818 251.432C305.864 251.318 305.932 251.214 306.02 251.127C306.103 251.042 306.202 250.975 306.311 250.93C306.42 250.884 306.537 250.861 306.655 250.861C306.821 250.858 306.983 250.905 307.123 250.994C307.262 251.084 307.372 251.212 307.439 251.363L308.739 253.684L309.981 251.467C310.059 251.294 310.183 251.147 310.339 251.04C310.496 250.933 310.679 250.871 310.868 250.861C310.984 250.861 311.099 250.885 311.205 250.93C311.312 250.976 311.408 251.043 311.488 251.127C311.575 251.208 311.644 251.307 311.689 251.416C311.735 251.526 311.757 251.644 311.754 251.763C311.753 251.972 311.691 252.177 311.577 252.354L310.276 254.438L312.981 254.364C313.107 254.356 313.233 254.376 313.35 254.422C313.468 254.468 313.574 254.539 313.661 254.63C313.813 254.807 313.897 255.032 313.897 255.265C313.897 255.499 313.813 255.724 313.661 255.901C313.574 255.992 313.468 256.063 313.35 256.109C313.233 256.154 313.107 256.174 312.981 256.167H310.247L311.459 258.059C311.596 258.287 311.672 258.547 311.681 258.813C311.685 258.932 311.665 259.052 311.622 259.163C311.578 259.275 311.513 259.377 311.429 259.463C311.352 259.546 311.258 259.612 311.154 259.658C311.049 259.704 310.937 259.728 310.823 259.729C310.64 259.724 310.463 259.668 310.311 259.566C310.159 259.464 310.039 259.32 309.966 259.153L308.739 256.98L307.513 259.153C307.424 259.324 307.287 259.465 307.119 259.56C306.951 259.654 306.759 259.698 306.567 259.685Z"
          fill="black"/>
    <path d="M320.135 259.685C320.019 259.685 319.904 259.661 319.797 259.615C319.69 259.57 319.594 259.503 319.514 259.419C319.427 259.332 319.358 259.228 319.312 259.114C319.266 258.999 319.245 258.877 319.248 258.754C319.248 258.546 319.304 258.341 319.411 258.162L320.741 256.093H318.021C317.896 256.1 317.77 256.079 317.653 256.033C317.535 255.988 317.429 255.917 317.341 255.827C317.189 255.65 317.106 255.425 317.106 255.192C317.106 254.958 317.189 254.733 317.341 254.556C317.429 254.466 317.535 254.396 317.653 254.35C317.77 254.304 317.896 254.284 318.021 254.29L320.696 254.364L319.44 252.369C319.322 252.172 319.255 251.948 319.248 251.718C319.245 251.595 319.266 251.473 319.312 251.358C319.358 251.244 319.427 251.14 319.514 251.053C319.597 250.969 319.696 250.902 319.805 250.856C319.914 250.81 320.031 250.787 320.15 250.787C320.315 250.785 320.478 250.831 320.617 250.92C320.756 251.01 320.866 251.138 320.933 251.29L322.234 253.61L323.475 251.393C323.553 251.221 323.677 251.073 323.834 250.966C323.99 250.859 324.173 250.797 324.362 250.787C324.478 250.787 324.593 250.811 324.7 250.857C324.806 250.902 324.903 250.969 324.983 251.053C325.069 251.134 325.138 251.233 325.184 251.343C325.229 251.452 325.252 251.57 325.249 251.689C325.247 251.899 325.185 252.104 325.071 252.28L323.771 254.364L326.475 254.29C326.601 254.283 326.727 254.303 326.845 254.349C326.962 254.394 327.068 254.465 327.155 254.556C327.307 254.733 327.391 254.958 327.391 255.192C327.391 255.425 327.307 255.65 327.155 255.827C327.068 255.918 326.962 255.989 326.845 256.035C326.727 256.081 326.601 256.101 326.475 256.093H323.741L324.953 257.985C325.09 258.213 325.166 258.473 325.175 258.739C325.179 258.859 325.159 258.978 325.116 259.09C325.073 259.202 325.007 259.303 324.924 259.389C324.846 259.472 324.752 259.538 324.648 259.584C324.544 259.63 324.431 259.654 324.318 259.655C324.134 259.653 323.956 259.597 323.803 259.494C323.651 259.392 323.532 259.248 323.46 259.079L322.234 256.906L321.007 259.079C320.934 259.252 320.813 259.401 320.659 259.509C320.504 259.616 320.323 259.677 320.135 259.685Z"
          fill="black"/>
    <path d="M333.703 259.685C333.587 259.685 333.472 259.661 333.365 259.615C333.259 259.57 333.162 259.503 333.082 259.419C332.995 259.332 332.926 259.228 332.88 259.114C332.835 258.999 332.813 258.877 332.816 258.754C332.816 258.546 332.872 258.341 332.979 258.162L334.309 256.093H331.589C331.464 256.1 331.338 256.079 331.221 256.033C331.104 255.988 330.997 255.917 330.91 255.827C330.758 255.65 330.674 255.425 330.674 255.192C330.674 254.958 330.758 254.733 330.91 254.556C330.997 254.466 331.104 254.396 331.221 254.35C331.338 254.304 331.464 254.284 331.589 254.29L334.265 254.364L333.008 252.369C332.89 252.172 332.824 251.948 332.816 251.718C332.813 251.595 332.835 251.473 332.88 251.358C332.926 251.244 332.995 251.14 333.082 251.053C333.165 250.969 333.264 250.902 333.373 250.856C333.482 250.81 333.599 250.787 333.718 250.787C333.883 250.785 334.046 250.831 334.185 250.92C334.324 251.01 334.434 251.138 334.501 251.29L335.802 253.61L337.043 251.393C337.121 251.221 337.245 251.073 337.402 250.966C337.558 250.859 337.741 250.797 337.93 250.787C338.046 250.787 338.161 250.811 338.268 250.857C338.374 250.902 338.471 250.969 338.551 251.053C338.637 251.134 338.706 251.233 338.752 251.343C338.798 251.452 338.82 251.57 338.817 251.689C338.815 251.899 338.753 252.104 338.639 252.28L337.339 254.364L340.044 254.29C340.169 254.283 340.295 254.303 340.413 254.349C340.53 254.394 340.636 254.465 340.723 254.556C340.875 254.733 340.959 254.958 340.959 255.192C340.959 255.425 340.875 255.65 340.723 255.827C340.636 255.918 340.53 255.989 340.413 256.035C340.295 256.081 340.169 256.101 340.044 256.093H337.309L338.521 257.985C338.658 258.213 338.734 258.473 338.743 258.739C338.747 258.859 338.727 258.978 338.684 259.09C338.641 259.202 338.575 259.303 338.492 259.389C338.414 259.472 338.32 259.538 338.216 259.584C338.112 259.63 337.999 259.654 337.886 259.655C337.702 259.653 337.524 259.597 337.371 259.494C337.219 259.392 337.1 259.248 337.028 259.079L335.802 256.906L334.575 259.079C334.502 259.252 334.381 259.401 334.227 259.509C334.073 259.616 333.891 259.677 333.703 259.685Z"
          fill="black"/>
    <path d="M347.33 259.685C347.214 259.685 347.099 259.661 346.992 259.615C346.886 259.57 346.789 259.503 346.709 259.419C346.622 259.332 346.553 259.228 346.507 259.114C346.462 258.999 346.44 258.877 346.443 258.754C346.443 258.546 346.499 258.341 346.606 258.162L347.936 256.093H345.217C345.091 256.1 344.965 256.079 344.848 256.033C344.731 255.988 344.625 255.917 344.537 255.827C344.385 255.65 344.301 255.425 344.301 255.192C344.301 254.958 344.385 254.733 344.537 254.556C344.625 254.466 344.731 254.396 344.848 254.35C344.965 254.304 345.091 254.284 345.217 254.29L347.892 254.364L346.635 252.369C346.517 252.172 346.451 251.948 346.443 251.718C346.44 251.595 346.462 251.473 346.507 251.358C346.553 251.244 346.622 251.14 346.709 251.053C346.792 250.969 346.891 250.902 347 250.856C347.109 250.81 347.227 250.787 347.345 250.787C347.51 250.785 347.673 250.831 347.812 250.92C347.952 251.01 348.061 251.138 348.128 251.29L349.429 253.61L350.67 251.393C350.749 251.221 350.873 251.073 351.029 250.966C351.185 250.859 351.368 250.797 351.557 250.787C351.673 250.787 351.788 250.811 351.895 250.857C352.002 250.902 352.098 250.969 352.178 251.053C352.265 251.134 352.333 251.233 352.379 251.343C352.425 251.452 352.447 251.57 352.444 251.689C352.442 251.899 352.381 252.104 352.267 252.28L350.966 254.364L353.671 254.29C353.797 254.283 353.923 254.303 354.04 254.349C354.157 254.394 354.263 254.465 354.351 254.556C354.503 254.733 354.586 254.958 354.586 255.192C354.586 255.425 354.503 255.65 354.351 255.827C354.263 255.918 354.157 255.989 354.04 256.035C353.923 256.081 353.797 256.101 353.671 256.093H350.936L352.148 257.985C352.285 258.213 352.361 258.473 352.37 258.739C352.374 258.859 352.354 258.978 352.311 259.09C352.268 259.202 352.203 259.303 352.119 259.389C352.041 259.472 351.947 259.538 351.843 259.584C351.739 259.63 351.627 259.654 351.513 259.655C351.33 259.651 351.152 259.594 351 259.492C350.848 259.39 350.729 259.247 350.656 259.079L349.429 256.906L348.202 259.079C348.129 259.252 348.009 259.401 347.854 259.509C347.7 259.616 347.518 259.677 347.33 259.685Z"
          fill="black"/>
    <path d="M360.839 259.685C360.723 259.685 360.608 259.661 360.501 259.615C360.395 259.57 360.298 259.503 360.218 259.419C360.131 259.332 360.062 259.228 360.016 259.114C359.97 258.999 359.949 258.877 359.952 258.754C359.959 258.547 360.015 258.344 360.115 258.162L361.445 256.093H358.725C358.6 256.1 358.474 256.079 358.357 256.033C358.24 255.988 358.133 255.917 358.046 255.827C357.894 255.65 357.81 255.425 357.81 255.192C357.81 254.958 357.894 254.733 358.046 254.556C358.133 254.466 358.24 254.396 358.357 254.35C358.474 254.304 358.6 254.284 358.725 254.29L361.401 254.364L360.144 252.369C360.026 252.172 359.96 251.948 359.952 251.718C359.949 251.595 359.97 251.473 360.016 251.358C360.062 251.244 360.131 251.14 360.218 251.053C360.301 250.969 360.4 250.902 360.509 250.856C360.618 250.81 360.735 250.787 360.854 250.787C361.019 250.785 361.182 250.831 361.321 250.92C361.46 251.01 361.57 251.138 361.637 251.29L362.938 253.61L364.179 251.393C364.257 251.221 364.381 251.073 364.538 250.966C364.694 250.859 364.877 250.797 365.066 250.787C365.182 250.785 365.298 250.808 365.405 250.854C365.512 250.9 365.608 250.968 365.687 251.053C365.773 251.134 365.842 251.233 365.888 251.343C365.934 251.452 365.956 251.57 365.953 251.689C365.951 251.899 365.889 252.104 365.775 252.28L364.475 254.364L367.18 254.29C367.305 254.283 367.431 254.303 367.549 254.349C367.666 254.394 367.772 254.465 367.859 254.556C368.011 254.733 368.095 254.958 368.095 255.192C368.095 255.425 368.011 255.65 367.859 255.827C367.772 255.918 367.666 255.989 367.549 256.035C367.431 256.081 367.305 256.101 367.18 256.093H364.445L365.657 257.985C365.794 258.213 365.87 258.473 365.879 258.739C365.883 258.859 365.863 258.978 365.82 259.09C365.777 259.202 365.711 259.303 365.628 259.389C365.55 259.472 365.456 259.538 365.352 259.584C365.248 259.63 365.135 259.654 365.022 259.655C364.839 259.651 364.661 259.594 364.509 259.492C364.357 259.39 364.238 259.247 364.164 259.079L362.938 256.906L361.711 259.079C361.638 259.252 361.517 259.401 361.363 259.509C361.209 259.616 361.027 259.677 360.839 259.685Z"
          fill="black"/>
    <path d="M374.407 259.685C374.291 259.685 374.176 259.661 374.069 259.615C373.963 259.57 373.866 259.503 373.786 259.419C373.699 259.332 373.63 259.228 373.584 259.114C373.539 258.999 373.517 258.877 373.52 258.754C373.527 258.547 373.583 258.344 373.683 258.162L375.013 256.093H372.308C372.18 256.101 372.052 256.081 371.932 256.035C371.812 255.989 371.704 255.918 371.614 255.827C371.462 255.65 371.378 255.425 371.378 255.192C371.378 254.958 371.462 254.733 371.614 254.556C371.704 254.465 371.812 254.394 371.932 254.348C372.052 254.302 372.18 254.282 372.308 254.29L374.969 254.364L373.712 252.369C373.594 252.172 373.528 251.948 373.52 251.718C373.517 251.595 373.539 251.473 373.584 251.358C373.63 251.244 373.699 251.14 373.786 251.053C373.869 250.969 373.968 250.902 374.077 250.856C374.186 250.81 374.303 250.787 374.422 250.787C374.587 250.785 374.75 250.831 374.889 250.92C375.028 251.01 375.138 251.138 375.205 251.29L376.506 253.61L377.747 251.393C377.826 251.221 377.95 251.073 378.106 250.966C378.262 250.859 378.445 250.797 378.634 250.787C378.75 250.785 378.866 250.808 378.973 250.854C379.08 250.9 379.176 250.968 379.255 251.053C379.342 251.134 379.41 251.233 379.456 251.343C379.502 251.452 379.524 251.57 379.521 251.689C379.519 251.899 379.457 252.104 379.344 252.28L378.043 254.364L380.748 254.29C380.873 254.283 380.999 254.303 381.117 254.349C381.234 254.394 381.34 254.465 381.428 254.556C381.579 254.733 381.663 254.958 381.663 255.192C381.663 255.425 381.579 255.65 381.428 255.827C381.34 255.918 381.234 255.989 381.117 256.035C380.999 256.081 380.873 256.101 380.748 256.093H378.013L379.225 257.985C379.362 258.213 379.438 258.473 379.447 258.739C379.451 258.859 379.431 258.978 379.388 259.09C379.345 259.202 379.279 259.303 379.196 259.389C379.118 259.472 379.024 259.538 378.92 259.584C378.816 259.63 378.703 259.654 378.59 259.655C378.407 259.651 378.229 259.594 378.077 259.492C377.925 259.39 377.806 259.247 377.733 259.079L376.506 256.906L375.279 259.079C375.206 259.252 375.086 259.401 374.931 259.509C374.777 259.616 374.595 259.677 374.407 259.685Z"
          fill="black"/>
    <path d="M387.975 259.685C387.859 259.685 387.744 259.661 387.637 259.615C387.531 259.57 387.434 259.503 387.354 259.419C387.267 259.332 387.198 259.228 387.152 259.114C387.107 258.999 387.085 258.877 387.088 258.753C387.088 258.545 387.144 258.341 387.251 258.162L388.581 256.093H385.862C385.736 256.1 385.61 256.079 385.493 256.033C385.376 255.987 385.27 255.917 385.182 255.827C385.03 255.65 384.946 255.425 384.946 255.191C384.946 254.958 385.03 254.733 385.182 254.556C385.27 254.466 385.376 254.396 385.493 254.35C385.61 254.304 385.736 254.283 385.862 254.29L388.537 254.364L387.236 252.442C387.118 252.246 387.051 252.022 387.044 251.792C387.041 251.669 387.062 251.546 387.108 251.432C387.154 251.318 387.223 251.214 387.31 251.127C387.393 251.042 387.492 250.975 387.601 250.93C387.71 250.884 387.827 250.861 387.946 250.861C388.111 250.858 388.274 250.905 388.413 250.994C388.552 251.084 388.662 251.212 388.729 251.363L390.03 253.684L391.271 251.467C391.349 251.294 391.473 251.147 391.63 251.04C391.786 250.933 391.969 250.871 392.158 250.861C392.274 250.859 392.39 250.882 392.497 250.928C392.604 250.974 392.7 251.041 392.779 251.127C392.865 251.208 392.934 251.307 392.98 251.416C393.025 251.526 393.048 251.644 393.045 251.763C393.043 251.972 392.981 252.177 392.867 252.354L391.567 254.438L394.271 254.364C394.397 254.356 394.523 254.376 394.641 254.422C394.758 254.468 394.864 254.539 394.951 254.63C395.103 254.807 395.187 255.032 395.187 255.265C395.187 255.499 395.103 255.724 394.951 255.901C394.864 255.992 394.758 256.063 394.641 256.109C394.523 256.154 394.397 256.174 394.271 256.167H391.537L392.749 258.059C392.886 258.287 392.962 258.547 392.971 258.813C392.975 258.932 392.955 259.052 392.912 259.163C392.869 259.275 392.803 259.377 392.72 259.463C392.642 259.546 392.548 259.612 392.444 259.658C392.34 259.704 392.227 259.728 392.114 259.729C391.931 259.724 391.753 259.668 391.601 259.566C391.449 259.464 391.329 259.32 391.256 259.153L390.03 256.98L388.803 259.153C388.723 259.306 388.605 259.435 388.46 259.529C388.315 259.622 388.147 259.676 387.975 259.685Z"
          fill="black"/>
    <path d="M401.543 259.685C401.427 259.685 401.312 259.661 401.206 259.615C401.099 259.57 401.002 259.503 400.922 259.419C400.835 259.332 400.766 259.228 400.72 259.114C400.675 258.999 400.653 258.877 400.656 258.753C400.663 258.546 400.719 258.344 400.819 258.162L402.149 256.093H399.444C399.318 256.103 399.192 256.084 399.074 256.038C398.956 255.991 398.851 255.92 398.765 255.827C398.603 255.655 398.514 255.427 398.514 255.191C398.514 254.956 398.603 254.728 398.765 254.556C398.851 254.463 398.956 254.392 399.074 254.345C399.192 254.299 399.318 254.28 399.444 254.29L402.105 254.364L400.849 252.368C400.73 252.172 400.664 251.948 400.656 251.718C400.652 251.597 400.673 251.477 400.716 251.364C400.76 251.251 400.826 251.148 400.91 251.061C400.994 250.975 401.095 250.906 401.206 250.858C401.317 250.811 401.437 250.787 401.558 250.787C401.723 250.785 401.886 250.831 402.025 250.92C402.165 251.01 402.275 251.138 402.341 251.29L403.642 253.61L404.883 251.393C404.962 251.221 405.086 251.073 405.242 250.966C405.398 250.859 405.581 250.797 405.77 250.787C405.887 250.783 406.003 250.805 406.11 250.851C406.217 250.897 406.313 250.966 406.391 251.053C406.478 251.134 406.546 251.233 406.592 251.342C406.638 251.452 406.66 251.57 406.657 251.689C406.655 251.898 406.594 252.104 406.48 252.28L405.179 254.364L407.884 254.29C408.01 254.282 408.136 254.302 408.253 254.348C408.37 254.394 408.476 254.465 408.564 254.556C408.716 254.733 408.799 254.958 408.799 255.191C408.799 255.425 408.716 255.65 408.564 255.827C408.476 255.918 408.37 255.989 408.253 256.035C408.136 256.081 408.01 256.1 407.884 256.093H405.149L406.361 257.985C406.498 258.213 406.574 258.473 406.583 258.739C406.587 258.855 406.568 258.971 406.527 259.08C406.486 259.189 406.424 259.289 406.344 259.375C406.265 259.46 406.169 259.528 406.063 259.576C405.957 259.624 405.842 259.651 405.726 259.655C405.543 259.651 405.365 259.594 405.213 259.492C405.061 259.39 404.942 259.246 404.869 259.079L403.642 256.906L402.415 259.079C402.342 259.252 402.222 259.401 402.067 259.508C401.913 259.616 401.731 259.677 401.543 259.685Z"
          fill="black"/>
    <path d="M415.111 259.685C414.995 259.685 414.88 259.661 414.773 259.615C414.667 259.57 414.57 259.503 414.49 259.419C414.403 259.332 414.334 259.228 414.288 259.114C414.243 258.999 414.221 258.877 414.224 258.753C414.231 258.546 414.287 258.344 414.387 258.162L415.717 256.093H412.998C412.874 256.1 412.75 256.08 412.635 256.034C412.52 255.988 412.417 255.918 412.332 255.827C412.171 255.655 412.082 255.427 412.082 255.191C412.082 254.956 412.171 254.728 412.332 254.556C412.417 254.465 412.52 254.395 412.635 254.349C412.75 254.303 412.874 254.283 412.998 254.29L415.673 254.364L414.416 252.368C414.298 252.172 414.232 251.948 414.224 251.718C414.22 251.597 414.241 251.477 414.284 251.364C414.328 251.251 414.394 251.148 414.478 251.061C414.562 250.975 414.662 250.906 414.774 250.858C414.885 250.811 415.005 250.787 415.126 250.787C415.291 250.785 415.454 250.831 415.593 250.92C415.733 251.01 415.842 251.138 415.909 251.29L417.21 253.61L418.451 251.393C418.53 251.221 418.654 251.073 418.81 250.966C418.966 250.859 419.149 250.797 419.338 250.787C419.455 250.783 419.571 250.805 419.678 250.851C419.785 250.897 419.881 250.966 419.959 251.053C420.046 251.134 420.114 251.233 420.16 251.342C420.206 251.452 420.228 251.57 420.225 251.689C420.223 251.898 420.161 252.104 420.048 252.28L418.747 254.364L421.452 254.29C421.577 254.282 421.703 254.302 421.821 254.348C421.938 254.394 422.044 254.465 422.132 254.556C422.283 254.733 422.367 254.958 422.367 255.191C422.367 255.425 422.283 255.65 422.132 255.827C422.044 255.918 421.938 255.989 421.821 256.035C421.703 256.081 421.577 256.1 421.452 256.093H418.717L419.929 257.985C420.066 258.213 420.142 258.473 420.151 258.739C420.155 258.855 420.136 258.971 420.095 259.08C420.054 259.189 419.992 259.289 419.912 259.375C419.833 259.46 419.737 259.528 419.631 259.576C419.525 259.624 419.41 259.651 419.294 259.655C419.111 259.651 418.933 259.594 418.781 259.492C418.629 259.39 418.51 259.246 418.437 259.079L417.21 256.906L415.983 259.079C415.91 259.252 415.79 259.401 415.635 259.508C415.481 259.616 415.299 259.677 415.111 259.685Z"
          fill="black"/>
    <path d="M428.62 259.685C428.504 259.685 428.389 259.661 428.282 259.615C428.176 259.57 428.079 259.503 427.999 259.419C427.912 259.332 427.843 259.228 427.797 259.114C427.752 258.999 427.73 258.877 427.733 258.753C427.74 258.546 427.796 258.344 427.896 258.162L429.226 256.093H426.507C426.383 256.1 426.259 256.08 426.144 256.034C426.029 255.988 425.926 255.918 425.841 255.827C425.68 255.655 425.591 255.427 425.591 255.191C425.591 254.956 425.68 254.728 425.841 254.556C425.926 254.465 426.029 254.395 426.144 254.349C426.259 254.303 426.383 254.283 426.507 254.29L429.182 254.364L427.925 252.368C427.807 252.172 427.741 251.948 427.733 251.718C427.73 251.595 427.752 251.472 427.797 251.358C427.843 251.244 427.912 251.14 427.999 251.053C428.082 250.969 428.181 250.902 428.29 250.856C428.399 250.81 428.517 250.787 428.635 250.787C428.8 250.785 428.963 250.831 429.102 250.92C429.242 251.01 429.351 251.138 429.418 251.29L430.719 253.61L431.96 251.393C432.039 251.221 432.163 251.073 432.319 250.966C432.475 250.859 432.658 250.797 432.847 250.787C432.964 250.783 433.08 250.805 433.187 250.851C433.294 250.897 433.39 250.966 433.468 251.053C433.555 251.134 433.623 251.233 433.669 251.342C433.715 251.452 433.737 251.57 433.734 251.689C433.732 251.898 433.67 252.104 433.557 252.28L432.256 254.364L434.961 254.29C435.087 254.282 435.212 254.302 435.33 254.348C435.447 254.394 435.553 254.465 435.641 254.556C435.792 254.733 435.876 254.958 435.876 255.191C435.876 255.425 435.792 255.65 435.641 255.827C435.553 255.918 435.447 255.989 435.33 256.035C435.212 256.081 435.087 256.1 434.961 256.093H432.226L433.438 257.985C433.575 258.213 433.651 258.473 433.66 258.739C433.664 258.858 433.644 258.978 433.601 259.09C433.558 259.201 433.492 259.303 433.409 259.389C433.331 259.472 433.237 259.538 433.133 259.584C433.029 259.63 432.917 259.654 432.803 259.655C432.62 259.651 432.442 259.594 432.29 259.492C432.138 259.39 432.019 259.246 431.946 259.079L430.719 256.906L429.492 259.079C429.419 259.252 429.299 259.401 429.144 259.508C428.99 259.616 428.808 259.677 428.62 259.685Z"
          fill="black"/>
    <path d="M475.118 292.378H493.194" stroke="white" stroke-width="3" stroke-linecap="round" stroke-linejoin="round"/>
    <path d="M224.405 159.284V279.342C224.405 282.819 225.786 286.154 228.245 288.612C230.703 291.071 234.038 292.452 237.515 292.452H457.958"
          stroke="white" stroke-width="3" stroke-linecap="round" stroke-linejoin="round"/>
    <path d="M224.405 127.448V145.45" stroke="white" stroke-width="3" stroke-linecap="round" stroke-linejoin="round"/>
</svg>
