<svg xmlns="http://www.w3.org/2000/svg" width="162" height="178" viewBox="0 0 162 178" fill="none">
    <path d="M81 164.925C125.045 164.925 160.751 129.142 160.751 85.0002C160.751 40.8588 125.045 5.0752 81 5.0752C36.9546 5.0752 1.24878 40.8588 1.24878 85.0002C1.24878 129.142 36.9546 164.925 81 164.925Z"
          fill="white"/>
    <path d="M81 165.308C65.151 165.308 49.658 160.598 36.4801 151.774C23.3021 142.949 13.0312 130.407 6.96606 115.732C0.900931 101.058 -0.685984 84.9107 2.40599 69.3324C5.49797 53.7541 13.13 39.4445 24.3369 28.2132C35.5438 16.9819 49.8223 9.33326 65.3667 6.23454C80.9111 3.13583 97.0233 4.7262 111.666 10.8045C126.308 16.8829 138.824 27.1762 147.629 40.3829C156.434 53.5895 161.134 69.1163 161.134 84.9998C161.109 106.291 152.659 126.704 137.636 141.759C122.614 156.815 102.245 165.284 81 165.308ZM81 5.45811C65.3023 5.45811 49.9572 10.1231 36.9051 18.8633C23.853 27.6034 13.6801 40.0262 7.67283 54.5605C1.6656 69.0948 0.0938376 85.088 3.1563 100.518C6.21876 115.947 13.7779 130.12 24.8778 141.244C35.9777 152.368 50.1199 159.944 65.5159 163.013C80.9119 166.082 96.8704 164.507 111.373 158.487C125.876 152.466 138.272 142.271 146.993 129.191C155.714 116.11 160.369 100.732 160.369 84.9998C160.346 63.9109 151.977 43.6921 137.098 28.78C122.218 13.8679 102.043 5.48043 81 5.45811Z"
          fill="#D1D3D4"/>
    <path d="M146.553 147.054C146.553 147.054 138.26 127.435 136.08 119.768C134.745 114.535 134.193 109.133 134.443 103.737L128.552 73.6302C128.552 73.6302 87.1199 52.2939 74.8799 44.8802C62.6399 37.4665 47.8372 25.9665 43.5149 28.5195C39.1927 31.0725 39.9424 36.6999 45.0449 42.3195C47.141 44.6195 49.9792 47.0345 51.7157 49.5645C53.131 51.6192 54.9058 58.0975 53.1998 60.3975C51.1649 63.1499 45.7411 54.5939 42.9106 57.3309C41.4188 58.7569 41.0899 63.8245 44.0963 68.2175C45.7265 70.2654 47.5563 72.1453 49.5584 73.8295C53.6894 77.4099 54.5692 80.1775 57.8434 84.4939C61.2094 88.9329 58.6543 82.3165 58.3865 87.4302C58.0652 93.6402 57.2008 101.054 58.9526 107.134C61.7602 116.847 78.2153 128.861 85.3528 134.994C92.4902 141.128 88.8947 162.096 88.8947 162.096L146.553 147.054Z"
          fill="white"/>
    <path d="M88.8794 162.433C88.8239 162.432 88.7694 162.418 88.7194 162.394C88.6694 162.37 88.6252 162.335 88.5898 162.292C88.5543 162.249 88.5283 162.199 88.5136 162.146C88.4989 162.092 88.4959 162.036 88.5046 161.981C88.5428 161.774 91.9854 141.166 85.0927 135.239C83.9223 134.235 82.4687 133.047 80.9234 131.789C72.9751 125.273 60.9493 115.429 58.5701 107.195C57.0401 101.997 57.4685 95.7944 57.8051 90.3281C57.874 89.3161 57.9352 88.3271 57.9811 87.3687C57.9923 86.7725 58.0902 86.181 58.2718 85.6131C58.0576 85.3678 57.8051 85.0611 57.5068 84.6854C56.3975 83.2134 55.579 81.9561 54.7834 80.7294C53.3083 78.2345 51.4494 75.9887 49.2754 74.0748C48.8699 73.7144 45.2362 70.5404 43.7521 68.3861C40.6003 63.7861 40.9751 58.5804 42.6199 57.0088C44.2646 55.4371 46.6591 57.1391 48.7399 58.6724C49.5426 59.3285 50.4148 59.8942 51.3409 60.3591C52.2665 60.7501 52.6414 60.4741 52.8709 60.1521C54.4009 58.0668 52.7944 51.8261 51.3409 49.7638C50.063 48.0543 48.6371 46.4611 47.0798 45.0028C46.2307 44.1594 45.4351 43.3621 44.7007 42.5571C41.4265 38.9538 39.8736 35.3351 40.3173 32.3834C40.4543 31.5018 40.791 30.6634 41.3015 29.9325C41.8121 29.2016 42.4829 28.5975 43.2625 28.1668C46.7126 26.1351 55.4336 31.8468 65.5316 38.4631C68.6911 40.5331 71.95 42.6721 75.0253 44.5274C87.1123 51.8491 128.285 73.0551 128.698 73.2621C128.749 73.2884 128.794 73.3263 128.829 73.3729C128.863 73.4194 128.886 73.4733 128.897 73.5304L134.787 103.637C134.791 103.671 134.791 103.704 134.787 103.737C134.544 109.088 135.091 114.446 136.409 119.638C138.543 127.197 146.767 146.686 146.851 146.877C146.874 146.928 146.886 146.983 146.886 147.038C146.886 147.094 146.874 147.149 146.851 147.199C146.824 147.248 146.788 147.29 146.745 147.325C146.702 147.359 146.652 147.384 146.599 147.399L88.9789 162.433H88.8794ZM58.8991 86.2188C58.817 86.61 58.7684 87.0076 58.7537 87.4071C58.7078 88.3731 58.639 89.3621 58.5778 90.3741C58.2335 95.7791 57.8128 101.912 59.3045 106.98C61.5995 114.984 73.5259 124.736 81.413 131.191C82.943 132.456 84.4118 133.652 85.5899 134.657C92.2225 140.361 89.8892 158.017 89.3537 161.49L146.025 146.793C144.824 143.933 137.702 126.86 135.728 119.868C133.655 112.538 134.037 104.481 134.076 103.768L128.231 73.8678C125.355 72.3881 86.4009 52.2938 74.6811 45.1944C71.6211 43.3314 68.3315 41.1848 65.1644 39.1148C56.1068 33.1808 46.7432 27.0474 43.7444 28.8338C43.0584 29.2015 42.4678 29.7252 42.0201 30.363C41.5724 31.0007 41.28 31.7347 41.1664 32.5061C40.7609 35.1894 42.2909 38.6394 45.3586 42.0511C46.0777 42.8178 46.8886 43.6304 47.7071 44.4661C49.3005 45.9551 50.7573 47.5844 52.06 49.3344C53.4752 51.3891 55.4184 58.0744 53.5365 60.6198C52.978 61.3864 52.1594 61.5244 51.0884 61.0721C50.1084 60.5848 49.1849 59.9908 48.3344 59.3011C46.4143 57.8751 44.433 56.4031 43.209 57.5684C41.985 58.7338 41.4724 63.6251 44.4482 67.9568C46.0477 69.9758 47.8413 71.8324 49.8032 73.4998C52.0354 75.4607 53.9435 77.7637 55.4566 80.3231C56.2216 81.5344 57.0555 82.7841 58.1494 84.2254C58.4018 84.5551 58.6084 84.8158 58.7844 84.9921C58.8482 84.9662 58.915 84.9482 58.9832 84.9384C59.2017 84.941 59.4127 85.0185 59.5811 85.158C59.7495 85.2975 59.8652 85.4905 59.9089 85.7051C59.9655 85.8293 59.9742 85.9702 59.9333 86.1005C59.8923 86.2308 59.8046 86.3412 59.687 86.4104C59.4805 86.5331 59.251 86.5331 58.8991 86.2417V86.2188Z"
          fill="#231F20"/>
    <path d="M52.3508 123.08H105.908C108.067 123.08 109.818 121.326 109.818 119.162L109.818 4.39242C109.818 2.22874 108.067 0.474747 105.908 0.474747H52.3508C50.1919 0.474747 48.4417 2.22874 48.4417 4.39242L48.4417 119.162C48.4417 121.326 50.1919 123.08 52.3508 123.08Z"
          fill="white"/>
    <path d="M105.908 123.464H52.3583C51.2194 123.462 50.1278 123.007 49.3232 122.199C48.5186 121.391 48.0666 120.296 48.0667 119.155V4.39265C48.0666 3.25125 48.5186 2.15648 49.3232 1.34867C50.1278 0.540858 51.2194 0.0860153 52.3583 0.0839844H105.908C107.049 0.0839844 108.142 0.53793 108.948 1.34596C109.755 2.15399 110.208 3.24992 110.208 4.39265V119.155C110.208 120.298 109.755 121.394 108.948 122.202C108.142 123.01 107.049 123.464 105.908 123.464ZM52.3583 0.850651C51.4289 0.862748 50.5417 1.24125 49.8888 1.9042C49.2359 2.56715 48.8698 3.46117 48.8699 4.39265V119.155C48.8699 120.093 49.2412 120.993 49.9024 121.657C50.5635 122.321 51.4605 122.695 52.3966 122.697H105.947C106.884 122.697 107.783 122.324 108.446 121.66C109.108 120.995 109.481 120.094 109.481 119.155V4.39265C109.481 3.45325 109.108 2.55233 108.446 1.88808C107.783 1.22382 106.884 0.850651 105.947 0.850651H52.3583Z"
          fill="#231F20"/>
    <path d="M51.5474 105.922H106.474L106.474 11.561H51.5474L51.5474 105.922Z" fill="#1CBCC8"/>
    <path d="M83.7233 119.722H73.2734C72.5341 119.72 71.8259 119.424 71.3039 118.9C70.7819 118.375 70.4888 117.665 70.4888 116.924V112.922C70.4888 112.181 70.7819 111.47 71.3039 110.946C71.8259 110.421 72.5341 110.126 73.2734 110.124H83.7233C84.4625 110.126 85.1708 110.421 85.6927 110.946C86.2147 111.47 86.5079 112.181 86.5079 112.922V116.924C86.5079 117.665 86.2147 118.375 85.6927 118.9C85.1708 119.424 84.4625 119.72 83.7233 119.722ZM73.2734 110.89C72.737 110.892 72.2234 111.107 71.8448 111.488C71.4663 111.869 71.2538 112.384 71.2538 112.922V116.924C71.2538 117.461 71.4663 117.977 71.8448 118.358C72.2234 118.739 72.737 118.953 73.2734 118.956H83.7233C84.2596 118.953 84.7733 118.739 85.1518 118.358C85.5303 117.977 85.7429 117.461 85.7429 116.924V112.922C85.7429 112.384 85.5303 111.869 85.1518 111.488C84.7733 111.107 84.2596 110.892 83.7233 110.89H73.2734Z"
          fill="#D1D3D4"/>
    <path d="M90.1801 6.35553H74.5588C74.4573 6.35553 74.36 6.31515 74.2883 6.24326C74.2166 6.17137 74.1763 6.07387 74.1763 5.9722C74.1763 5.87053 74.2166 5.77303 74.2883 5.70115C74.36 5.62926 74.4573 5.58887 74.5588 5.58887H90.1801C90.2815 5.58887 90.3788 5.62926 90.4505 5.70115C90.5223 5.77303 90.5626 5.87053 90.5626 5.9722C90.5626 6.07387 90.5223 6.17137 90.4505 6.24326C90.3788 6.31515 90.2815 6.35553 90.1801 6.35553Z"
          fill="#D1D3D4"/>
    <path d="M72.3631 6.16364H70.29C70.1885 6.16364 70.0912 6.12325 70.0195 6.05136C69.9478 5.97947 69.9075 5.88197 69.9075 5.78031C69.9075 5.67864 69.9478 5.58114 70.0195 5.50925C70.0912 5.43736 70.1885 5.39697 70.29 5.39697H72.3861C72.4875 5.39697 72.5848 5.43736 72.6565 5.50925C72.7283 5.58114 72.7686 5.67864 72.7686 5.78031C72.7687 5.83264 72.7581 5.88444 72.7374 5.93252C72.7168 5.98059 72.6865 6.02392 72.6486 6.05983C72.6106 6.09575 72.5656 6.12348 72.5166 6.14134C72.4675 6.15919 72.4153 6.16678 72.3631 6.16364Z"
          fill="#D1D3D4"/>
    <path d="M59.5188 62.7665C59.5601 63.847 59.2747 64.9149 58.7 65.8301C58.1253 66.7454 57.2882 67.4652 56.2982 67.8955C53.8481 68.9871 51.0804 69.1265 48.5334 68.2865C47.0764 67.816 45.7232 67.069 44.5478 66.0861C42.5282 64.3765 41.3501 62.0841 41.6102 59.9528C42.0386 56.4798 46.5521 54.3101 51.188 54.8315C55.5179 55.3145 59.2664 59.6998 59.5188 62.7665Z"
          fill="white"/>
    <path d="M52.0217 69.1837C50.7997 69.1828 49.5849 68.9967 48.4185 68.6317C46.9119 68.1371 45.5146 67.3562 44.3028 66.3317C42.1073 64.4764 40.9598 62.0614 41.2428 59.8687C41.6942 56.296 46.1771 53.8504 51.249 54.4177C55.709 54.9237 59.664 59.355 59.9165 62.69C59.9683 63.8464 59.6683 64.9913 59.0563 65.9729C58.4443 66.9546 57.5491 67.7267 56.4893 68.187C55.0963 68.8589 53.5675 69.1999 52.0217 69.1837ZM49.8108 55.1C45.7793 55.1 42.3368 57.1547 41.9925 59.9607C41.7477 61.885 42.8034 64.047 44.8001 65.7337C45.9234 66.6885 47.223 67.4127 48.6251 67.865C51.077 68.685 53.7467 68.5537 56.1068 67.497C57.0287 67.1023 57.8096 66.4368 58.3464 65.5882C58.8831 64.7395 59.1505 63.7478 59.1132 62.7437C58.8837 60.0297 55.4336 55.6597 51.119 55.1767C50.6848 55.1255 50.248 55.0999 49.8108 55.1Z"
          fill="#231F20"/>
    <path d="M58.7231 78.2301C59.1623 78.8535 59.4539 79.569 59.5759 80.3222C59.6978 81.0754 59.6469 81.8466 59.4269 82.5771C59.079 83.4401 58.5309 84.2075 57.8281 84.8158C55.9921 86.5561 53.4752 87.7905 50.9431 87.4148C49.4071 87.1013 47.9628 86.4405 46.7203 85.4828C44.5094 83.9495 42.3827 82.0175 41.6483 79.4338C40.585 75.6925 43.2931 70.2338 47.6765 70.7628C51.3026 71.1998 56.803 75.2478 58.7231 78.2301Z"
          fill="white"/>
    <path d="M51.884 87.8675C51.5586 87.8689 51.2336 87.8433 50.9125 87.7908C49.3314 87.457 47.8476 86.7646 46.5749 85.7668C43.6526 83.7582 41.9849 81.7648 41.35 79.5108C41.0515 78.2631 41.049 76.9627 41.3426 75.7138C41.6362 74.465 42.2178 73.3024 43.0406 72.3195C43.5988 71.6119 44.3284 71.0594 45.16 70.7145C45.9916 70.3695 46.8974 70.2438 47.7913 70.3492C51.5245 70.8168 57.1166 74.9492 59.0827 78.0158C59.5601 78.6856 59.8774 79.4564 60.01 80.2686C60.1427 81.0809 60.0871 81.9128 59.8477 82.7002C59.4795 83.6174 58.9002 84.4344 58.157 85.0845C56.4984 86.7825 54.2533 87.7785 51.884 87.8675ZM47.1104 71.1082C46.4307 71.1184 45.7617 71.2798 45.1518 71.5808C44.5419 71.8818 44.0063 72.3148 43.5838 72.8485C42.8414 73.7334 42.3163 74.7804 42.0506 75.9054C41.7849 77.0305 41.786 78.2023 42.0538 79.3268C42.6428 81.4045 44.2111 83.2598 46.9804 85.1688C48.1744 86.0899 49.5602 86.7293 51.0349 87.0395C53.1769 87.3538 55.5637 86.4415 57.5756 84.5325C58.2448 83.9702 58.7696 83.255 59.1056 82.4472C59.3086 81.7724 59.3541 81.0599 59.2387 80.3647C59.1233 79.6694 58.8501 79.0101 58.4401 78.4375C56.6041 75.5855 51.1726 71.5758 47.7301 71.1388C47.5245 71.1141 47.3174 71.1039 47.1104 71.1082Z"
          fill="#231F20"/>
    <path d="M56.5583 90.2591C57.4091 90.8499 58.1217 91.619 58.6467 92.5131C59.1612 93.5536 59.3703 94.7192 59.2498 95.8741C59.1292 97.0291 58.684 98.1261 57.9659 99.0374C57.229 99.9312 56.3218 100.669 55.2973 101.207C54.2728 101.746 53.1514 102.074 51.9988 102.173C50.6399 102.338 49.2614 102.214 47.9537 101.808C46.6459 101.403 45.4384 100.725 44.4101 99.8194C43.3975 98.8954 42.6428 97.7229 42.2202 96.4175C41.7976 95.112 41.7219 93.7188 42.0003 92.3751C43.6757 85.3371 52.1825 87.0697 56.5583 90.2591Z"
          fill="white"/>
    <path d="M50.882 102.634C48.4048 102.659 46.0061 101.763 44.15 100.119C43.0852 99.151 42.2918 97.9205 41.8489 96.5499C41.406 95.1792 41.329 93.7163 41.6255 92.3065C41.8229 91.2477 42.2891 90.2577 42.9791 89.4318C43.6692 88.606 44.5598 87.9722 45.5653 87.5915C49.0307 86.3112 53.8273 87.8139 56.7802 89.9682C57.6802 90.5883 58.4325 91.3998 58.9834 92.3449C59.5274 93.4519 59.7485 94.6904 59.6212 95.9178C59.494 97.1453 59.0237 98.3118 58.2643 99.2832C57.4996 100.222 56.5542 100.997 55.4844 101.562C54.4146 102.127 53.2422 102.471 52.0372 102.572C51.6547 102.634 51.2645 102.634 50.882 102.634ZM48.4417 87.8752C47.5539 87.8655 46.6711 88.0108 45.833 88.3045C44.9429 88.6391 44.1551 89.2004 43.5474 89.9331C42.9397 90.6658 42.5331 91.5446 42.3676 92.4829C42.1009 93.7593 42.1724 95.0836 42.5751 96.3237C42.9777 97.5639 43.6974 98.6767 44.6626 99.5515C45.6486 100.416 46.8056 101.062 48.0579 101.448C49.3103 101.834 50.6297 101.951 51.9301 101.79C53.0325 101.7 54.1056 101.388 55.0859 100.875C56.0661 100.361 56.9336 99.6558 57.637 98.8002C58.3155 97.9453 58.737 96.9145 58.8521 95.8283C58.9673 94.7421 58.7713 93.6455 58.2872 92.6669C57.7939 91.8216 57.1198 91.0964 56.3135 90.5432C54.0119 88.8886 51.2726 87.9549 48.4417 87.8599V87.8752Z"
          fill="#231F20"/>
    <path d="M142.483 130.394L136.837 118.411L82.752 137.187L86.2633 150.258L142.483 130.394Z" fill="#1CBCC8"/>
    <path d="M82.2776 145.183L141.948 125.756L158.961 157.274L92.5821 177.475L82.2776 145.183Z" fill="#231F20"/>
    <path d="M92.582 177.851C92.5012 177.852 92.4221 177.827 92.3562 177.781C92.2902 177.734 92.2407 177.667 92.2149 177.59L81.9179 145.298C81.9025 145.251 81.8966 145.201 81.9006 145.152C81.9046 145.102 81.9184 145.054 81.9412 145.009C81.9639 144.965 81.9953 144.926 82.0333 144.894C82.0713 144.862 82.1153 144.838 82.1628 144.823L141.833 125.396C141.917 125.365 142.009 125.366 142.092 125.399C142.175 125.431 142.243 125.493 142.284 125.572L159.298 157.067C159.325 157.116 159.341 157.172 159.344 157.229C159.347 157.286 159.337 157.342 159.315 157.395C159.293 157.447 159.259 157.494 159.216 157.531C159.174 157.569 159.123 157.596 159.068 157.611L92.6891 177.813C92.6569 177.834 92.6203 177.847 92.582 177.851ZM82.7595 145.429L92.8269 177L158.403 157.067L141.764 126.239L82.7595 145.429Z"
          fill="#231F20"/>
    <path d="M134.458 105.562C134.458 105.562 134.076 72.6875 130.251 66.1632C126.426 59.6389 114.354 32.2305 111.126 32.0389C107.897 31.8472 104.562 41.7525 107.431 50.5769C109.095 55.7766 111.546 60.6894 114.698 65.1435C114.698 65.1435 106.337 72.4345 112.648 96.6152"
          fill="white"/>
    <path d="M134.458 105.945C134.358 105.945 134.262 105.906 134.19 105.836C134.119 105.766 134.078 105.67 134.076 105.57C134.076 105.24 133.655 72.718 129.922 66.3623C128.736 64.346 126.793 60.3823 124.567 55.7977C120.29 47.1037 113.138 32.5447 111.11 32.422C110.725 32.4607 110.353 32.5907 110.028 32.8013C109.702 33.0119 109.43 33.2971 109.236 33.6333C106.888 36.7 105.648 44.0063 107.767 50.5C109.423 55.6583 111.853 60.534 114.974 64.9593C115.032 65.0368 115.06 65.1338 115.05 65.2306C115.04 65.3274 114.993 65.4168 114.92 65.4807C114.836 65.5497 106.826 72.9557 112.985 96.5613C113.01 96.6589 112.997 96.7627 112.947 96.8503C112.896 96.9379 112.814 97.0021 112.717 97.029C112.669 97.0429 112.618 97.0469 112.568 97.0408C112.518 97.0348 112.47 97.0188 112.427 96.9937C112.383 96.9687 112.345 96.9352 112.315 96.8951C112.285 96.8551 112.263 96.8094 112.25 96.7607C106.497 74.7343 112.763 66.623 114.163 65.151C111.101 60.7186 108.699 55.8633 107.033 50.7376C104.845 44.0063 106.161 36.378 108.632 33.1733C108.894 32.7433 109.258 32.3846 109.692 32.1292C110.126 31.8738 110.615 31.7295 111.118 31.709C113.413 31.8393 118.416 41.6757 125.225 55.4757C127.474 60.0757 129.409 63.9933 130.58 65.9866C134.405 72.5187 134.825 104.228 134.841 105.57C134.842 105.62 134.833 105.67 134.814 105.717C134.796 105.764 134.769 105.807 134.734 105.843C134.699 105.879 134.658 105.908 134.612 105.929C134.566 105.949 134.516 105.96 134.466 105.961L134.458 105.945Z"
          fill="#231F20"/>
    <path d="M138.475 149.354C140.693 149.354 142.491 147.552 142.491 145.329C142.491 143.106 140.693 141.304 138.475 141.304C136.256 141.304 134.458 143.106 134.458 145.329C134.458 147.552 136.256 149.354 138.475 149.354Z"
          fill="white"/>
    <path d="M89.8434 8.88525H18.9279C17.1465 8.88525 15.4381 9.59445 14.1785 10.8568C12.9188 12.1192 12.2112 13.8313 12.2112 15.6166V51.3662C12.2112 53.1522 12.9186 54.8651 14.178 56.1287C15.4374 57.3923 17.1458 58.1032 18.9279 58.1053H79.0645L88.956 70.7169V58.1053H89.8434C91.6255 58.1032 93.3339 57.3923 94.5933 56.1287C95.8527 54.8651 96.5601 53.1522 96.5601 51.3662V15.6166C96.5601 13.8313 95.8524 12.1192 94.5928 10.8568C93.3332 9.59445 91.6248 8.88525 89.8434 8.88525Z"
          fill="white"/>
    <path d="M88.9559 71.108C88.8975 71.1086 88.8398 71.095 88.7878 71.0683C88.7358 71.0416 88.6911 71.0025 88.6576 70.9546L78.8732 58.4886H18.9278C17.0449 58.4846 15.2404 57.7326 13.9097 56.3976C12.579 55.0626 11.8306 53.2533 11.8286 51.3663V15.6166C11.8306 13.7303 12.5792 11.9218 13.9102 10.588C15.2411 9.25421 17.0456 8.50398 18.9278 8.50195H89.8433C91.7255 8.50398 93.5301 9.25421 94.861 10.588C96.1919 11.9218 96.9405 13.7303 96.9425 15.6166V51.3663C96.9405 53.2533 96.1921 55.0626 94.8614 56.3976C93.5307 57.7326 91.7262 58.4846 89.8433 58.4886H89.3384V70.7553C89.339 70.8353 89.3141 70.9134 89.2673 70.9782C89.2205 71.043 89.1543 71.0911 89.0783 71.1156C89.0374 71.1212 88.9958 71.1186 88.9559 71.108ZM18.9278 9.26862C17.2491 9.27267 15.6403 9.94277 14.4533 11.1324C13.2663 12.322 12.5977 13.9343 12.5936 15.6166V51.3663C12.5956 53.05 13.2634 54.6642 14.4506 55.8555C15.6379 57.0467 17.2478 57.7179 18.9278 57.722H79.0645C79.122 57.7216 79.1789 57.7346 79.2306 57.7599C79.2823 57.7852 79.3276 57.822 79.3628 57.8676L88.5428 69.6129V58.113C88.5428 58.0113 88.5831 57.9138 88.6548 57.8419C88.7266 57.77 88.8239 57.7296 88.9253 57.7296H89.8127C91.4934 57.7276 93.1045 57.0571 94.2921 55.8654C95.4798 54.6737 96.1469 53.0583 96.1469 51.374V15.6166C96.1449 13.9336 95.4769 12.3202 94.2894 11.1301C93.102 9.9401 91.492 9.27065 89.8127 9.26862H18.9278Z"
          fill="#231F20"/>
    <path d="M62.0051 21.1978H46.7663C45.2284 21.1978 43.9817 22.4472 43.9817 23.9884V31.7088C43.9817 33.25 45.2284 34.4994 46.7663 34.4994H62.0051C63.543 34.4994 64.7897 33.25 64.7897 31.7088V23.9884C64.7897 22.4472 63.543 21.1978 62.0051 21.1978Z"
          fill="#1CBCC8"/>
    <path d="M59.58 24.3722H49.1913C48.7855 24.3722 48.3964 24.2106 48.1094 23.923C47.8225 23.6355 47.6613 23.2455 47.6613 22.8388V18.7065C47.6309 17.8019 47.7824 16.9004 48.1068 16.0557C48.4312 15.2109 48.9219 14.4403 49.5497 13.7896C50.1774 13.1388 50.9295 12.6214 51.7609 12.268C52.5924 11.9145 53.4863 11.7324 54.3895 11.7324C55.2926 11.7324 56.1866 11.9145 57.018 12.268C57.8495 12.6214 58.6015 13.1388 59.2293 13.7896C59.857 14.4403 60.3477 15.2109 60.6722 16.0557C60.9966 16.9004 61.1481 17.8019 61.1176 18.7065V22.8388C61.1176 23.0408 61.0778 23.2408 61.0005 23.4274C60.9231 23.6139 60.8097 23.7833 60.6668 23.9258C60.5239 24.0683 60.3544 24.181 60.1678 24.2576C59.9813 24.3342 59.7816 24.3732 59.58 24.3722ZM50.7137 21.3055H58.05V18.7065C58.0726 18.2096 57.9945 17.7133 57.8204 17.2475C57.6463 16.7817 57.3798 16.3561 57.0369 15.9965C56.694 15.6368 56.282 15.3506 55.8257 15.155C55.3693 14.9594 54.8781 14.8586 54.3818 14.8586C53.8855 14.8586 53.3943 14.9594 52.938 15.155C52.4816 15.3506 52.0696 15.6368 51.7267 15.9965C51.3839 16.3561 51.1173 16.7817 50.9432 17.2475C50.7691 17.7133 50.691 18.2096 50.7137 18.7065V21.3055Z"
          fill="#1CBCC8"/>
    <path d="M54.3857 27.7684C55.4842 27.7684 56.3747 26.876 56.3747 25.7751C56.3747 24.6742 55.4842 23.7817 54.3857 23.7817C53.2872 23.7817 52.3967 24.6742 52.3967 25.7751C52.3967 26.876 53.2872 27.7684 54.3857 27.7684Z"
          fill="#231F20"/>
    <path d="M54.9441 26.1582H53.8271V30.8119H54.9441V26.1582Z" fill="#231F20"/>
    <path d="M86.6304 50.0552H21.8425C21.1933 50.0552 20.5706 49.7967 20.1115 49.3366C19.6524 48.8766 19.3945 48.2525 19.3945 47.6019V40.7019C19.3945 40.0512 19.6524 39.4272 20.1115 38.9671C20.5706 38.507 21.1933 38.2485 21.8425 38.2485H86.6304C87.2803 38.2485 87.9038 38.5068 88.3641 38.9666C88.8244 39.4265 89.084 40.0505 89.086 40.7019V47.6019C89.084 48.2532 88.8244 48.8772 88.3641 49.3371C87.9038 49.797 87.2803 50.0552 86.6304 50.0552ZM21.8425 38.9999C21.3962 38.9999 20.9681 39.1776 20.6525 39.4939C20.3368 39.8102 20.1595 40.2392 20.1595 40.6865V47.5865C20.1585 47.8083 20.2014 48.0281 20.2856 48.2332C20.3698 48.4383 20.4937 48.6246 20.6502 48.7815C20.8067 48.9383 20.9926 49.0625 21.1973 49.1469C21.4019 49.2313 21.6212 49.2742 21.8425 49.2732H86.6304C86.852 49.2742 87.0717 49.2313 87.2768 49.147C87.4819 49.0627 87.6683 48.9386 87.8254 48.7819C87.9825 48.6252 88.1071 48.4389 88.1922 48.2338C88.2772 48.0286 88.321 47.8087 88.321 47.5865V40.6865C88.319 40.2385 88.14 39.8095 87.8232 39.4934C87.5063 39.1773 87.0774 38.9999 86.6304 38.9999H21.8425Z"
          fill="#D1D3D4"/>
    <path d="M26.3408 44.4819L27.2053 45.6242L26.2414 46.2988L25.3769 45.1335L24.5278 46.2605L23.6251 45.5858L24.4972 44.4665L23.1125 44.0065L23.4874 42.9332L24.8491 43.4085V42.0132H26.0196V43.4085L27.3813 42.9792L27.7408 44.0525L26.3408 44.4819Z"
          fill="black"/>
    <path d="M32.6367 44.4819L33.5011 45.6242L32.5372 46.2988L31.6728 45.1335L30.8236 46.2605L29.8827 45.5858L30.7548 44.4665L29.3701 44.0065L29.745 42.9332L31.1067 43.4085V42.0132H32.2771V43.4085L33.6388 42.9792L33.9984 44.0525L32.6367 44.4819Z"
          fill="black"/>
    <path d="M38.9249 44.4819L39.7894 45.6242L38.8255 46.2988L37.9687 45.1335L37.1195 46.2605L36.1786 45.5858L37.0507 44.4665L35.666 44.0065L36.0409 42.9332L37.4026 43.4085V42.0132H38.573V43.4085L39.9347 42.9792L40.2943 44.0525L38.9249 44.4819Z"
          fill="black"/>
    <path d="M45.2285 44.4819L46.093 45.6242L45.1291 46.2988L44.2799 45.1335L43.4308 46.2605L42.4975 45.5858L43.3619 44.4665L41.9773 44.0065L42.3521 42.9332L43.7138 43.4085V42.0132H44.8919V43.4085L46.246 42.9792L46.6132 44.0525L45.2285 44.4819Z"
          fill="black"/>
    <path d="M51.5244 44.4819L52.3889 45.6242L51.425 46.2988L50.5605 45.1335L49.7114 46.2605L48.7781 45.5858L49.6349 44.4665L48.2502 44.0065L48.6251 42.9332L49.9868 43.4085V42.0132H51.1649V43.4085L52.5189 42.9792L52.8861 44.0525L51.5244 44.4819Z"
          fill="black"/>
</svg>