<svg width="566" height="520" viewBox="0 0 566 520" fill="none" xmlns="http://www.w3.org/2000/svg">
    <g clip-path="url(#clip0_2548_8861)">
        <path d="M10.0015 0.527588H132.969" stroke="#B7B7B7" stroke-width="1.5" stroke-linecap="round"
              stroke-linejoin="round"/>
        <path d="M10.0015 21.0371H132.969" stroke="#B7B7B7" stroke-width="1.5" stroke-linecap="round"
              stroke-linejoin="round"/>
        <path d="M10.0015 41.5461H132.969" stroke="#B7B7B7" stroke-width="1.5" stroke-linecap="round"
              stroke-linejoin="round"/>
        <path d="M10.0015 62.0559H132.969" stroke="#B7B7B7" stroke-width="1.5" stroke-linecap="round"
              stroke-linejoin="round"/>
        <path d="M10.0015 82.5654H132.969" stroke="#B7B7B7" stroke-width="1.5" stroke-linecap="round"
              stroke-linejoin="round"/>
        <path d="M10.0015 103.074H132.969" stroke="#B7B7B7" stroke-width="1.5" stroke-linecap="round"
              stroke-linejoin="round"/>
        <path d="M10.0015 123.584H132.969" stroke="#B7B7B7" stroke-width="1.5" stroke-linecap="round"
              stroke-linejoin="round"/>
        <path d="M10.0015 144.093H132.969" stroke="#B7B7B7" stroke-width="1.5" stroke-linecap="round"
              stroke-linejoin="round"/>
        <path d="M10.0015 164.603H132.969" stroke="#B7B7B7" stroke-width="1.5" stroke-linecap="round"
              stroke-linejoin="round"/>
        <path d="M133.314 0.527588V164.603" stroke="#B7B7B7" stroke-width="1.5" stroke-linecap="round"
              stroke-linejoin="round"/>
        <path d="M112.781 0.527588V164.603" stroke="#B7B7B7" stroke-width="1.5" stroke-linecap="round"
              stroke-linejoin="round"/>
        <path d="M92.2476 0.527588V164.603" stroke="#B7B7B7" stroke-width="1.5" stroke-linecap="round"
              stroke-linejoin="round"/>
        <path d="M71.7153 0.527588V164.603" stroke="#B7B7B7" stroke-width="1.5" stroke-linecap="round"
              stroke-linejoin="round"/>
        <path d="M51.1821 0.527588V164.603" stroke="#B7B7B7" stroke-width="1.5" stroke-linecap="round"
              stroke-linejoin="round"/>
        <path d="M30.6494 0.527588V164.603" stroke="#B7B7B7" stroke-width="1.5" stroke-linecap="round"
              stroke-linejoin="round"/>
        <path d="M10.1167 0.527588V164.603" stroke="#B7B7B7" stroke-width="1.5" stroke-linecap="round"
              stroke-linejoin="round"/>
        <path d="M64.0967 32.5965L37.9121 37.376L42.6971 63.5305L68.8817 58.751L64.0967 32.5965Z" fill="white"
              stroke="#B7B7B7" stroke-width="1.5" stroke-linecap="round" stroke-linejoin="round"/>
        <path d="M127.042 103.202L94.5947 91.0825L82.4612 123.493L114.909 135.612L127.042 103.202Z" fill="white"
              stroke="#B7B7B7" stroke-width="1.5" stroke-linecap="round" stroke-linejoin="round"/>
        <path d="M89.0742 118.314L101.157 113.348L102.102 117.426L113.545 113.348V127.632" fill="white"/>
        <path d="M89.0742 118.314L101.157 113.348L102.102 117.426L113.545 113.348V127.632" stroke="#B7B7B7"
              stroke-width="1.5" stroke-linecap="round" stroke-linejoin="round"/>
        <path d="M106.433 109.147C107.362 109.147 108.116 108.395 108.116 107.467C108.116 106.538 107.362 105.786 106.433 105.786C105.504 105.786 104.751 106.538 104.751 107.467C104.751 108.395 105.504 109.147 106.433 109.147Z"
              fill="white" stroke="#B7B7B7" stroke-width="1.5" stroke-linecap="round" stroke-linejoin="round"/>
        <path d="M42.3721 42.7665L54.8245 40.4038" stroke="#B7B7B7" stroke-width="1.5" stroke-linecap="round"
              stroke-linejoin="round"/>
        <path d="M43.1504 46.1528L59.9914 42.9565" stroke="#B7B7B7" stroke-width="1.5" stroke-linecap="round"
              stroke-linejoin="round"/>
        <path d="M43.9531 49.5535L62.1554 46.0991" stroke="#B7B7B7" stroke-width="1.5" stroke-linecap="round"
              stroke-linejoin="round"/>
        <path d="M44.5698 53.1197L58.9588 50.3892" stroke="#B7B7B7" stroke-width="1.5" stroke-linecap="round"
              stroke-linejoin="round"/>
        <path d="M65.1 519.183H32.4482L27.2617 411.606H70.2864L65.1 519.183Z" fill="white" stroke="black"
              stroke-width="1.5" stroke-linecap="round" stroke-linejoin="round"/>
        <path d="M51.8179 411.606C51.8179 411.606 53.6446 358.9 90.7836 341.873C90.7836 341.873 92.3053 353.731 82.2599 363.766C72.2144 373.8 70.8828 374.728 70.2863 385.659C69.83 394.021 62.9168 396.31 59.124 395.998C57.8515 395.893 54.0481 395.438 54.0481 395.438"
              fill="white"/>
        <path d="M51.8179 411.606C51.8179 411.606 53.6446 358.9 90.7836 341.873C90.7836 341.873 92.3053 353.731 82.2599 363.766C72.2144 373.8 70.8828 374.728 70.2863 385.659C69.83 394.021 62.9168 396.31 59.124 395.998C57.8515 395.893 54.0481 395.438 54.0481 395.438"
              stroke="black" stroke-width="1.5" stroke-linecap="round" stroke-linejoin="round"/>
        <path d="M45.6927 411.987C45.6927 411.987 44.4379 390.281 43.8527 383.058C42.2407 363.158 30.7834 331.685 0.53993 315.932C0.53993 315.932 -0.226244 327.863 10.4361 337.242C21.0984 346.619 23.0808 347.408 23.7751 358.332C24.4702 369.257 35.5705 367.943 35.5705 367.943L40.9422 367.37C40.9422 367.37 42.652 372.115 43.8527 383.058"
              fill="white"/>
        <path d="M45.6927 411.987C45.6927 411.987 44.4379 390.281 43.8527 383.058M43.8527 383.058C42.2407 363.158 30.7834 331.685 0.53993 315.932C0.53993 315.932 -0.226244 327.863 10.4361 337.242C21.0984 346.619 23.0808 347.408 23.7751 358.332C24.4702 369.257 35.5705 367.943 35.5705 367.943L40.9422 367.37C40.9422 367.37 42.652 372.115 43.8527 383.058Z"
              stroke="black" stroke-width="1.5" stroke-linecap="round" stroke-linejoin="round"/>
        <path d="M48.7744 411.606C48.7744 407.957 49.5864 336.197 63.3866 309.439" stroke="black" stroke-width="1.5"
              stroke-linecap="round" stroke-linejoin="round"/>
        <path d="M63.386 314.935C66.3002 314.935 68.6626 312.576 68.6626 309.665C68.6626 306.754 66.3002 304.394 63.386 304.394C60.4718 304.394 58.1094 306.754 58.1094 309.665C58.1094 312.576 60.4718 314.935 63.386 314.935Z"
              fill="white" stroke="black" stroke-width="1.5" stroke-linecap="round" stroke-linejoin="round"/>
        <path d="M1.71094 519.472H562.038" stroke="black" stroke-width="1.5" stroke-linecap="round"
              stroke-linejoin="round"/>
        <path d="M481.932 31.5002H82.019V331.694H481.932V31.5002Z" fill="white" stroke="#1CBCC8" stroke-width="1.5"
              stroke-linecap="round" stroke-linejoin="round"/>
        <path d="M372.832 139.976H194.051C187.233 139.976 181.684 134.453 181.684 127.666C181.684 120.88 187.233 115.357 194.051 115.357H372.832C379.65 115.357 385.199 120.88 385.199 127.666C385.199 134.453 379.65 139.976 372.832 139.976ZM194.051 116.878C188.074 116.878 183.213 121.717 183.213 127.666C183.213 133.616 188.074 138.454 194.051 138.454H372.832C378.809 138.454 383.67 133.616 383.67 127.666C383.67 121.717 378.809 116.878 372.832 116.878H194.051Z"
              fill="black"/>
        <path d="M372.506 284.876H193.673C187.059 284.876 181.684 279.515 181.684 272.918C181.684 266.321 187.059 260.96 193.673 260.96H372.506C379.12 260.96 384.495 266.321 384.495 272.918C384.495 279.515 379.12 284.876 372.506 284.876Z"
              fill="#1CBCC8"/>
        <path d="M314.055 91.4416H190.859C184.244 91.4416 178.868 86.0805 178.868 79.4839C178.868 72.8873 184.244 67.5261 190.859 67.5261H314.055C320.67 67.5261 326.046 72.8873 326.046 79.4839C326.046 86.0805 320.67 91.4416 314.055 91.4416Z"
              fill="#E2E3E4"/>
        <path d="M372.832 188.51H194.051C187.233 188.51 181.684 182.987 181.684 176.201C181.684 169.415 187.233 163.891 194.051 163.891H372.832C379.65 163.891 385.199 169.415 385.199 176.201C385.199 182.987 379.65 188.51 372.832 188.51ZM194.051 165.413C188.074 165.413 183.213 170.251 183.213 176.201C183.213 182.15 188.074 186.989 194.051 186.989H372.832C378.809 186.989 383.67 182.15 383.67 176.201C383.67 170.251 378.809 165.413 372.832 165.413H194.051Z"
              fill="black"/>
        <path d="M372.832 237.045H194.051C187.233 237.045 181.684 231.364 181.684 224.384C181.684 217.403 187.233 211.722 194.051 211.722H372.832C379.65 211.722 385.199 217.403 385.199 224.384C385.199 231.364 379.65 237.045 372.832 237.045ZM194.051 213.287C188.074 213.287 183.213 218.264 183.213 224.384C183.213 230.503 188.074 235.48 194.051 235.48H372.832C378.809 235.48 383.67 230.503 383.67 224.384C383.67 218.264 378.809 213.287 372.832 213.287H194.051Z"
              fill="black"/>
        <path d="M187.927 106.213H234.595C235.706 106.213 236.612 107.153 236.612 108.323C236.612 109.486 235.706 110.433 234.595 110.433H187.927C186.816 110.433 185.91 109.494 185.91 108.323C185.91 107.16 186.816 106.213 187.927 106.213Z"
              fill="#231F20"/>
        <path d="M187.927 156.154H234.595C235.706 156.154 236.612 156.939 236.612 157.909C236.612 158.88 235.706 159.671 234.595 159.671H187.927C186.816 159.671 185.91 158.887 185.91 157.916C185.91 156.945 186.816 156.154 187.927 156.154Z"
              fill="#231F20"/>
        <path d="M187.927 205.392H234.595C235.706 205.392 236.612 206.333 236.612 207.506C236.612 208.671 235.706 209.612 234.595 209.612H187.927C186.816 209.612 185.91 208.671 185.91 207.498C185.91 206.333 186.816 205.392 187.927 205.392Z"
              fill="#231F20"/>
        <path d="M472.382 518.16H509.092L512.538 513.858C512.538 513.858 513.424 516.213 514.267 518.16H522.96L522.176 496.125L493.653 495.539C493.653 495.539 490.83 506.767 481.996 507.499C468.055 508.658 472.382 518.16 472.382 518.16Z"
              fill="white" stroke="black" stroke-width="1.5" stroke-linecap="round" stroke-linejoin="round"/>
        <path d="M406.848 518.16H442.888L446.334 513.858C446.334 513.858 447.22 516.213 448.063 518.16H456.756L456.642 496.125L430.128 495.539C430.128 495.539 425.296 506.767 416.461 507.499C402.52 508.658 406.848 518.16 406.848 518.16Z"
              fill="white" stroke="black" stroke-width="1.5" stroke-linecap="round" stroke-linejoin="round"/>
        <path d="M434.555 245.768L413.803 358.244C412.889 361.832 412.743 365.572 413.372 369.221L421.609 499.373L462.028 498.954L457.082 366.464L470.62 317.26L488.059 500.041L525.86 499.454L515.007 245.674L434.555 245.768Z"
              fill="#1CBCC8" stroke="black" stroke-width="1.5" stroke-linecap="round" stroke-linejoin="round"/>
        <path d="M470.62 317.26L467.951 291.144" stroke="black" stroke-width="1.5" stroke-linecap="round"
              stroke-linejoin="round"/>
        <path d="M510.027 140.427C507.209 132.948 500.781 132.358 499.396 127.398C498.01 122.439 496.176 105.986 496.176 105.986C493.304 92.192 483.979 82.7046 470.146 82.6807C456.312 82.6561 445.204 94.6617 445.179 108.751C445.179 108.751 445.77 125.584 445.697 131.929C445.623 138.274 439.685 143.003 440.473 151.209C441.262 159.416 446.763 163.025 450.371 163.933C458.579 165.997 489.257 164.187 502.537 158.601C515.219 153.267 510.027 140.427 510.027 140.427Z"
              fill="#1CBCC8" stroke="black" stroke-width="1.5" stroke-miterlimit="10"/>
        <path d="M484.483 122.723C487.485 122.676 489.876 120.163 489.823 117.11C489.772 114.188 487.5 111.836 484.673 111.679C482.434 101.855 474.31 94.4681 464.002 94.6278C456.253 94.7481 453.498 98.9699 449.836 105.291C447.898 108.636 448.459 128.252 451.073 132.461C452.82 135.275 455.949 137.164 460.991 137.991L461.236 149.417C461.236 149.417 460.575 160.45 472.579 159.869C484.755 159.281 484.633 148.598 484.633 148.598C484.633 148.598 484.281 124.195 484.379 122.718C484.414 122.718 484.448 122.722 484.483 122.721V122.723Z"
              fill="#FFFDFD" stroke="black" stroke-width="1.5" stroke-linecap="round" stroke-linejoin="round"/>
        <path d="M471.219 135.917L461.21 147.272L460.992 137.992C460.992 137.992 464.261 138.286 467.274 137.42C470.286 136.554 471.219 135.917 471.219 135.917Z"
              fill="black" stroke="black" stroke-width="1.5" stroke-linecap="round" stroke-linejoin="round"/>
        <path d="M484.673 111.679C484.673 111.679 480.405 111.095 475.268 108.28C470.981 105.93 467.39 101.107 465.471 97.9436C463.021 101.973 457.508 108.529 446.43 111.696L449.603 97.2846L478.932 87.9456L486.206 110.03L484.673 111.679Z"
              fill="#1CBCC8"/>
        <path d="M448 111.213C458.034 107.9 463.139 101.777 465.47 97.9436C467.389 101.107 471.023 105.853 475.268 108.28C479.765 110.852 482.936 111.441 484.165 111.6C484.452 111.637 485.113 111.722 485.113 111.722"
              stroke="black" stroke-width="1.5" stroke-linecap="round" stroke-linejoin="round"/>
        <path d="M465.471 97.9438L466.228 89.2808" stroke="black" stroke-width="1.5" stroke-linecap="round"
              stroke-linejoin="round"/>
        <path d="M467.524 113.99L467.514 113.896C467.52 113.75 467.49 113.615 467.423 113.49C467.381 113.359 467.308 113.245 467.205 113.15C467.109 113.047 466.996 112.974 466.865 112.932C466.739 112.866 466.604 112.835 466.458 112.841L466.177 112.879C465.998 112.929 465.842 113.02 465.711 113.15L465.545 113.364C465.449 113.529 465.402 113.706 465.401 113.897L465.411 113.991C465.405 114.137 465.435 114.272 465.502 114.398C465.544 114.528 465.617 114.642 465.72 114.737C465.816 114.84 465.929 114.913 466.06 114.955C466.186 115.022 466.321 115.052 466.467 115.046L466.748 115.008C466.927 114.958 467.083 114.867 467.214 114.737L467.38 114.523C467.475 114.358 467.523 114.181 467.524 113.99Z"
              fill="black"/>
        <path d="M456.212 114.734L456.203 114.639C456.208 114.494 456.178 114.359 456.112 114.233C456.07 114.102 455.996 113.989 455.893 113.893C455.798 113.791 455.684 113.717 455.553 113.675C455.427 113.609 455.292 113.579 455.146 113.584L454.865 113.622C454.687 113.672 454.531 113.763 454.399 113.894L454.234 114.108C454.138 114.272 454.09 114.45 454.089 114.64L454.099 114.734C454.094 114.88 454.124 115.015 454.19 115.141C454.232 115.272 454.306 115.385 454.408 115.481C454.504 115.583 454.617 115.657 454.748 115.699C454.875 115.765 455.01 115.795 455.156 115.79L455.436 115.752C455.615 115.702 455.771 115.611 455.903 115.48L456.068 115.266C456.164 115.102 456.212 114.924 456.212 114.734Z"
              fill="black"/>
        <path d="M458.482 118.991L457.916 121.662C457.812 122.155 458.24 122.597 458.734 122.507L461.084 122.077"
              stroke="black" stroke-width="1.5" stroke-linecap="round" stroke-linejoin="round"/>
        <path d="M464.262 109.524C464.262 109.524 467.638 108.336 469.376 110.582" stroke="black" stroke-width="1.5"
              stroke-linecap="round" stroke-linejoin="round"/>
        <path d="M468.299 124.572C468.299 124.572 467.286 128.247 462.662 127.632" stroke="black" stroke-width="1.5"
              stroke-linecap="round" stroke-linejoin="round"/>
        <path d="M451.346 111.845C451.346 111.845 453.725 109.471 456.357 110.52" stroke="black" stroke-width="1.5"
              stroke-linecap="round" stroke-linejoin="round"/>
        <path d="M333.5 142.348C333.5 142.348 323.837 135.548 320.005 132.155C313.398 126.303 309.953 122.417 310.14 119.219C310.168 118.719 310.594 117.794 311.856 118.849"
              stroke="black" stroke-width="1.5" stroke-linecap="round" stroke-linejoin="round"/>
        <path d="M350.371 131.828C350.371 131.828 338.775 122.67 335.101 119.398C331.473 116.166 328.893 112.202 327.254 112.646C325.745 113.056 326.64 115.617 328.273 118.377"
              stroke="black" stroke-width="1.5" stroke-linecap="round" stroke-linejoin="round"/>
        <path d="M318.889 126.087C314.076 123.097 309.94 116.248 309.7 114.836C309.473 113.499 310.775 112.662 312.193 114.009"
              stroke="black" stroke-width="1.5" stroke-linecap="round" stroke-linejoin="round"/>
        <path d="M321.209 123.356C317.247 120.532 313.897 117.301 312.457 114.533C312.02 113.695 311.186 112.025 311.407 111.202C311.837 109.599 313.451 110.662 315.063 112.404"
              stroke="black" stroke-width="1.5" stroke-linecap="round" stroke-linejoin="round"/>
        <path d="M333.313 121.648C333.313 121.648 325.38 116.732 316.603 110.488C316.041 110.089 313.858 109.982 315.171 112.636C316.832 115.991 323.721 120.249 323.721 120.249"
              stroke="black" stroke-width="1.5" stroke-linecap="round" stroke-linejoin="round"/>
        <path d="M515.902 176.771C516.209 183.568 515.091 245.935 515.091 245.935L434.496 245.701L435.936 187.568L414.049 194.766L382.297 204.492L381.681 204.686C375.299 206.626 368.126 204.379 364.094 198.619L323.429 140.539L345.737 123.655L383.202 169.325C383.202 169.325 420.164 156.796 433.444 152.468C436.579 151.444 440.986 149.698 449.598 149.698L461.231 149.571L471.706 155.804L484.592 149.316L501.73 149.129C528.974 148.18 515.882 176.296 515.902 176.771V176.771Z"
              fill="black"/>
        <path d="M484.967 144.442L488.502 149.522L478.756 164.483L471.707 155.805L484.967 144.442Z" fill="#FDFDFF"
              stroke="black" stroke-width="1.5" stroke-linecap="round" stroke-linejoin="round"/>
        <path d="M471.706 155.805L464.223 163.694L457.292 149.987L460.868 145.278L471.706 155.805Z" fill="#FDFDFF"
              stroke="black" stroke-width="1.5" stroke-linecap="round" stroke-linejoin="round"/>
        <path d="M514.41 235.19L510.47 236.923L508.517 237.915C503.865 237.68 498.732 236.567 498.187 238.078C497.862 238.977 499.769 240.045 502.091 240.946C502.091 240.946 500.668 241.778 500.361 242.005C494.236 246.517 489.384 254.394 489.986 255.583C490.271 256.146 490.825 256.53 491.685 256.115C491.907 256.007 492.133 255.866 492.359 255.709C491.232 257.497 490.595 258.975 491.264 259.632C492.151 260.501 493.094 260.182 494.063 259.305C494.023 259.545 494.038 259.74 494.121 259.878C495.348 261.911 497.402 259.979 498.891 257.918C498.963 257.817 499.068 257.688 499.187 257.546C498.937 258.099 498.782 258.549 498.744 258.813C498.502 260.44 500.737 260.741 502.109 258.62C506.976 251.096 516.133 254.013 529.288 241.594L514.41 235.19V235.19Z"
              fill="#FFFDFD" stroke="black" stroke-width="1.5" stroke-linecap="round" stroke-linejoin="round"/>
        <path d="M492.439 255.582C493.27 254.278 494.267 252.758 495.366 251.395C498.618 247.364 499.995 246.108 501.635 244.998"
              fill="#FEFFFF"/>
        <path d="M492.439 255.582C493.27 254.278 494.267 252.758 495.366 251.395C498.618 247.364 499.995 246.108 501.635 244.998"
              stroke="black" stroke-width="1.5" stroke-linecap="round" stroke-linejoin="round"/>
        <path d="M503.452 248.006C503.452 248.006 502.79 248.396 501.59 249.388C499.544 251.079 494.15 257.431 494.044 259.477"
              fill="#FEFFFF"/>
        <path d="M503.452 248.006C503.452 248.006 502.79 248.396 501.59 249.388C499.544 251.079 494.15 257.431 494.044 259.477"
              stroke="black" stroke-width="1.5" stroke-linecap="round" stroke-linejoin="round"/>
        <path d="M505.339 250.487C505.339 250.487 503.216 252.004 502.26 252.986C500.771 254.514 499.634 256.489 499.089 257.768"
              fill="#FEFFFF"/>
        <path d="M505.339 250.487C505.339 250.487 503.216 252.004 502.26 252.986C500.771 254.514 499.634 256.489 499.089 257.768"
              stroke="black" stroke-width="1.5" stroke-linecap="round" stroke-linejoin="round"/>
        <path d="M525.095 250.339L561.633 211.169C562.196 210.562 562.782 209.839 563.259 209.13C568.227 201.736 566.256 191.72 558.855 186.756L558.323 186.399L514.69 152.33C507.034 147.196 500.097 151.928 494.957 159.575C489.817 167.223 491.857 174.851 499.513 179.985L531.233 203.989L507.675 233.238L525.095 250.338V250.339Z"
              fill="black"/>
        <path d="M515.555 223.468L507.647 233.335L510.789 236.539" stroke="#FEFFFF" stroke-width="1.5"
              stroke-linecap="round" stroke-linejoin="round"/>
        <path d="M435.934 187.568V175.626" stroke="#FEFFFF" stroke-width="1.5" stroke-linecap="round"
              stroke-linejoin="round"/>
        <path d="M510.543 188.253L515.815 192.186" stroke="#FEFFFF" stroke-width="1.5" stroke-linecap="round"
              stroke-linejoin="round"/>
    </g>
    <defs>
        <clipPath id="clip0_2548_8861">
            <rect width="566" height="520" fill="white"/>
        </clipPath>
    </defs>
</svg>
