<svg width="690" height="447" viewBox="0 0 690 447" fill="none" xmlns="http://www.w3.org/2000/svg">
    <path d="M214.094 442.735C179.153 425.621 142.034 413.376 103.774 406.341C123.5 393.251 124.614 359.733 127.918 336.273C138.553 260.98 213.176 212.885 271.2 173.263C276.087 169.818 281.151 166.631 286.371 163.714C292.529 160.407 309.674 150.174 314.171 159.625C318.491 168.723 307.778 185.277 302.441 191.949C305.983 186.669 309.903 181.653 314.171 176.941C315.483 175.181 317.306 173.869 319.391 173.185C323.301 172.284 327.035 176.002 327.621 179.955C328.208 183.907 326.566 187.781 324.767 191.401C320.435 199.949 315.035 207.911 308.697 215.096C312.959 210.263 328.716 192.164 328.384 210.498C328.11 222.047 323.298 233.021 314.992 241.042C318.638 237.839 322.563 234.971 326.722 232.472C327.306 232.011 327.98 231.678 328.701 231.493C329.421 231.307 330.172 231.274 330.906 231.395C331.682 231.773 332.348 232.344 332.841 233.053C333.334 233.762 333.637 234.586 333.721 235.446C336.341 247.186 329.811 255.599 325.353 265.637C321.874 273.464 319.84 280.821 315.402 288.354C299.371 315.63 282.363 342.436 264.025 368.205C259.294 374.76 214.329 442.852 214.094 442.735Z"
          fill="white"/>
    <path d="M214.036 443.733C213.904 443.728 213.775 443.687 213.664 443.616C178.804 426.537 141.771 414.318 103.598 407.3C103.41 407.263 103.237 407.171 103.101 407.036C102.964 406.902 102.87 406.73 102.831 406.542C102.791 406.355 102.808 406.159 102.878 405.981C102.948 405.803 103.069 405.649 103.226 405.539C119.824 394.523 123.05 367.893 125.65 346.487C126.08 342.886 126.491 339.423 126.96 336.136C137.243 263.309 207.447 215.507 263.81 177.078L270.594 172.461C275.505 168.993 280.595 165.786 285.843 162.854L287.211 162.11C293.076 158.94 303.809 153.051 310.495 155.223C311.479 155.519 312.389 156.021 313.164 156.696C313.939 157.37 314.562 158.202 314.992 159.136C317.318 164.047 315.676 170.621 312.939 176.648C313.056 176.491 313.193 176.355 313.33 176.198C314.797 174.293 316.819 172.891 319.117 172.187C320.043 171.995 320.998 171.997 321.924 172.192C322.849 172.387 323.724 172.772 324.493 173.322C325.565 174.072 326.476 175.03 327.171 176.14C327.866 177.249 328.332 178.486 328.54 179.779C329.166 183.966 327.484 188.016 325.588 191.793C323.404 196.095 320.955 200.257 318.257 204.257C321.189 202.065 323.926 200.891 326.077 201.713C328.227 202.535 329.439 205.47 329.342 210.479C329.161 219.04 326.52 227.368 321.737 234.468C323.203 233.45 324.669 232.511 326.174 231.591C326.874 231.052 327.681 230.669 328.541 230.467C329.4 230.264 330.293 230.247 331.16 230.417C332.115 230.825 332.941 231.484 333.55 232.325C334.16 233.166 334.53 234.157 334.62 235.191C336.771 244.838 333.076 252.156 329.166 259.904C328.169 261.861 327.211 263.915 326.194 266.009C324.982 268.729 323.926 271.449 322.91 274.09C321.085 279.172 318.842 284.094 316.204 288.804C298.805 318.428 281.992 344.569 264.788 368.734C262.5 371.962 250.379 390.257 238.649 407.867L222.305 432.423C215.756 442.207 214.72 443.733 214.036 443.733ZM106.198 405.813C143.467 412.868 179.628 424.87 213.723 441.502C215.991 438.235 226.606 422.268 236.909 406.791C248.639 389.181 260.76 370.886 263.087 367.658C280.252 343.532 297.025 317.43 314.405 287.885C316.989 283.254 319.186 278.417 320.974 273.425C321.991 270.783 323.066 268.024 324.298 265.265C325.236 263.133 326.253 261.078 327.289 259.082C331.062 251.647 334.601 244.642 332.606 235.602C332.313 234.291 331.688 232.648 330.456 232.256C329.854 232.192 329.246 232.247 328.665 232.418C328.085 232.589 327.544 232.873 327.074 233.254C322.976 235.727 319.103 238.555 315.5 241.707C315.306 241.863 315.059 241.939 314.811 241.92C314.562 241.9 314.331 241.786 314.164 241.601C313.996 241.416 313.906 241.174 313.911 240.925C313.916 240.675 314.016 240.437 314.19 240.259C318.223 236.39 321.453 231.763 323.698 226.643C325.942 221.523 327.156 216.01 327.269 210.42C327.269 206.507 326.644 204.061 325.314 203.513C322.753 202.535 317.494 206.526 309.537 215.468L309.362 215.684C309.271 215.775 309.163 215.848 309.043 215.898C308.924 215.947 308.797 215.973 308.667 215.973C308.538 215.973 308.411 215.947 308.292 215.898C308.172 215.848 308.064 215.775 307.973 215.684C307.88 215.596 307.805 215.49 307.754 215.372C307.704 215.254 307.677 215.127 307.677 214.999C307.677 214.87 307.704 214.743 307.754 214.626C307.805 214.508 307.88 214.402 307.973 214.314C314.248 207.196 319.589 199.306 323.868 190.834C325.627 187.351 327.172 183.633 326.624 179.994C326.454 178.968 326.081 177.986 325.527 177.106C324.973 176.225 324.249 175.465 323.398 174.867C322.844 174.457 322.208 174.17 321.534 174.024C320.86 173.879 320.162 173.88 319.488 174.026C317.611 174.679 315.97 175.878 314.777 177.47C312.314 180.229 309.928 183.085 307.7 186.04C305.334 189.66 303.36 192.145 303.125 192.438C302.964 192.633 302.736 192.76 302.485 192.792C302.235 192.825 301.981 192.761 301.776 192.614C301.569 192.469 301.429 192.247 301.385 191.998C301.341 191.748 301.397 191.492 301.542 191.284C303.066 188.995 304.67 186.764 306.331 184.592C311.375 176.765 316.224 166.239 313.232 159.938C312.92 159.232 312.46 158.601 311.883 158.088C311.307 157.575 310.627 157.192 309.889 156.964C304.024 155.007 293.291 160.877 288.15 163.714L286.781 164.458C281.6 167.414 276.581 170.647 271.747 174.143L264.963 178.761C208.874 216.955 139.061 264.502 128.895 336.469C128.426 339.736 128.016 343.199 127.586 346.78C125.005 367.697 121.916 393.623 106.198 405.813Z"
          fill="#231F20"/>
    <path d="M268.517 40.532L136.204 73.1325C130.867 74.4473 127.606 79.8429 128.92 85.1839L198.575 368.37C199.889 373.711 205.28 376.975 210.616 375.66L342.929 343.06C348.266 341.745 351.527 336.349 350.213 331.008L280.558 47.822C279.244 42.481 273.853 39.2172 268.517 40.532Z"
          fill="white"/>
    <path d="M208.19 376.952C206.198 376.945 204.246 376.397 202.54 375.367C201.308 374.629 200.235 373.651 199.386 372.492C198.536 371.333 197.927 370.015 197.594 368.616L127.957 85.4281C127.267 82.6129 127.721 79.6386 129.22 77.1585C130.719 74.6783 133.141 72.8953 135.953 72.201L268.267 39.603C271.083 38.9114 274.057 39.3656 276.538 40.8658C279.019 42.366 280.805 44.7899 281.503 47.6057L351.14 330.794C351.825 333.614 351.366 336.591 349.864 339.073C348.362 341.556 345.939 343.342 343.124 344.041L210.81 376.619C209.954 376.837 209.074 376.949 208.19 376.952ZM270.907 41.2466C270.176 41.2441 269.447 41.3295 268.737 41.5009L136.422 74.099C134.113 74.6684 132.124 76.1319 130.892 78.1681C129.661 80.2044 129.287 82.6467 129.853 84.9585L199.491 368.147C200.059 370.458 201.522 372.449 203.556 373.681C205.591 374.914 208.031 375.288 210.341 374.721L342.655 342.143C344.967 341.569 346.957 340.102 348.192 338.064C349.426 336.025 349.804 333.58 349.244 331.264L279.606 48.0753C279.129 46.1267 278.013 44.3946 276.435 43.1565C274.858 41.9184 272.911 41.2459 270.907 41.2466Z"
          fill="#231F20"/>
    <path d="M276.923 67.4583L141.212 100.896L198.483 333.734L334.194 300.296L276.923 67.4583Z" fill="#1CBCC8"/>
    <path d="M282.042 325.165L256.225 331.526C252.944 332.335 250.938 335.653 251.746 338.937L254.176 348.817C254.984 352.101 258.299 354.108 261.581 353.3L287.398 346.938C290.68 346.13 292.685 342.812 291.877 339.528L289.447 329.648C288.639 326.364 285.324 324.357 282.042 325.165Z"
          fill="white"/>
    <path d="M260.096 354.489C258.508 354.486 256.967 353.951 255.72 352.968C254.472 351.986 253.59 350.613 253.214 349.069L250.77 339.188C250.351 337.368 250.663 335.456 251.64 333.863C252.616 332.271 254.179 331.127 255.99 330.677L281.816 324.318C283.643 323.874 285.571 324.173 287.179 325.148C288.788 326.123 289.945 327.696 290.398 329.522L292.822 339.306C293.27 341.135 292.974 343.067 291.999 344.678C291.024 346.289 289.449 347.446 287.622 347.895L261.855 354.274C261.28 354.418 260.689 354.49 260.096 354.489ZM283.556 325.981C283.134 325.985 282.714 326.037 282.304 326.137L256.498 332.496C255.843 332.656 255.225 332.944 254.682 333.343C254.138 333.743 253.679 334.247 253.331 334.825C252.981 335.407 252.749 336.052 252.649 336.723C252.548 337.395 252.581 338.079 252.745 338.738L255.169 348.522C255.329 349.178 255.617 349.797 256.017 350.342C256.416 350.887 256.918 351.348 257.496 351.699C258.073 352.049 258.714 352.283 259.381 352.386C260.049 352.488 260.73 352.459 261.386 352.298L287.192 345.939C287.848 345.778 288.466 345.49 289.01 345.09C289.555 344.691 290.016 344.188 290.366 343.61C290.717 343.032 290.95 342.391 291.053 341.723C291.155 341.055 291.126 340.373 290.965 339.717L288.541 329.933C288.382 329.277 288.094 328.659 287.695 328.115C287.295 327.571 286.792 327.112 286.214 326.763C285.402 326.249 284.459 325.977 283.497 325.981H283.556Z"
          fill="#E6E7E8"/>
    <path d="M180.644 77.0731C180.433 77.0582 180.232 76.9761 180.07 76.8389C179.908 76.7016 179.794 76.5164 179.745 76.31C179.713 76.1841 179.706 76.053 179.726 75.9245C179.745 75.7959 179.789 75.6725 179.857 75.5614C179.924 75.4503 180.013 75.3537 180.118 75.2773C180.223 75.2009 180.342 75.1462 180.468 75.1165L219.099 65.6071C219.224 65.5747 219.353 65.5673 219.481 65.5852C219.608 65.6031 219.731 65.646 219.842 65.7115C219.952 65.7769 220.049 65.8636 220.126 65.9666C220.204 66.0695 220.26 66.1867 220.292 66.3115C220.351 66.5656 220.308 66.8328 220.173 67.0559C220.038 67.279 219.821 67.4402 219.568 67.505L180.938 77.0144L180.644 77.0731Z"
          fill="#E6E7E8"/>
    <path d="M224.71 66.2138C224.492 66.2149 224.281 66.1419 224.11 66.0067C223.94 65.8716 223.82 65.6824 223.772 65.4702C223.712 65.2188 223.751 64.9539 223.883 64.7312C224.014 64.5086 224.226 64.3456 224.475 64.2767L229.676 63.0048C229.935 62.9426 230.208 62.9859 230.436 63.1254C230.663 63.2648 230.826 63.4889 230.888 63.7484C230.95 64.0078 230.907 64.2814 230.767 64.5089C230.628 64.7364 230.404 64.8992 230.145 64.9615L224.945 66.2529L224.71 66.2138Z"
          fill="#E6E7E8"/>
    <path d="M293.022 250.398L212.609 270.21C205.491 271.964 201.14 279.162 202.893 286.287L204.314 292.063C206.066 299.187 213.258 303.541 220.376 301.787L300.789 281.975C307.908 280.221 312.258 273.023 310.506 265.898L309.085 260.122C307.333 252.997 300.141 248.644 293.022 250.398Z"
          fill="white"/>
    <path d="M217.164 303.284C213.982 303.275 210.895 302.201 208.394 300.233C205.892 298.265 204.121 295.516 203.361 292.424L201.954 286.554C201.056 282.883 201.649 279.005 203.602 275.771C205.555 272.536 208.709 270.208 212.374 269.296L292.803 249.495C294.618 249.047 296.503 248.962 298.351 249.244C300.199 249.526 301.974 250.17 303.573 251.138C305.172 252.107 306.565 253.381 307.673 254.889C308.78 256.396 309.58 258.107 310.026 259.924L311.453 265.794C312.351 269.462 311.758 273.337 309.804 276.569C307.851 279.801 304.696 282.125 301.033 283.032L220.605 302.775C219.482 303.08 218.327 303.251 217.164 303.284ZM296.224 251.119C295.229 251.127 294.238 251.252 293.272 251.491L212.843 271.194C211.275 271.579 209.798 272.27 208.496 273.227C207.195 274.184 206.095 275.389 205.26 276.772C204.425 278.155 203.87 279.69 203.628 281.288C203.386 282.886 203.462 284.516 203.85 286.084L205.258 291.954C206.044 295.119 208.051 297.843 210.839 299.53C213.628 301.217 216.97 301.729 220.135 300.955L300.564 281.134C303.725 280.352 306.446 278.347 308.132 275.559C309.818 272.772 310.33 269.429 309.557 266.263L308.13 260.393C307.466 257.73 305.936 255.364 303.78 253.667C301.625 251.97 298.966 251.039 296.224 251.021V251.119Z"
          fill="#231F20"/>
    <path d="M289.82 182.348L183.628 208.512L188.324 227.607L294.516 201.442L289.82 182.348Z" fill="white"/>
    <path d="M198.22 219.069C200.044 219.069 201.524 217.588 201.524 215.762C201.524 213.936 200.044 212.455 198.22 212.455C196.395 212.455 194.916 213.936 194.916 215.762C194.916 217.588 196.395 219.069 198.22 219.069Z"
          fill="#1CBCC8"/>
    <path d="M210.341 216.094C212.165 216.094 213.645 214.614 213.645 212.788C213.645 210.961 212.165 209.481 210.341 209.481C208.516 209.481 207.037 210.961 207.037 212.788C207.037 214.614 208.516 216.094 210.341 216.094Z"
          fill="#1CBCC8"/>
    <path d="M222.442 213.101C224.267 213.101 225.746 211.62 225.746 209.794C225.746 207.968 224.267 206.487 222.442 206.487C220.617 206.487 219.138 207.968 219.138 209.794C219.138 211.62 220.617 213.101 222.442 213.101Z"
          fill="#1CBCC8"/>
    <path d="M234.563 210.127C236.388 210.127 237.867 208.646 237.867 206.82C237.867 204.994 236.388 203.513 234.563 203.513C232.738 203.513 231.259 204.994 231.259 206.82C231.259 208.646 232.738 210.127 234.563 210.127Z"
          fill="#1CBCC8"/>
    <path d="M297.464 213.486L191.271 239.65L195.968 258.745L302.16 232.58L297.464 213.486Z" fill="white"/>
    <path d="M205.864 250.199C207.689 250.199 209.168 248.718 209.168 246.892C209.168 245.066 207.689 243.585 205.864 243.585C204.039 243.585 202.56 245.066 202.56 246.892C202.56 248.718 204.039 250.199 205.864 250.199Z"
          fill="#1CBCC8"/>
    <path d="M217.985 247.205C219.81 247.205 221.289 245.725 221.289 243.899C221.289 242.072 219.81 240.592 217.985 240.592C216.16 240.592 214.681 242.072 214.681 243.899C214.681 245.725 216.16 247.205 217.985 247.205Z"
          fill="#1CBCC8"/>
    <path d="M230.106 244.231C231.931 244.231 233.41 242.751 233.41 240.924C233.41 239.098 231.931 237.618 230.106 237.618C228.281 237.618 226.802 239.098 226.802 240.924C226.802 242.751 228.281 244.231 230.106 244.231Z"
          fill="#1CBCC8"/>
    <path d="M242.207 241.257C244.032 241.257 245.511 239.777 245.511 237.95C245.511 236.124 244.032 234.644 242.207 234.644C240.383 234.644 238.903 236.124 238.903 237.95C238.903 239.777 240.383 241.257 242.207 241.257Z"
          fill="#1CBCC8"/>
    <path d="M243.902 123.885L196.672 135.522L204.089 165.675L251.319 154.038L243.902 123.885Z" fill="white"/>
    <path d="M209.07 135.949C208.904 135.946 208.742 135.899 208.601 135.812C208.401 135.687 208.255 135.492 208.19 135.265L205.883 125.873C205.472 124.207 205.393 122.477 205.651 120.782C205.909 119.086 206.499 117.458 207.387 115.991C208.276 114.524 209.444 113.247 210.827 112.233C212.209 111.219 213.778 110.488 215.443 110.082C218.801 109.255 222.348 109.797 225.307 111.587C228.266 113.378 230.392 116.271 231.22 119.631L233.527 129.023C233.581 129.251 233.543 129.491 233.423 129.692C233.302 129.893 233.108 130.039 232.882 130.099L209.285 135.969L209.07 135.949ZM218.571 111.53C217.663 111.528 216.757 111.633 215.873 111.843C214.432 112.198 213.074 112.834 211.879 113.715C210.684 114.596 209.674 115.705 208.907 116.977C208.141 118.25 207.633 119.661 207.413 121.131C207.192 122.6 207.264 124.098 207.623 125.54L209.715 134.071L231.592 128.671L229.5 120.159C228.911 117.701 227.513 115.513 225.531 113.948C223.548 112.383 221.097 111.531 218.571 111.53Z"
          fill="white"/>
    <path d="M222.833 144.754C225.403 144.754 227.486 142.669 227.486 140.097C227.486 137.525 225.403 135.44 222.833 135.44C220.263 135.44 218.18 137.525 218.18 140.097C218.18 142.669 220.263 144.754 222.833 144.754Z"
          fill="#1CBCC8"/>
    <path d="M224.307 140.638L221.782 141.26L224.376 151.805L226.9 151.183L224.307 140.638Z" fill="#1CBCC8"/>
    <path d="M232.745 183.477H232.51H232.159L231.513 183.32C216.319 180.801 202.333 173.47 191.612 162.404C186.537 157.017 182.406 150.812 179.393 144.05C177.666 140.291 176.355 136.354 175.483 132.31C175.353 131.828 175.412 131.314 175.648 130.873C175.884 130.433 176.28 130.1 176.754 129.942C177.555 129.59 178.416 129.16 179.452 128.592C183.59 126.534 186.785 122.971 188.386 118.633C189.522 115.432 189.577 111.947 188.543 108.713C188.451 108.478 188.41 108.227 188.422 107.976C188.433 107.725 188.497 107.479 188.61 107.254C188.722 107.029 188.88 106.831 189.074 106.671C189.268 106.511 189.493 106.393 189.735 106.325L195.385 103.704C197.79 102.647 200.214 101.571 202.658 100.553C207.721 98.3299 213.083 96.8599 218.571 96.1899C222.481 95.779 226.391 95.466 230.301 95.1725L236.44 94.7029C236.659 94.6607 236.883 94.663 237.101 94.7095C237.319 94.756 237.525 94.8457 237.707 94.9735C237.89 95.1012 238.044 95.2644 238.163 95.4531C238.281 95.6419 238.36 95.8526 238.395 96.0725L238.61 96.8943C238.821 97.8573 239.115 98.8001 239.49 99.7119C240.338 101.662 241.567 103.423 243.105 104.892C244.642 106.36 246.457 107.506 248.444 108.263C251.605 109.447 254.994 109.902 258.356 109.593C258.663 109.534 258.98 109.539 259.285 109.607C259.591 109.675 259.88 109.804 260.134 109.987C260.389 110.17 260.603 110.403 260.764 110.672C260.926 110.94 261.031 111.239 261.073 111.55C262.795 117.867 263.456 124.426 263.028 130.96C262.011 148.726 254.543 164.223 240.839 177.333C239.373 178.703 237.828 180.014 236.323 181.246L234.231 183.007C234.117 183.105 233.984 183.178 233.84 183.222L232.901 183.438L232.745 183.477ZM190.498 108.008C191.627 111.639 191.551 115.538 190.282 119.122C188.533 123.899 185.041 127.836 180.507 130.138C179.582 130.671 178.629 131.154 177.653 131.586C177.57 131.615 177.491 131.654 177.419 131.703C178.311 135.641 179.588 139.482 181.231 143.169C184.15 149.735 188.162 155.756 193.098 160.975C203.532 171.733 217.142 178.852 231.924 181.285C232.198 181.285 232.452 181.403 232.706 181.461H232.804H233.273L235.228 179.818C236.714 178.585 238.258 177.294 239.666 175.905C252.999 163.264 260.271 148.1 261.171 130.901C261.558 124.581 260.898 118.241 259.216 112.137C259.189 111.976 259.13 111.823 259.04 111.687C258.859 111.649 258.673 111.649 258.492 111.687C254.837 112.009 251.157 111.507 247.72 110.219C243.255 108.48 239.662 105.039 237.73 100.651C237.316 99.6356 236.982 98.5888 236.733 97.5205L236.538 96.7965L230.399 97.2857C226.606 97.5792 222.579 97.8922 218.825 98.3031C213.519 98.9581 208.336 100.382 203.44 102.53C201.015 103.547 198.611 104.584 196.206 105.641C194.316 106.475 192.42 107.297 190.517 108.106L190.498 108.008Z"
          fill="white"/>
    <path d="M123.187 368.91C123.187 368.91 138.455 241.081 153.411 227.091C171.202 210.479 187.409 199.209 190.38 208.698C193.352 218.188 196.108 234.018 171.788 251.745L175.346 283.384C175.346 283.384 199.295 299.996 186.822 352.2"
          fill="white"/>
    <path d="M123.187 369.81H123.05C122.814 369.781 122.6 369.66 122.454 369.473C122.307 369.286 122.24 369.048 122.268 368.812C122.894 363.588 137.752 240.514 152.786 226.465C169.99 210.401 181.661 202.985 187.448 204.57C188.367 204.824 189.202 205.321 189.862 206.01C190.523 206.699 190.986 207.553 191.201 208.483C197.946 230.007 184.984 243.214 172.727 252.273L176.187 283.013C179.198 285.322 199.451 303.01 187.663 352.455C187.638 352.57 187.589 352.679 187.521 352.775C187.453 352.872 187.366 352.953 187.266 353.015C187.166 353.077 187.054 353.119 186.937 353.137C186.821 353.155 186.702 353.149 186.588 353.12C186.36 353.06 186.165 352.915 186.041 352.715C185.917 352.514 185.875 352.274 185.923 352.044C198.102 301.014 175.053 284.402 174.818 284.245C174.717 284.168 174.631 284.071 174.567 283.96C174.504 283.849 174.463 283.727 174.447 283.6L170.889 251.96C170.871 251.805 170.894 251.647 170.956 251.503C171.017 251.358 171.116 251.233 171.241 251.139C193.899 234.546 192.902 219.832 189.5 209.012C189.361 208.379 189.056 207.796 188.616 207.321C188.176 206.847 187.617 206.498 186.998 206.311C181.974 204.981 170.263 212.612 154.017 227.835C139.452 241.434 124.203 367.815 124.047 369.086C124.011 369.289 123.905 369.472 123.748 369.604C123.59 369.736 123.392 369.809 123.187 369.81Z"
          fill="#231F20"/>
    <path d="M47.2938 454.338L105.846 383.233L226.802 436.63L191.162 515.269L47.2938 454.338Z" fill="#231F20"/>
    <path d="M497.159 429.214C497.159 429.214 451.646 339.58 417.356 299.194C412.664 293.676 406.701 292.757 402.478 295.613C397.512 298.979 397.317 310.269 397.317 310.269C397.317 310.269 384.297 302.716 378.06 304.281C371.824 305.847 371.1 315.728 371.1 315.728C371.1 315.728 357.2 311.13 351.55 316.08C345.9 321.03 345.685 330.051 345.685 330.051C345.685 330.051 272.392 271.096 264.318 266.107C256.244 261.117 241.758 270.02 248.913 280.43C253.351 286.926 290.339 323.789 302.304 335.51C314.269 347.23 342.108 379.026 345.314 388.34C348.52 397.653 351.081 408.356 332.079 409.667C313.076 410.978 296.165 414.363 287.837 421.407C279.509 428.451 274.035 439.115 278.199 441.209C282.363 443.302 349.537 435.613 375.049 446.022C400.562 456.432 433.699 494.508 433.699 494.508L497.159 429.214Z"
          fill="white"/>
    <path d="M433.68 495.565C433.543 495.561 433.409 495.53 433.284 495.472C433.16 495.415 433.049 495.334 432.957 495.232C432.624 494.841 399.604 457.214 374.619 447.02C357.142 439.878 319.391 441.346 296.83 442.226C284.611 442.696 279.235 442.872 277.71 442.226C277.16 441.951 276.691 441.537 276.349 441.026C276.006 440.516 275.801 439.924 275.755 439.311C275.227 434.85 280.33 426.553 287.114 420.82C294.719 414.402 309.792 410.391 331.942 408.865C338.687 408.396 343.124 406.674 345.099 403.719C347.66 399.806 346.116 394.268 344.317 388.829C341.306 379.828 314.093 348.541 301.62 336.331C289.147 324.122 252.588 287.63 248.17 281.016C246.686 279.138 245.942 276.78 246.079 274.389C246.216 271.998 247.224 269.74 248.913 268.044C252.549 264.248 259.665 262.174 264.885 265.304C272.392 269.903 334.249 319.602 344.845 328.133C345.272 323.289 347.414 318.758 350.886 315.356C356.027 310.895 366.799 313.399 370.436 314.456C370.846 311.619 372.391 304.673 377.982 303.323C383.573 301.972 392.996 306.727 396.574 308.645C396.848 305.299 397.903 297.648 402.087 294.811C407.014 291.465 413.504 292.972 418.255 298.568C452.233 338.562 497.726 427.864 498.195 428.764C498.283 428.949 498.314 429.157 498.282 429.359C498.251 429.562 498.159 429.75 498.019 429.899L434.54 495.271C434.427 495.38 434.291 495.463 434.143 495.514C433.994 495.564 433.836 495.582 433.68 495.565ZM327.074 439.507C345.275 439.507 364.219 440.661 375.323 445.2C399.018 454.866 428.656 487.464 433.719 493.139L495.966 429.038C491.841 420.996 448.949 337.897 416.593 299.898C412.546 295.124 407.092 293.754 403.026 296.494C399.311 299.037 398.353 307.353 398.294 310.367C398.292 310.534 398.246 310.699 398.16 310.843C398.074 310.987 397.952 311.106 397.806 311.188C397.657 311.274 397.489 311.319 397.317 311.319C397.145 311.319 396.977 311.274 396.828 311.188C396.691 311.188 384.082 303.851 378.295 305.318C372.821 306.688 372.097 315.806 372.078 315.884C372.067 316.032 372.023 316.175 371.949 316.303C371.875 316.431 371.773 316.54 371.651 316.623C371.529 316.706 371.389 316.76 371.243 316.781C371.097 316.802 370.948 316.79 370.807 316.745C370.67 316.745 357.357 312.401 352.117 316.921C346.878 321.441 346.585 330.07 346.585 330.168C346.577 330.35 346.521 330.526 346.421 330.677C346.321 330.829 346.182 330.951 346.018 331.029C345.855 331.108 345.672 331.138 345.492 331.117C345.313 331.097 345.142 331.025 345.001 330.911C344.258 330.324 271.728 271.938 263.81 267.065C259.431 264.385 253.37 266.244 250.281 269.492C248.899 270.859 248.075 272.693 247.97 274.636C247.866 276.578 248.487 278.49 249.714 279.999C254.055 286.358 290.769 323.046 302.988 334.942C314.19 345.919 342.831 378.243 346.174 388.222C348.129 394.092 349.791 400.256 346.722 404.815C344.356 408.356 339.566 410.333 332.059 410.841C310.339 412.328 295.657 416.203 288.384 422.327C281.601 428.06 277.3 435.769 277.691 439.096C277.693 439.386 277.774 439.671 277.926 439.919C278.077 440.167 278.293 440.37 278.551 440.504C279.665 441.033 287.954 440.7 296.732 440.367C305.51 440.035 316.048 439.507 327.074 439.507Z"
          fill="#231F20"/>
    <path d="M490.551 403.308L398.079 478.796L443.944 546.732L550.706 457.997L490.551 403.308Z" fill="#231F20"/>
    <path d="M198.083 462.517C197.947 462.544 197.808 462.544 197.672 462.517L97.1267 415.557C96.9957 415.514 96.8754 415.443 96.7737 415.35C96.6719 415.256 96.5911 415.143 96.5364 415.016C96.4818 414.889 96.4546 414.752 96.4566 414.614C96.4586 414.476 96.4898 414.34 96.5482 414.214C96.6065 414.089 96.6907 413.978 96.7951 413.888C96.8996 413.797 97.0219 413.73 97.1542 413.691C97.2864 413.651 97.4254 413.64 97.5622 413.658C97.699 413.676 97.8305 413.723 97.9478 413.796L198.493 460.756C198.611 460.811 198.716 460.888 198.804 460.984C198.891 461.079 198.958 461.191 199.002 461.313C199.046 461.435 199.065 461.565 199.058 461.694C199.051 461.823 199.019 461.95 198.963 462.067C198.871 462.215 198.74 462.335 198.585 462.414C198.43 462.494 198.257 462.529 198.083 462.517Z"
          fill="white"/>
    <path d="M417.532 491.123C417.38 491.122 417.231 491.086 417.095 491.018C416.96 490.95 416.842 490.852 416.75 490.732C416.594 490.524 416.527 490.263 416.564 490.007C416.601 489.75 416.738 489.518 416.945 489.362L496.572 428.51C496.777 428.352 497.036 428.282 497.293 428.315C497.549 428.348 497.782 428.481 497.941 428.686C498.098 428.891 498.168 429.151 498.135 429.407C498.102 429.664 497.969 429.897 497.765 430.056L418.118 491.025C417.938 491.121 417.733 491.155 417.532 491.123Z"
          fill="white"/>
</svg>
