<svg width="292" height="626" viewBox="0 0 292 626" fill="none" xmlns="http://www.w3.org/2000/svg">
    <path d="M220.445 552.921L259.378 372.384L272.356 282.62C272.356 282.62 177.437 182.366 150.436 149.921C123.435 117.477 93.3694 70.6119 78.7333 73.532C64.0971 76.452 60.7084 92.8186 69.5046 113.511C73.1095 122.019 78.6972 131.536 81.0765 140.26C83.0232 147.47 81.6172 167.225 74.6236 171.984C66.224 177.68 59.4467 148.479 48.8841 153.238C43.3325 155.761 37.4203 169.568 41.6742 184.781C44.2346 192.09 47.5067 199.13 51.4436 205.798C59.5188 219.822 59.2664 228.438 64.2052 243.687C69.1441 258.936 68.6033 238.387 62.8353 252.411C55.8777 269.426 46.1804 289.253 45.1349 307.927C43.4766 337.776 77.5797 387.453 91.7112 411.57C105.843 435.687 75.2364 502.091 75.2364 502.091L220.445 552.921Z"
          fill="white"/>
    <path d="M220.444 554.723C220.254 554.761 220.058 554.761 219.868 554.723L74.371 503.712C74.1362 503.626 73.922 503.492 73.742 503.318C73.562 503.144 73.4202 502.935 73.3255 502.703C73.2194 502.478 73.1644 502.231 73.1644 501.982C73.1644 501.733 73.2194 501.487 73.3255 501.261C73.6499 500.612 103.247 435.434 89.9084 412.399C87.6012 408.433 84.7532 403.783 81.653 398.664C65.719 372.636 41.6738 333.269 43.1158 307.782C43.981 291.668 51.191 274.689 57.5357 259.728C58.6893 256.988 59.8429 254.285 60.9244 251.653C61.5125 250.062 62.3128 248.559 63.3037 247.183C62.9432 246.318 62.6187 245.308 62.2221 244.155C60.5638 238.963 59.4824 234.601 58.6172 230.42C56.9444 222.073 53.9637 214.043 49.785 206.627C45.7899 199.749 42.4583 192.506 39.8353 184.997C35.4372 168.739 41.818 154.211 48.1628 151.363C54.5075 148.515 60.0232 155.689 64.4573 162.178C66.0237 164.777 67.8735 167.195 69.9729 169.388C71.9196 171.19 72.8929 170.757 73.5779 170.253C79.5982 166.179 81.1483 147.361 79.2737 140.548C77.3969 134.563 74.9838 128.759 72.0637 123.208C70.5857 120.144 69.0716 117.007 67.8099 114.015C62.114 100.533 61.2849 88.7804 65.5388 80.7413C66.8325 78.3333 68.657 76.2511 70.8741 74.6523C73.0913 73.0534 75.643 71.9798 78.3363 71.5126C90.3769 69.1693 109.303 93.7913 131.185 122.343C137.999 131.211 145.028 140.368 151.806 148.551C178.446 180.996 272.788 280.312 273.726 281.322C273.918 281.52 274.064 281.759 274.151 282.021C274.238 282.283 274.266 282.562 274.231 282.836L261.217 372.6L222.283 553.245C222.229 553.497 222.12 553.734 221.964 553.939C221.808 554.145 221.61 554.314 221.382 554.434C221.113 554.637 220.781 554.739 220.444 554.723ZM77.4351 500.865L219.111 550.541L257.612 372.023L270.553 283.305C262.406 274.725 174.661 182.005 149.066 151.002C142.253 142.747 135.187 133.554 128.373 124.686C108.979 99.4511 88.899 73.3151 79.0935 75.2257C76.9257 75.5362 74.8608 76.35 73.0641 77.6021C71.2675 78.8541 69.7891 80.5095 68.7472 82.4356C65.1423 89.3572 65.9713 100.46 71.1625 112.609C72.3882 115.493 73.8302 118.485 75.3443 121.622C78.3714 127.392 80.8691 133.425 82.8066 139.647C84.7893 146.856 83.5997 167.909 75.5966 173.317C74.3416 174.171 72.8114 174.523 71.3091 174.303C69.8069 174.083 68.4422 173.306 67.4855 172.127C65.1687 169.769 63.125 167.157 61.3931 164.341C56.8508 157.671 53.354 153.021 49.5688 154.751C45.0986 156.77 39.2585 169.496 43.2601 184.168C45.7636 191.331 48.9759 198.227 52.8493 204.752C57.1819 212.467 60.2834 220.811 62.0419 229.482C63.0513 233.628 64.0968 237.918 65.6469 242.965C65.9713 243.938 66.2598 244.731 66.4761 245.344H66.7644C67.4971 245.608 68.1249 246.101 68.5538 246.751C68.9827 247.401 69.1896 248.172 69.1437 248.949C69.187 249.509 69.0183 250.064 68.671 250.505C68.3237 250.946 67.8233 251.24 67.2692 251.329C66.9473 251.395 66.6143 251.388 66.2958 251.307C65.9772 251.225 65.6813 251.073 65.4306 250.86C65.0425 251.58 64.7052 252.327 64.4212 253.095C63.3037 255.727 62.15 258.43 60.9965 261.206C54.7599 275.914 47.6941 292.569 46.8289 308.071C45.4951 332.476 69.1798 371.23 84.8614 396.897C87.9978 402.052 90.8457 406.703 93.1528 410.704C106.239 433.127 82.41 489.797 77.5433 500.865H77.4351Z"
          fill="#231F20"/>
    <path d="M10.9543 345.942L160.674 398.432C166.724 400.553 173.348 397.368 175.469 391.318L287.724 71.1254C289.845 65.0755 286.66 58.4516 280.611 56.3306L130.89 3.84066C124.84 1.71964 118.217 4.90463 116.096 10.9545L3.84039 331.147C1.71938 337.197 4.90436 343.821 10.9543 345.942Z"
          fill="white"/>
    <path d="M164.567 400.825C163.057 400.823 161.558 400.567 160.133 400.068L10.3828 347.543C7.03322 346.359 4.28859 343.897 2.74852 340.695C1.20845 337.493 0.998122 333.812 2.16346 330.456L114.458 10.2624C115.657 6.92601 118.125 4.19811 121.325 2.67231C124.526 1.14651 128.199 0.946271 131.546 2.11514L281.296 54.6396C282.959 55.2138 284.491 56.1121 285.804 57.2824C287.117 58.4527 288.185 59.8718 288.946 61.4576C289.707 63.0434 290.146 64.7644 290.238 66.5209C290.329 68.2775 290.072 70.0348 289.48 71.6911L177.185 391.848C176.602 393.511 175.698 395.041 174.522 396.353C173.347 397.664 171.924 398.731 170.335 399.491C168.533 400.352 166.564 400.807 164.567 400.825ZM11.5724 344.155L161.323 396.643C162.534 397.076 163.82 397.264 165.104 397.197C166.389 397.13 167.648 396.809 168.808 396.253C169.968 395.696 171.006 394.915 171.862 393.955C172.718 392.995 173.376 391.875 173.796 390.659L286.091 70.6096C286.945 68.1617 286.795 65.4752 285.673 63.1377C284.552 60.8002 282.55 59.002 280.107 58.1364L130.32 5.43171C127.868 4.57933 125.177 4.73445 122.839 5.86305C120.501 6.99165 118.705 9.00158 117.847 11.452L5.58811 331.682C4.734 334.129 4.88405 336.816 6.00551 339.153C7.12697 341.491 9.12856 343.289 11.5724 344.155Z"
          fill="#231F20"/>
    <path d="M179.095 352.843C178.893 352.877 178.685 352.877 178.483 352.843L24.8748 298.985C24.4256 298.822 24.0593 298.488 23.8565 298.055C23.6538 297.622 23.6311 297.127 23.7934 296.678L116.117 33.5148C116.187 33.288 116.304 33.0782 116.459 32.8983C116.614 32.7185 116.804 32.5725 117.018 32.4694C117.472 32.3071 117.969 32.3071 118.424 32.4694L271.995 86.3276C272.445 86.491 272.814 86.8235 273.023 87.2543C273.231 87.6852 273.264 88.1804 273.113 88.6348L180.79 351.798C180.637 352.25 180.313 352.625 179.889 352.843C179.627 352.893 179.357 352.893 179.095 352.843ZM27.6867 296.065L177.87 348.733L269.112 88.8511L118.929 36.1825L27.6867 296.065Z"
          fill="#D1D3D4"/>
    <path d="M104.689 368.344C103.696 368.35 102.709 368.192 101.769 367.876L72.6404 357.601C70.412 356.817 68.5847 355.182 67.5579 353.054C66.5312 350.926 66.3885 348.479 67.1609 346.246L71.0903 335.07C71.8747 332.833 73.5154 331 75.6516 329.972C77.7878 328.944 80.2447 328.807 82.482 329.591L111.682 339.829C113.919 340.613 115.753 342.254 116.781 344.39C117.808 346.527 117.945 348.983 117.162 351.221L113.232 362.396C112.617 364.162 111.46 365.688 109.925 366.756C108.391 367.824 106.558 368.38 104.689 368.344ZM79.4538 332.691C78.3431 332.696 77.2613 333.046 76.3575 333.692C75.4536 334.337 74.7721 335.247 74.4068 336.296L70.5135 347.472C70.2796 348.129 70.1781 348.827 70.2147 349.524C70.2513 350.222 70.4254 350.905 70.7269 351.535C71.0284 352.164 71.4513 352.728 71.9715 353.194C72.4917 353.66 73.0988 354.018 73.7579 354.249L102.994 364.487C104.324 364.949 105.781 364.868 107.051 364.26C108.32 363.652 109.298 362.568 109.772 361.242L113.701 350.067C114.163 348.728 114.077 347.261 113.463 345.985C112.849 344.709 111.755 343.728 110.421 343.254L81.2202 333.016C80.6395 332.816 80.0316 332.707 79.4178 332.691H79.4538Z"
          fill="#D1D3D4"/>
    <path d="M231.259 57.9932C231.069 58.0277 230.873 58.0277 230.683 57.9932L186.918 42.6721C186.469 42.5094 186.103 42.175 185.9 41.7424C185.697 41.3098 185.674 40.8143 185.837 40.3649C185.992 39.9176 186.318 39.5496 186.743 39.3405C187.168 39.1313 187.658 39.0979 188.108 39.2474L231.872 54.6046C232.35 54.6858 232.776 54.9537 233.057 55.3492C233.338 55.7447 233.449 56.2354 233.368 56.7135C233.287 57.1915 233.019 57.6177 232.624 57.8983C232.228 58.1788 231.737 58.2908 231.259 58.2095V57.9932Z"
          fill="#D1D3D4"/>
    <path d="M181.691 39.9691H181.078L175.238 37.9143C174.996 37.8522 174.77 37.7405 174.573 37.5863C174.376 37.4321 174.214 37.2386 174.096 37.0183C173.978 36.798 173.908 36.5555 173.888 36.3064C173.869 36.0573 173.902 35.8069 173.985 35.5712C174.068 35.3354 174.199 35.1194 174.369 34.9369C174.54 34.7544 174.747 34.6095 174.976 34.5111C175.206 34.4128 175.454 34.3633 175.703 34.3658C175.953 34.3683 176.2 34.4227 176.428 34.5256L182.304 36.5804C182.541 36.6207 182.767 36.7071 182.97 36.8349C183.173 36.9626 183.35 37.1292 183.489 37.325C183.628 37.5209 183.727 37.7421 183.78 37.9762C183.833 38.2103 183.84 38.4526 183.8 38.6893C183.76 38.926 183.673 39.1525 183.545 39.3558C183.418 39.5591 183.251 39.7352 183.055 39.8741C182.859 40.013 182.638 40.112 182.404 40.1654C182.17 40.2188 181.928 40.2256 181.691 40.1854V39.9691Z"
          fill="#D1D3D4"/>
    <path d="M146.507 257.204C177.386 257.204 202.42 232.17 202.42 201.291C202.42 170.411 177.386 145.377 146.507 145.377C115.627 145.377 90.5935 170.411 90.5935 201.291C90.5935 232.17 115.627 257.204 146.507 257.204Z"
          fill="#1CBCC8"/>
    <path d="M90.0163 184.529C89.0886 187.584 87.2541 190.286 84.7562 192.275C82.2582 194.265 79.2147 195.448 76.029 195.668C68.1058 196.336 60.2202 194.008 53.9305 189.143C50.3022 186.418 47.2512 182.999 44.9542 179.085C42.9935 176.193 41.7627 172.869 41.3672 169.397C40.9716 165.925 41.4232 162.409 42.683 159.15C47.2974 149.885 62.0418 148.335 74.4789 154.247C86.123 159.871 92.2875 175.805 90.0163 184.529Z"
          fill="white"/>
    <path d="M73.0733 197.651C65.7381 197.452 58.6559 194.927 52.8494 190.441C49.035 187.567 45.815 183.98 43.3684 179.878C41.2437 176.736 39.9251 173.119 39.5291 169.347C39.133 165.575 39.6715 161.763 41.0972 158.248C46 148.371 61.3211 145.811 75.2724 152.516C87.5293 158.429 94.3066 175.047 91.7831 184.961C90.7685 188.377 88.7387 191.402 85.9635 193.637C83.1883 195.871 79.7989 197.208 76.2457 197.47C75.192 197.585 74.1331 197.645 73.0733 197.651ZM59.5546 152.516C52.6331 152.516 46.721 155.112 44.3057 159.943C43.1548 162.932 42.7534 166.157 43.1368 169.337C43.5201 172.516 44.6764 175.554 46.5047 178.184C48.6823 181.888 51.5742 185.123 55.0123 187.701C60.9238 192.302 68.3475 194.514 75.8131 193.901C78.6406 193.705 81.3434 192.661 83.5685 190.906C85.7936 189.15 87.4377 186.764 88.2863 184.06C90.2329 176.489 85.0057 161.313 73.8664 155.869C69.4079 153.692 64.5164 152.546 59.5546 152.516Z"
          fill="#231F20"/>
    <path d="M51.5516 249.021C47.9429 249.061 44.379 248.22 41.1693 246.57C36.9353 244.069 33.3336 240.628 30.6428 236.512C24.3341 227.896 21.5943 220.578 22.0269 213.476C22.4427 209.604 23.7494 205.88 25.8445 202.596C27.9397 199.313 30.7665 196.559 34.1036 194.55C36.4553 193.068 39.1465 192.21 41.9222 192.059C44.698 191.908 47.4664 192.467 49.9654 193.685C60.0954 198.732 71.8837 215.964 74.4432 226.526C75.123 228.975 75.236 231.546 74.7738 234.044C74.3116 236.543 73.2862 238.903 71.7756 240.946C69.7993 243.203 67.3331 244.979 64.5656 246.137C60.4798 248.006 56.0445 248.989 51.5516 249.021ZM43.0079 195.632C40.4631 195.653 37.9717 196.363 35.7979 197.686C32.9532 199.365 30.5419 201.688 28.7576 204.468C26.9733 207.248 25.8657 210.407 25.5237 213.693C25.1272 219.929 27.6507 226.49 33.4186 234.385C35.8265 238.03 39.0006 241.106 42.7195 243.397C45.9085 244.817 49.3764 245.499 52.8653 245.393C56.3543 245.287 59.7745 244.395 62.8713 242.785C65.1805 241.904 67.2448 240.482 68.8915 238.639C70.0433 237.032 70.814 235.185 71.1451 233.236C71.4761 231.287 71.3588 229.288 70.8021 227.391C68.495 217.73 57.3917 201.472 48.2711 196.929C46.6404 196.096 44.8389 195.652 43.0079 195.632Z"
          fill="#231F20"/>
    <path d="M37.0596 289.757C34.6926 289.746 32.3344 289.468 30.0298 288.928C25.8165 287.993 21.8474 286.181 18.3814 283.609C14.9154 281.038 12.0304 277.765 9.91414 274.003C7.82415 270.155 6.78074 265.826 6.88828 261.448C6.99583 257.071 8.2505 252.798 10.5269 249.057C12.1764 246.205 14.5317 243.825 17.3662 242.146C20.2008 240.467 23.4195 239.544 26.7133 239.468C37.8166 239.143 50.0735 248.336 56.3101 257.493C58.2828 260.175 59.6258 263.268 60.2395 266.541C60.7401 270.294 60.1497 274.112 58.5388 277.538C56.9278 280.965 54.3645 283.855 51.155 285.864C46.9351 288.505 42.0367 289.858 37.0596 289.757ZM27.0737 242.893H26.7854C24.0797 242.945 21.4348 243.704 19.1137 245.096C16.7926 246.487 14.8762 248.462 13.5551 250.824C11.6444 254.032 10.5971 257.681 10.5149 261.414C10.4328 265.148 11.3188 268.839 13.0865 272.129C14.9563 275.435 17.5024 278.309 20.5586 280.564C23.6149 282.819 27.1125 284.404 30.8229 285.215C33.9073 286.031 37.1245 286.219 40.283 285.767C43.4415 285.315 46.4768 284.232 49.2083 282.583C51.8046 280.928 53.8841 278.578 55.2098 275.799C56.5355 273.02 57.054 269.925 56.7066 266.866C56.1508 264.118 55.0071 261.523 53.354 259.259C47.6942 251.256 36.8792 243.037 27.0737 243.037V242.893Z"
          fill="#231F20"/>
    <path d="M257.684 377.466C257.684 377.466 288.795 285.359 284.469 263.441C280.143 241.522 273.221 153.165 264.317 149.451C255.413 145.738 236.45 170.108 235.838 197.506C235.456 213.665 237.56 229.787 242.074 245.308C242.074 245.308 211.576 257.456 205.556 331.106"
          fill="white"/>
    <path d="M257.684 379.269H257.107C256.657 379.105 256.288 378.773 256.08 378.342C255.871 377.911 255.839 377.416 255.989 376.961C256.314 376.06 286.884 285.071 282.702 263.838C281.368 257.024 279.782 244.082 277.98 229.05C274.771 202.625 268.823 153.345 263.56 151.182C262.572 150.962 261.546 150.974 260.564 151.218C259.582 151.462 258.67 151.931 257.9 152.588C249.681 157.924 238.073 176.525 237.604 197.614C237.198 213.556 239.216 229.467 243.588 244.803C243.722 245.239 243.689 245.709 243.496 246.122C243.303 246.535 242.963 246.862 242.543 247.038C242.254 247.038 212.946 259.944 207.142 331.323C207.104 331.801 206.877 332.244 206.512 332.555C206.147 332.866 205.673 333.019 205.195 332.981C204.717 332.943 204.274 332.716 203.963 332.351C203.652 331.986 203.499 331.512 203.537 331.034C208.872 265.568 233.278 248.12 239.587 244.515C235.431 229.251 233.512 213.465 233.891 197.65C234.36 176.525 245.643 156.265 255.845 149.668C257.075 148.634 258.55 147.935 260.129 147.638C261.708 147.341 263.337 147.457 264.858 147.974C270.95 150.497 274.915 174.939 281.404 228.725C283.207 243.686 284.793 256.592 286.091 263.261C290.453 285.431 260.532 374.438 259.27 378.223C259.129 378.528 258.906 378.787 258.626 378.972C258.345 379.157 258.019 379.259 257.684 379.269Z"
          fill="#231F20"/>
    <path d="M117.739 223.389C116.683 223.404 115.637 223.186 114.674 222.752C113.712 222.318 112.857 221.677 112.169 220.876C111.481 220.075 110.978 219.133 110.694 218.115C110.411 217.098 110.354 216.031 110.529 214.99L115.828 183.05C115.931 182.073 116.233 181.128 116.715 180.272C117.196 179.416 117.848 178.668 118.629 178.073C119.411 177.478 120.305 177.049 121.258 176.812C122.211 176.575 123.203 176.535 124.172 176.695C125.14 176.855 126.067 177.211 126.893 177.741C127.719 178.272 128.429 178.966 128.978 179.78C129.526 180.595 129.903 181.513 130.084 182.478C130.265 183.443 130.247 184.435 130.032 185.393L126.643 205.941L176.536 190.909C178.367 190.345 180.347 190.531 182.04 191.427C183.734 192.322 185.002 193.854 185.566 195.685C186.13 197.516 185.944 199.496 185.048 201.19C184.152 202.883 182.621 204.152 180.79 204.716L119.793 223.065C119.128 223.272 118.436 223.381 117.739 223.389Z"
          fill="white"/>
    <path d="M216.191 623.902L245.139 477.792L85.114 433.74L24.1539 623.902H216.191Z" fill="#231F20"/>
    <path d="M216.19 625.777H24.1177C23.8383 625.775 23.5632 625.708 23.3134 625.583C23.0635 625.458 22.8455 625.278 22.6757 625.056C22.5133 624.823 22.4062 624.555 22.3625 624.274C22.3188 623.993 22.3396 623.706 22.4233 623.434L83.4555 433.2C83.6045 432.761 83.9138 432.394 84.3216 432.174C84.7294 431.953 85.2054 431.895 85.6544 432.01L245.679 476.063C246.12 476.182 246.499 476.464 246.74 476.852C246.981 477.241 247.066 477.706 246.977 478.154L218.137 624.263C218.058 624.712 217.815 625.115 217.455 625.395C217.096 625.675 216.645 625.811 216.19 625.777ZM26.6051 622.172H214.712L243.047 479.127L86.3034 435.867L26.6051 622.172Z"
          fill="#231F20"/>
</svg>
