<svg width="409" height="492" viewBox="0 0 409 492" fill="none" xmlns="http://www.w3.org/2000/svg">
    <path d="M364.024 438.158C369.635 408.909 295.135 370.034 197.624 351.327C100.113 332.619 16.5153 341.165 10.9041 370.413C5.29292 399.662 79.7927 438.538 177.304 457.245C274.815 475.952 358.413 467.406 364.024 438.158Z"
          fill="#D1D3D4"/>
    <path d="M219.326 116.976C219.326 116.976 278.633 130.564 289.619 128.366C304.373 125.407 319.127 115.474 332.221 108.433C345.854 101.079 359.128 93.2535 372.738 85.6748C380.72 81.1904 388.837 76.863 396.886 72.4459C397.72 71.9292 398.638 71.5647 399.599 71.3696C400.401 71.3033 401.209 71.3947 401.976 71.6387C403.063 71.92 404.069 72.4518 404.914 73.1915C405.759 73.9312 406.419 74.8584 406.842 75.8988C408.052 79.4639 404.599 82.6254 402.2 84.8676C395.19 91.385 387.97 97.693 380.541 103.792L393.231 102.738C393.545 102.637 393.882 102.637 394.196 102.738C395.07 103.186 394.644 104.509 394.039 105.249C391.685 107.685 388.777 109.516 385.563 110.586C375.428 114.779 367.289 117.469 358.657 123.882C350.944 129.532 343.096 135.093 335.069 140.183C322.647 148.187 302.579 163.3 286.682 160.632L212.689 148.165"
          fill="white"/>
    <path d="M290.293 162.066C288.925 162.067 287.56 161.955 286.212 161.73L212.219 149.285L212.6 147.043L286.593 159.487C300.158 161.73 317.042 150.519 329.374 142.38L334.172 139.218C341.661 134.42 349.352 129.106 357.716 122.962C364.595 118.168 372.092 114.329 380.003 111.549L384.981 109.531C388.017 108.517 390.768 106.796 393.008 104.509C393.216 104.266 393.355 103.972 393.411 103.657C393.411 103.657 393.232 103.657 393.165 103.657L380.474 104.733C380.233 104.757 379.99 104.703 379.782 104.578C379.574 104.452 379.413 104.263 379.322 104.038C379.231 103.813 379.215 103.565 379.277 103.33C379.34 103.096 379.476 102.888 379.667 102.737C387.044 96.7059 394.308 90.338 401.282 83.8581L401.506 83.6563C403.636 81.6607 406.573 78.9477 405.609 76.1673C405.248 75.2941 404.687 74.5182 403.97 73.9026C403.253 73.2871 402.401 72.8493 401.483 72.6247C400.881 72.4055 400.237 72.3287 399.6 72.4005C398.807 72.592 398.05 72.91 397.358 73.3422L389.667 77.5351C384.151 80.5172 378.658 83.4993 373.209 86.5039L359.577 94.2395C350.81 99.2396 341.639 104.419 332.67 109.285C329.867 110.809 326.997 112.446 324.038 114.128C313.006 120.451 301.616 126.976 289.822 129.33C278.745 131.572 221.48 118.5 219.058 117.94C218.761 117.874 218.501 117.693 218.337 117.437C218.173 117.18 218.118 116.869 218.183 116.572C218.249 116.274 218.43 116.015 218.686 115.851C218.943 115.687 219.254 115.632 219.551 115.697C220.157 115.832 278.723 129.151 289.396 127.088C300.764 124.846 312.042 118.366 323.029 112.132C325.988 110.451 328.881 108.791 331.684 107.267C340.652 102.401 349.778 97.244 358.59 92.2439L372.223 84.5083C377.694 81.5187 383.187 78.5291 388.703 75.5395L396.394 71.369C397.345 70.7697 398.403 70.3587 399.51 70.1583C400.462 70.0532 401.425 70.1526 402.335 70.4497C403.597 70.7762 404.763 71.3978 405.738 72.2632C406.712 73.1286 407.467 74.2131 407.941 75.4274C409.353 79.5755 405.699 83.0061 403.232 85.2707L403.008 85.4725C396.887 91.1901 390.519 96.6835 384.039 102.177L393.187 101.415C393.721 101.323 394.27 101.401 394.757 101.639C395.029 101.771 395.267 101.966 395.45 102.208C395.633 102.449 395.757 102.731 395.811 103.029C395.868 103.535 395.82 104.047 395.67 104.533C395.519 105.02 395.27 105.469 394.936 105.854C392.452 108.441 389.373 110.38 385.967 111.504L380.967 113.545C373.236 116.296 365.907 120.066 359.173 124.756C350.787 130.922 343.052 136.281 335.54 141.124C334.038 142.066 332.446 143.142 330.742 144.263C319.127 151.886 303.813 162.066 290.293 162.066Z"
          fill="#231F20"/>
    <path d="M86.0506 149.869C51.9467 174.667 47.5071 226.328 46.5878 265.14C45.691 301.643 53.8526 336.442 61.4536 372.048C68.8977 406.87 90.1314 415.861 123.854 423.619C173.9 435.234 234.081 432.588 284.934 426.915C335.787 421.242 338.903 385.188 333.769 344.133C332.356 332.922 324.374 325.68 315.831 319.469C305.14 312.328 295.814 303.329 288.297 292.899C264.193 257.808 262.758 216.328 246.659 178.277C233.924 148.165 205.515 127.178 172.667 128.254C139.819 129.33 108.674 133.411 86.0506 149.869Z"
          fill="white"/>
    <path d="M205.314 432.947C174.125 432.947 147.016 430.233 123.585 424.785C92.5759 417.587 68.248 409.09 60.3554 372.273L58.7411 364.784C51.4988 331.039 44.6376 299.177 45.4672 265.118C47.3507 186.529 67.8892 161.752 85.3784 148.972C109.348 131.55 142.936 128.232 172.622 127.267C204.731 126.214 234.126 146.124 247.602 177.986C253.46 192.834 258.248 208.083 261.929 223.615C268.095 246.978 274.463 271.149 289.06 292.405C295.517 301.8 303.679 309.67 316.325 318.684C325.07 324.917 333.366 332.294 334.823 344.066C337.648 366.757 338.747 392.251 325.428 409.09C316.975 419.807 303.769 426.018 285.069 428.081C258.593 431.158 231.968 432.783 205.314 432.947ZM86.0511 149.869L86.7013 150.788C54.01 174.555 48.5839 224.4 47.7094 265.14C46.8798 298.953 53.7185 330.68 60.9384 364.29L62.5528 371.802C69.526 404.471 87.9569 414.202 124.101 422.588C165.425 432.162 218.005 433.238 284.822 425.861C302.961 423.843 315.675 417.924 323.747 407.722C336.55 391.488 335.451 366.555 332.715 344.312C331.348 333.415 323.455 326.375 315.137 320.478C302.244 311.307 293.925 303.28 287.311 293.571C272.512 272.001 266.077 247.651 259.889 224.063C256.198 208.632 251.418 193.481 245.584 178.726C232.467 147.739 203.946 128.321 172.757 129.398C143.384 130.339 110.222 133.613 86.7461 150.676L86.0511 149.869Z"
          fill="#231F20"/>
    <path d="M175.402 342.541C169.333 342.531 163.269 342.179 157.24 341.487C145.659 340.177 134.24 337.698 123.158 334.088C108.023 329.177 97.8662 323.594 90.2203 315.971C78.6058 304.356 74.1886 288.706 72.507 277.607C68.628 251.978 72.507 223.66 75.3321 209.085C77.159 199.073 81.1623 189.584 87.0592 181.289C92.956 172.994 100.603 166.095 109.458 161.08C121.723 153.927 136.365 149.331 154.145 146.999C172.823 144.555 186.276 146.55 196.478 153.299C213.115 164.286 217.846 185.408 221.277 206.103L227.084 241.238C228.497 249.961 230.47 261.934 237.331 267.584C239.749 269.415 242.358 270.978 245.112 272.248C249.91 274.692 254.865 277.203 257.645 282.697C261.098 289.423 262.556 300.948 259.013 308.415C255.112 316.666 247.129 322.092 241.457 325.455C221.382 337.003 198.558 342.907 175.402 342.541ZM168.226 148.254C163.592 148.278 158.963 148.6 154.37 149.218C136.858 151.461 122.508 155.945 110.512 163.008C101.955 167.878 94.5679 174.563 88.8699 182.593C83.1719 190.623 79.3011 199.803 77.5295 209.489C74.8389 223.951 70.8029 251.956 74.7268 277.271C76.3411 288.033 80.6237 303.19 91.8123 314.379C99.1891 321.733 109.055 327.159 123.853 331.958C134.788 335.527 146.057 337.976 157.486 339.267C188.406 342.765 217.017 337.294 240.246 323.572C245.65 320.366 253.273 315.186 256.928 307.495C260.179 300.657 258.789 290.073 255.583 283.773C253.116 278.93 248.699 276.688 244.035 274.288C241.136 272.947 238.392 271.293 235.851 269.356C228.317 263.167 226.277 250.723 224.797 241.642L218.99 206.529C215.649 186.349 211.052 165.699 195.178 155.205C188.137 150.519 179.393 148.254 168.226 148.254Z"
          fill="#D1D3D4"/>
    <path d="M91.5213 306.89C91.3 306.889 91.0839 306.822 90.9003 306.699C90.7168 306.575 90.574 306.4 90.4899 306.195C90.4315 306.06 90.4009 305.914 90.3999 305.767C90.3989 305.62 90.4275 305.474 90.4839 305.338C90.5404 305.202 90.6236 305.079 90.7286 304.976C90.8337 304.873 90.9583 304.792 91.0953 304.738C105.737 298.684 115.49 300.096 115.894 300.253C116.191 300.298 116.459 300.459 116.637 300.7C116.816 300.942 116.892 301.245 116.847 301.542C116.802 301.84 116.641 302.107 116.4 302.286C116.158 302.465 115.855 302.54 115.558 302.495C115.558 302.495 105.961 301.128 91.9473 306.98C91.8003 306.983 91.6546 306.952 91.5213 306.89Z"
          fill="#D1D3D4"/>
    <path d="M303.902 383.483C303.902 383.483 315.113 441.175 318.185 444.224C321.256 447.274 369.755 445.054 369.083 439.74C368.41 434.426 343.006 426.87 343.006 426.87L335.225 379.312"
          fill="white"/>
    <path d="M331.436 446.781C324.261 446.781 318.566 446.243 317.333 445.01C314.194 441.893 304.642 393.439 302.759 383.708C302.729 383.562 302.73 383.412 302.759 383.266C302.788 383.121 302.846 382.982 302.93 382.859C303.013 382.736 303.121 382.631 303.245 382.549C303.37 382.468 303.509 382.412 303.656 382.385C303.944 382.332 304.241 382.394 304.484 382.558C304.727 382.721 304.896 382.973 304.956 383.26C309.239 405.256 316.795 441.041 318.925 443.441C321.302 445.279 350.473 444.831 363.567 441.512C367.513 440.503 367.917 439.674 368.052 439.674C367.715 436.848 354.935 431.49 342.782 427.992C342.577 427.932 342.393 427.817 342.25 427.658C342.108 427.5 342.012 427.305 341.975 427.095L334.172 379.515C334.124 379.218 334.197 378.914 334.373 378.67C334.55 378.426 334.816 378.263 335.114 378.215C335.411 378.167 335.715 378.24 335.959 378.416C336.203 378.593 336.366 378.859 336.414 379.157L344.105 426.019C350.831 428.014 369.666 434.001 370.294 439.472C370.413 440.623 369.666 441.587 368.052 442.364C362.513 445.01 344.531 446.781 331.436 446.781Z"
          fill="#231F20"/>
    <path d="M200.918 408.931C200.918 408.931 193.855 460.659 197.51 462.139C201.164 463.618 250.762 465.995 249.977 461.645C249.192 457.295 224.707 448.977 224.707 448.977L233.564 398.527"
          fill="white"/>
    <path d="M230.358 465.189C216.12 465.189 199.304 463.978 197.084 463.082C193.407 461.579 196.523 432.655 199.797 408.663C199.839 408.366 199.997 408.097 200.236 407.917C200.476 407.736 200.778 407.658 201.075 407.699C201.372 407.741 201.641 407.899 201.822 408.139C202.003 408.378 202.081 408.68 202.039 408.977C198.833 432.52 196.501 458.306 198.093 461.041C206.565 462.196 215.104 462.788 223.654 462.812C240.964 463.216 247.444 462.207 248.789 461.445C247.511 459.001 235.336 453.664 224.371 449.942C224.111 449.859 223.892 449.682 223.755 449.446C223.618 449.21 223.574 448.931 223.632 448.664L232.6 398.237C232.651 397.94 232.817 397.675 233.063 397.5C233.309 397.326 233.615 397.256 233.912 397.307C234.209 397.357 234.474 397.524 234.649 397.77C234.823 398.016 234.893 398.321 234.843 398.618L226.053 448.126C232.78 450.368 250.381 456.893 251.166 461.333C251.219 461.659 251.18 461.993 251.053 462.298C250.927 462.603 250.717 462.867 250.448 463.059C248.475 464.629 239.977 465.189 230.358 465.189Z"
          fill="#231F20"/>
    <path d="M259.552 294.221C276.391 291.71 305.943 398.416 305.943 398.416L339.755 394.493C339.755 394.493 333.634 297.921 327.176 270.97C322.692 252.404 302.512 243.323 282.086 249.355C251.547 248.144 220.179 244.265 220.179 244.265L259.552 294.221Z"
          fill="#231F20"/>
    <path d="M305.943 399.538C305.699 399.542 305.461 399.465 305.267 399.318C305.072 399.172 304.931 398.966 304.866 398.731C304.866 398.462 297.377 371.824 288.005 345.748C271.772 300.635 263.341 294.805 259.731 295.343C259.533 295.372 259.331 295.348 259.146 295.273C258.961 295.199 258.799 295.075 258.677 294.917L219.326 244.961C219.184 244.787 219.097 244.574 219.077 244.35C219.057 244.126 219.105 243.902 219.214 243.705C219.322 243.509 219.487 243.349 219.687 243.249C219.887 243.149 220.114 243.113 220.335 243.145C220.649 243.145 251.906 247.024 281.974 248.234C287.204 246.588 292.711 246.01 298.169 246.534C303.627 247.057 308.924 248.673 313.745 251.284C317.371 253.352 320.533 256.143 323.036 259.483C325.539 262.823 327.33 266.641 328.297 270.701C334.688 297.428 340.831 393.439 340.899 394.426C340.917 394.71 340.825 394.991 340.641 395.208C340.457 395.426 340.196 395.563 339.912 395.592L306.1 399.538H305.943ZM260.09 293.056C277.018 293.056 302.691 382.744 306.772 397.206L338.567 393.507C337.872 382.878 332.087 296.262 326.1 271.217C325.215 267.461 323.564 263.929 321.249 260.842C318.933 257.755 316.005 255.18 312.647 253.279C308.057 250.811 303.018 249.293 297.829 248.815C292.639 248.337 287.407 248.91 282.444 250.499H282.086C256.995 249.512 231.031 246.665 222.779 245.723L260.112 293.078L260.09 293.056Z"
          fill="#231F20"/>
    <path d="M180.716 108.949C180.716 108.949 128.406 106.123 119.056 119.218C108.966 133.344 109.706 138.837 96.0508 171.439C100.535 216.507 127.285 279.423 127.285 279.423L240 256.149C240 256.149 235.628 134.667 225.717 117.805C215.807 100.944 180.716 108.949 180.716 108.949Z"
          fill="#1CBCC8"/>
    <path d="M162.263 118.141L193.855 283.615L226.21 282.988L202.488 119.98L162.263 118.141Z" fill="#231F20"/>
    <path d="M193.855 284.736C193.594 284.735 193.341 284.643 193.14 284.475C192.939 284.307 192.804 284.074 192.757 283.817L161.164 118.343C161.13 118.177 161.135 118.006 161.177 117.843C161.22 117.68 161.3 117.529 161.411 117.401C161.519 117.27 161.656 117.167 161.812 117.101C161.969 117.034 162.139 117.007 162.308 117.02L202.667 118.858C202.928 118.872 203.175 118.975 203.368 119.151C203.56 119.327 203.685 119.564 203.721 119.823L227.421 282.831C227.443 282.987 227.432 283.146 227.389 283.297C227.345 283.449 227.27 283.59 227.169 283.71C227.067 283.831 226.941 283.929 226.799 283.997C226.657 284.066 226.502 284.104 226.345 284.109L193.99 284.736H193.855ZM163.631 119.307L194.775 282.472L224.91 281.889L201.524 121.056L163.631 119.307Z"
          fill="#231F20"/>
    <path d="M140.356 260.947C140.356 260.947 110.423 292.585 131.163 317.698C151.904 342.81 211.031 316.397 211.031 316.397L196.277 414.628L239.596 414.179C239.596 414.179 284.754 280.455 279.552 266.62C274.35 252.786 237.354 246.44 237.354 246.44L140.356 260.947Z"
          fill="#231F20"/>
    <path d="M196.277 415.771C196.116 415.769 195.958 415.735 195.811 415.669C195.664 415.604 195.533 415.508 195.425 415.39C195.324 415.261 195.25 415.113 195.207 414.955C195.165 414.797 195.155 414.632 195.178 414.47L209.64 318.235C199.766 322.274 189.544 325.404 179.102 327.585C155.94 332.182 139.056 329.02 130.311 318.437C109.167 292.853 139.28 260.521 139.527 260.14C139.704 259.963 139.931 259.846 140.177 259.803L237.264 245.251H237.623C239.148 245.521 275.292 251.978 280.673 266.171C286.055 280.364 242.556 409.022 240.717 414.493C240.646 414.715 240.505 414.909 240.315 415.047C240.126 415.184 239.897 415.257 239.663 415.255L196.367 415.704L196.277 415.771ZM211.031 315.298C211.281 315.293 211.525 315.372 211.726 315.522C211.881 315.647 212.001 315.809 212.076 315.993C212.15 316.178 212.176 316.378 212.152 316.576L197.577 413.416L238.789 412.99C254.484 366.644 282.489 277.539 278.498 266.934C273.767 254.332 240.089 247.965 237.354 247.471L140.939 261.933C138.092 265.095 113.203 294.087 131.971 316.912C151.926 341.061 209.932 315.567 210.448 315.298C210.638 315.24 210.84 315.24 211.031 315.298Z"
          fill="#231F20"/>
    <path d="M151.635 5.44824C144.415 1.68258 136.179 0.327964 128.134 1.58282C120.088 2.83767 112.656 6.63604 106.926 12.4215C98.338 21.3903 94.8851 35.2471 99.4591 46.7271C101.905 52.4111 106.083 57.1774 111.398 60.3462C116.713 63.515 122.893 64.9244 129.056 64.3733C140.985 63.3867 152.128 51.5703 157.196 41.4355C163.272 29.1931 166.366 12.9372 151.635 5.44824Z"
          fill="white"/>
    <path d="M126.59 65.5842C120.594 65.6546 114.712 63.9397 109.693 60.6577C104.674 57.3756 100.745 52.6748 98.4055 47.1533C96.2544 41.1026 95.8367 34.5711 97.1996 28.2957C98.5624 22.0202 101.652 16.2504 106.119 11.6369C111.996 5.67511 119.634 1.75967 127.906 0.467836C136.178 -0.823995 144.646 0.576154 152.061 4.46184C158.003 7.46639 170.492 17.1751 158.115 41.929C152.801 52.557 141.456 64.4631 128.967 65.4721C128.294 65.5394 127.397 65.5842 126.59 65.5842ZM133.765 2.24206C128.911 2.22458 124.104 3.18663 119.631 5.0706C115.158 6.95458 111.111 9.72173 107.733 13.2064C103.559 17.5027 100.669 22.8803 99.3889 28.7322C98.1092 34.5841 98.4908 40.6772 100.491 46.3237C102.839 51.7925 106.86 56.3765 111.976 59.4179C117.092 62.4593 123.04 63.8017 128.967 63.2523C139.976 62.3554 151.007 51.3462 156.209 40.8303C160.021 33.1844 167.174 14.5069 151.142 6.36771C145.754 3.64776 139.801 2.23443 133.765 2.24206Z"
          fill="#231F20"/>
    <path d="M130.401 28.2739C126.636 32.6041 124.041 37.8256 122.864 43.4418C121.687 49.0579 121.966 54.8819 123.675 60.3598C124.449 63.42 126.274 66.1106 128.832 67.9608C133.899 71.0551 140.514 67.9608 144.998 64.0594C152.195 57.459 157.76 49.2766 161.254 40.1576C163.9 33.7224 167.286 19.5293 157.554 17.4441C147.823 15.3588 136.366 21.5025 130.401 28.2739Z"
          fill="#231F20"/>
    <path d="M133.449 70.36C131.608 70.3834 129.797 69.886 128.225 68.925C125.407 66.9666 123.399 64.0495 122.575 60.7186C120.816 55.0449 120.542 49.015 121.778 43.2052C123.015 37.3954 125.721 31.9997 129.638 27.534C135.893 20.5159 147.912 14.2153 157.822 16.323C159.099 16.5643 160.304 17.0936 161.345 17.8707C162.386 18.6478 163.237 19.6522 163.831 20.8074C167.464 27.7134 162.867 39.328 162.329 40.6285C158.779 49.9137 153.113 58.2434 145.782 64.9563C142.411 68.1162 138.058 70.0237 133.449 70.36ZM153.629 18.2065C145.557 18.2065 136.297 23.2963 131.207 29.0587C127.555 33.2272 125.035 38.2639 123.889 43.6859C122.743 49.1079 123.008 54.7335 124.66 60.0235C125.324 62.8458 126.989 65.3316 129.346 67.0192C133.831 69.7995 139.997 66.8846 144.212 63.2298C151.283 56.7589 156.736 48.7178 160.132 39.754C161.948 35.4041 164.28 26.7044 161.724 21.8164C161.28 20.9613 160.644 20.2207 159.866 19.6527C159.088 19.0847 158.189 18.7048 157.239 18.5428C156.082 18.3001 154.902 18.1798 153.719 18.184L153.629 18.2065Z"
          fill="#231F20"/>
    <path d="M187.935 95.2255C186.152 97.4629 184.251 99.6035 182.24 101.638C178.13 104.82 173.281 106.91 168.145 107.714C163.009 108.518 157.753 108.009 152.867 106.235C129.548 97.9161 126.678 72.3102 128.405 50.9644C129.122 42.2871 132.889 23.8562 145.535 31.121C141.858 28.8788 154.504 18.6095 156.343 17.6678C170.087 9.82008 186.635 16.1206 196.702 26.9281C202.607 33.0126 207.825 39.7271 212.263 46.9509C216.748 54.978 214.64 67.1307 210.828 74.9336C207.822 81.0247 203.218 86.1858 197.509 89.8666C194.864 91.5707 191.299 92.3779 188.922 94.351C188.578 94.6255 188.249 94.9174 187.935 95.2255Z"
          fill="white"/>
    <path d="M163.429 109.218C159.702 109.224 156.002 108.594 152.487 107.357C133.271 100.496 124.796 81.5718 127.397 50.9433C127.733 46.8177 129.37 33.0057 136.545 29.3285C137.691 28.7484 138.951 28.4313 140.235 28.4003C141.519 28.3692 142.794 28.6251 143.966 29.1492C145.2 24.6648 154.684 17.3328 155.895 16.6377C170.626 8.22942 187.869 15.6511 197.622 26.1222C203.591 32.2418 208.856 39.0106 213.318 46.302C217.981 54.6654 215.851 67.1993 211.905 75.3385C208.812 81.6163 204.069 86.9337 198.183 90.72C196.913 91.4799 195.586 92.1397 194.214 92.6931C192.608 93.2851 191.098 94.1085 189.73 95.1371C189.407 95.3955 189.1 95.6725 188.81 95.9667C188.071 96.7515 187.375 97.6035 186.568 98.5228C185.516 99.9618 184.305 101.278 182.958 102.447C177.422 106.884 170.524 109.276 163.429 109.218ZM140.2 30.7411C139.255 30.7296 138.323 30.953 137.486 31.3914C132.598 33.9475 130.154 43.6786 129.527 51.2124C127.128 80.6525 135.11 98.8591 153.249 105.317C157.963 107.028 163.034 107.514 167.987 106.729C172.941 105.945 177.613 103.916 181.568 100.832C182.778 99.7499 183.874 98.548 184.842 97.2448C185.54 96.2936 186.288 95.3805 187.084 94.5093C187.42 94.1729 187.779 93.8366 188.16 93.5227C189.705 92.3539 191.412 91.4172 193.228 90.7424C194.485 90.2441 195.7 89.6442 196.86 88.9486C202.404 85.3871 206.87 80.3786 209.775 74.464C213.475 66.8405 215.515 55.1811 211.232 47.5576C206.882 40.4016 201.737 33.7599 195.896 27.759C186.703 17.9157 170.604 10.8752 156.904 18.7902C155.021 19.8664 145.984 27.6244 145.984 30.2254H146.141C146.284 30.29 146.412 30.3839 146.517 30.501C146.621 30.6181 146.7 30.7558 146.747 30.9052C146.795 31.0546 146.811 31.2123 146.794 31.3683C146.777 31.5242 146.728 31.6749 146.649 31.8105C146.57 31.9461 146.464 32.0637 146.336 32.1556C146.209 32.2475 146.064 32.3117 145.911 32.344C145.757 32.3764 145.599 32.3761 145.445 32.3434C145.292 32.3106 145.147 32.246 145.02 32.1537C143.574 31.2365 141.911 30.7182 140.2 30.6514V30.7411Z"
          fill="#231F20"/>
    <path d="M197.667 44.1265C197.667 44.1265 208.721 61.6156 208.631 76.7729C208.721 80.9976 207.576 85.1566 205.338 88.7408C203.1 92.325 199.865 95.1788 196.03 96.9527L201.725 122.514C201.725 122.514 204.752 135.563 188.272 137.11C183.506 137.533 178.71 136.736 174.336 134.794C169.963 132.853 166.155 129.83 163.272 126.012L150.939 79.329C150.939 79.329 166.769 64.822 161.433 48.297C161.433 48.3866 185.335 54.037 197.667 44.1265Z"
          fill="white"/>
    <path d="M185.469 138.321C180.969 138.294 176.535 137.225 172.517 135.199C168.499 133.172 165.004 130.242 162.307 126.639C162.233 126.539 162.179 126.424 162.15 126.303L149.818 79.6874C149.765 79.4912 149.768 79.2838 149.827 79.0894C149.887 78.895 150 78.7213 150.154 78.5887C150.289 78.4542 165.379 64.3731 160.334 48.745C160.267 48.5552 160.253 48.351 160.292 48.1537C160.332 47.9565 160.424 47.7735 160.558 47.6239C160.696 47.4779 160.871 47.3717 161.065 47.3165C161.258 47.2612 161.462 47.259 161.657 47.31C161.881 47.31 185.178 52.6913 196.927 43.2516C197.047 43.1518 197.187 43.0782 197.338 43.0357C197.488 42.9933 197.646 42.9828 197.801 43.005C197.957 43.0334 198.105 43.094 198.237 43.1827C198.368 43.2715 198.479 43.3866 198.564 43.5207C199.034 44.2382 209.775 61.4583 209.775 76.7949C209.828 81.066 208.692 85.2678 206.495 88.9305C204.297 92.5932 201.124 95.5725 197.33 97.5353L202.846 122.199C203.524 125.693 202.791 129.313 200.806 132.267C198.384 135.63 194.214 137.603 188.406 138.164C187.375 138.276 186.411 138.321 185.469 138.321ZM164.258 125.54C167.067 129.127 170.725 131.956 174.902 133.772C179.08 135.589 183.644 136.335 188.182 135.944C193.294 135.473 196.927 133.702 198.945 130.989C200.562 128.556 201.165 125.587 200.626 122.715L194.931 97.2662C194.879 97.0026 194.92 96.7291 195.047 96.4921C195.174 96.2552 195.378 96.0692 195.626 95.9657C199.258 94.2984 202.32 91.6013 204.433 88.2092C206.545 84.8172 207.615 80.8794 207.51 76.8846C207.51 64.2835 199.662 49.8437 197.353 45.875C186.501 53.5657 168.765 51.0545 163.002 49.9782C166.545 64.7319 154.841 77.2658 152.195 79.8667L164.258 125.54Z"
          fill="#231F20"/>
    <path d="M159.056 74.1265C159.056 74.1265 147.195 58.1396 140.805 71.3237C134.414 84.5078 150.11 93.7457 157.756 91.0551"
          fill="white"/>
    <path d="M154.684 92.782C152.271 92.687 149.901 92.1103 147.714 91.0861C145.527 90.0618 143.566 88.6106 141.948 86.8178C139.942 84.7497 138.645 82.0984 138.242 79.2456C137.839 76.3928 138.351 73.4858 139.706 70.943C141.455 67.3555 143.764 65.4048 146.612 65.1357C153.07 64.5303 159.594 73.2076 159.863 73.5664C159.952 73.6842 160.016 73.8182 160.053 73.9608C160.089 74.1034 160.097 74.2519 160.076 74.3976C160.056 74.5434 160.006 74.6836 159.931 74.8103C159.856 74.9369 159.757 75.0476 159.639 75.1359C159.399 75.3087 159.102 75.3818 158.809 75.34C158.517 75.2982 158.252 75.1447 158.07 74.9117C156.41 72.6695 151.141 66.9519 146.859 67.3779C144.841 67.5573 143.114 69.082 141.747 71.8623C140.573 74.0033 140.114 76.4631 140.437 78.8831C140.76 81.3031 141.847 83.5568 143.54 85.3155C147.24 89.3963 153.406 91.5488 157.307 90.1138C157.585 90.0224 157.886 90.0426 158.149 90.1702C158.411 90.2978 158.614 90.5227 158.713 90.7971C158.812 91.0716 158.801 91.3739 158.68 91.6399C158.56 91.9058 158.341 92.1145 158.07 92.2215C156.981 92.5995 155.836 92.789 154.684 92.782Z"
          fill="#231F20"/>
    <path d="M191.098 81.0781H190.425C190.128 81.0781 189.842 80.96 189.632 80.7498C189.422 80.5395 189.304 80.2544 189.304 79.957C189.304 79.6597 189.422 79.3746 189.632 79.1643C189.842 78.9541 190.128 78.8359 190.425 78.8359C192.985 79.02 195.545 78.4676 197.802 77.244C197.936 76.1005 193.183 70.7865 187.577 66.033C187.464 65.9373 187.37 65.8202 187.302 65.6884C187.234 65.5566 187.193 65.4127 187.18 65.2649C187.168 65.117 187.185 64.9682 187.23 64.8269C187.275 64.6855 187.347 64.5544 187.443 64.441C187.538 64.3277 187.656 64.2343 187.787 64.1661C187.919 64.098 188.063 64.0565 188.211 64.0441C188.359 64.0316 188.508 64.0483 188.649 64.0933C188.79 64.1384 188.921 64.2108 189.035 64.3065C191.613 66.5487 199.977 73.9031 199.977 77.3337C199.987 77.6396 199.928 77.9439 199.804 78.2236C199.68 78.5033 199.493 78.751 199.259 78.9481C196.816 80.4662 193.971 81.2088 191.098 81.0781Z"
          fill="#231F20"/>
    <path d="M187.397 90.3381H187.173C182.471 90.292 177.952 88.5114 174.482 85.338C174.395 85.2188 174.332 85.0837 174.298 84.9402C174.263 84.7967 174.257 84.6478 174.28 84.502C174.303 84.3561 174.354 84.2163 174.431 84.0904C174.508 83.9645 174.61 83.8551 174.729 83.7684C174.844 83.6777 174.976 83.6113 175.117 83.5734C175.259 83.5354 175.406 83.5266 175.551 83.5476C175.696 83.5686 175.835 83.6189 175.959 83.6954C176.084 83.7719 176.192 83.8731 176.276 83.9927C179.386 86.5795 183.286 88.027 187.33 88.0959H187.487C192.734 88.0959 197.51 85.3156 201.703 79.9791C201.794 79.8628 201.907 79.7656 202.036 79.6931C202.165 79.6206 202.307 79.5741 202.454 79.5564C202.6 79.5387 202.749 79.5501 202.892 79.5899C203.034 79.6298 203.167 79.6973 203.283 79.7885C203.4 79.8798 203.497 79.9931 203.569 80.1219C203.642 80.2508 203.688 80.3926 203.706 80.5394C203.724 80.6862 203.712 80.8351 203.673 80.9774C203.633 81.1198 203.565 81.253 203.474 81.3693C198.833 87.3111 193.407 90.3381 187.397 90.3381Z"
          fill="#231F20"/>
    <path d="M196.03 96.9067C196.03 96.9067 182.756 101.66 174.46 101.391C174.46 101.391 187.532 119.62 200.469 116.616L196.03 96.9067Z"
          fill="#231F20"/>
    <path d="M197.51 118.096C185.2 118.096 174.056 102.782 173.563 102.064C173.454 101.885 173.396 101.68 173.396 101.47C173.396 101.261 173.454 101.055 173.563 100.876C173.672 100.7 173.824 100.555 174.004 100.453C174.184 100.351 174.387 100.296 174.594 100.293C182.554 100.517 195.604 95.8087 195.738 95.8087C195.888 95.7538 196.048 95.7315 196.207 95.7433C196.366 95.7551 196.521 95.8007 196.661 95.8771C196.801 95.9535 196.923 96.059 197.019 96.1864C197.116 96.3138 197.183 96.4602 197.218 96.6159L201.703 116.347C201.77 116.636 201.721 116.939 201.565 117.191C201.41 117.443 201.161 117.623 200.873 117.693C199.772 117.959 198.643 118.095 197.51 118.096ZM176.747 102.401C180.2 106.616 189.684 116.93 199.169 115.652L195.267 98.2752C189.273 100.404 183.05 101.818 176.724 102.491L176.747 102.401Z"
          fill="#231F20"/>
    <path d="M179.857 67.9538C180.954 67.6459 181.406 65.8402 180.867 63.9206C180.328 62.0011 179.002 60.6946 177.905 61.0026C176.809 61.3105 176.356 63.1161 176.895 65.0357C177.434 66.9552 178.76 68.2617 179.857 67.9538Z"
          fill="#231F20"/>
    <path d="M198.126 62.8073C199.223 62.4994 199.675 60.6937 199.136 58.7742C198.597 56.8546 197.271 55.5482 196.175 55.8561C195.078 56.164 194.625 57.9697 195.164 59.8892C195.703 61.8087 197.029 63.1152 198.126 62.8073Z"
          fill="#231F20"/>
    <path d="M205.583 251.193L227.96 178.792H332.244L307.311 251.193H205.583Z" fill="white"/>
    <path d="M278.964 212.578L263.299 212.248C261.719 212.215 260.41 213.472 260.377 215.057L260.21 222.993C260.176 224.577 261.431 225.888 263.012 225.921L278.676 226.251C280.257 226.284 281.566 225.027 281.599 223.443L281.766 215.507C281.799 213.922 280.545 212.611 278.964 212.578Z"
          fill="#1CBCC8"/>
    <path d="M276.403 215.789L265.724 215.564C265.307 215.555 264.91 215.381 264.621 215.079C264.333 214.777 264.175 214.373 264.184 213.955L264.274 209.707C264.262 208.777 264.437 207.853 264.789 206.992C265.141 206.131 265.662 205.349 266.321 204.694C266.98 204.038 267.765 203.523 268.627 203.177C269.489 202.832 270.412 202.664 271.34 202.684C272.269 202.703 273.184 202.91 274.031 203.291C274.878 203.672 275.64 204.22 276.271 204.903C276.902 205.585 277.39 206.388 277.705 207.264C278.02 208.139 278.157 209.069 278.106 209.998L278.016 214.246C278.012 214.453 277.967 214.658 277.883 214.848C277.8 215.038 277.679 215.21 277.529 215.353C277.38 215.497 277.203 215.609 277.009 215.684C276.816 215.758 276.61 215.794 276.403 215.789ZM267.355 212.445L274.896 212.603L274.952 209.932C274.986 209.421 274.917 208.91 274.748 208.427C274.579 207.944 274.314 207.501 273.97 207.124C273.625 206.747 273.208 206.444 272.743 206.233C272.278 206.022 271.775 205.908 271.265 205.897C270.755 205.886 270.248 205.979 269.774 206.17C269.301 206.362 268.871 206.647 268.511 207.009C268.151 207.372 267.868 207.803 267.679 208.278C267.49 208.753 267.399 209.262 267.411 209.773L267.355 212.445Z"
          fill="#1CBCC8"/>
    <path d="M270.99 219.167C272.119 219.191 273.054 218.293 273.078 217.161C273.102 216.03 272.205 215.093 271.076 215.069C269.947 215.046 269.012 215.944 268.989 217.075C268.965 218.207 269.861 219.144 270.99 219.167Z"
          fill="#231F20"/>
    <path d="M271.599 217.525L270.451 217.5L270.35 222.284L271.498 222.308L271.599 217.525Z" fill="#231F20"/>
    <path d="M307.311 252.314H205.582C205.408 252.313 205.237 252.271 205.082 252.194C204.926 252.116 204.791 252.004 204.685 251.866C204.575 251.725 204.502 251.559 204.471 251.383C204.439 251.208 204.451 251.027 204.506 250.857L226.928 178.456C227 178.228 227.143 178.028 227.337 177.887C227.53 177.745 227.764 177.67 228.004 177.671H332.289C332.465 177.672 332.639 177.715 332.795 177.797C332.951 177.879 333.085 177.998 333.186 178.142C333.293 178.289 333.364 178.459 333.391 178.639C333.419 178.818 333.402 179.002 333.343 179.174L308.409 251.552C308.329 251.778 308.18 251.974 307.983 252.11C307.786 252.247 307.551 252.319 307.311 252.314ZM207.107 250.072H306.503L330.674 179.914H228.789L207.107 250.072Z"
          fill="#231F20"/>
    <path d="M100.333 160.676C100.333 160.676 62.1039 246.777 80.1537 266.441C98.2034 286.105 194.506 247.651 194.506 247.651C211.008 244.355 228.789 238.548 233.43 219.96C234.013 217.583 234.058 214.556 231.995 213.233C230.879 212.653 229.61 212.434 228.363 212.606C224.206 212.818 220.106 213.673 216.21 215.139L216.322 207.65C207.174 215.364 196.389 223.884 184.438 225.924C176.568 227.247 168.272 227.382 160.312 228.01C146.441 229.116 132.561 230.125 118.675 231.037C118.675 231.037 127.845 197.717 134.527 178.793"
          fill="white"/>
    <path d="M99.6826 273.122C90.7138 273.122 83.3146 271.463 79.5028 267.203C61.072 247.225 97.8216 163.748 99.4136 160.205C99.5466 159.952 99.7709 159.76 100.041 159.667C100.311 159.575 100.606 159.588 100.866 159.705C101.126 159.823 101.332 160.035 101.441 160.298C101.55 160.562 101.555 160.857 101.454 161.124C101.073 161.976 63.7178 246.776 81.1397 265.678C88.2474 273.391 109.997 272.584 143.921 263.436C160.954 258.695 177.739 253.105 194.214 246.687C210.739 243.39 228.004 237.718 232.466 219.78C232.712 218.794 233.385 215.475 231.524 214.287C230.608 213.834 229.573 213.678 228.564 213.838C224.521 214.038 220.534 214.87 216.748 216.305C216.575 216.373 216.388 216.397 216.204 216.373C216.019 216.35 215.844 216.28 215.694 216.17C215.546 216.062 215.426 215.921 215.344 215.757C215.262 215.593 215.22 215.412 215.223 215.228V210.184C206.254 217.605 196.03 225.206 184.684 227.135C178.986 227.994 173.245 228.54 167.487 228.771C165.132 228.928 162.801 229.063 160.469 229.242C147.598 230.251 133.966 231.238 118.809 232.269C118.631 232.284 118.452 232.254 118.288 232.184C118.124 232.114 117.979 232.004 117.867 231.866C117.756 231.725 117.678 231.561 117.639 231.387C117.601 231.212 117.602 231.031 117.643 230.857C117.643 230.52 126.925 197.224 133.54 178.546C133.637 178.268 133.839 178.039 134.104 177.909C134.368 177.779 134.673 177.758 134.952 177.851C135.232 177.953 135.462 178.159 135.591 178.427C135.721 178.695 135.741 179.003 135.648 179.286C129.863 195.654 122.194 223.188 120.244 229.915C134.751 228.928 147.89 227.987 160.289 227C162.532 226.821 164.998 226.686 167.352 226.552C173.035 226.312 178.701 225.765 184.326 224.915C195.918 222.942 206.568 214.578 215.716 206.977C215.885 206.844 216.087 206.759 216.3 206.731C216.513 206.704 216.73 206.734 216.927 206.82C217.12 206.915 217.283 207.062 217.398 207.244C217.513 207.426 217.575 207.636 217.578 207.852V213.749C221.113 212.561 224.795 211.867 228.519 211.686C230.004 211.498 231.509 211.78 232.824 212.493C234.955 213.838 235.65 216.731 234.73 220.43C229.977 239.534 211.95 245.565 194.954 248.951C191.859 249.938 133.383 273.122 99.6826 273.122Z"
          fill="#231F20"/>
    <path d="M194.663 452.296C194.663 452.296 220.448 455.951 223.139 455.951L236.457 449C236.457 449 263.7 460.368 259.799 464.023C255.897 467.678 199.439 468.507 194.663 465.861C189.887 463.216 194.663 452.296 194.663 452.296Z"
          fill="#231F20"/>
    <path d="M219.999 468.485C207.353 468.485 196.187 467.902 194.214 466.848C188.72 463.866 193.205 453.059 193.72 451.848C193.817 451.621 193.985 451.432 194.2 451.31C194.415 451.188 194.664 451.141 194.909 451.175C201.837 452.162 219.864 454.673 222.959 454.83L236.031 447.992C236.179 447.925 236.339 447.89 236.501 447.89C236.664 447.89 236.824 447.925 236.972 447.992C242.488 450.234 260.515 458.149 261.345 462.813C261.414 463.187 261.386 463.573 261.265 463.934C261.143 464.295 260.931 464.619 260.65 464.875C257.959 467.364 237.555 468.485 219.999 468.485ZM195.469 453.53C194.258 456.647 192.42 463.328 195.29 464.875C200.447 467.633 255.829 466.198 259.125 463.216C259.237 461.355 248.766 455.346 236.703 450.234L223.833 456.96C223.67 457.032 223.495 457.07 223.317 457.072C220.739 457.072 200.066 454.18 195.469 453.53Z"
          fill="#231F20"/>
    <path d="M313.791 431.87C313.791 431.87 339.554 435.547 342.244 435.547L355.697 428.574C355.697 428.574 382.94 439.942 379.039 443.619C375.137 447.297 318.656 448.104 313.903 445.436C309.149 442.767 313.791 431.87 313.791 431.87Z"
          fill="#231F20"/>
    <path d="M339.037 448.059C326.391 448.059 315.224 447.476 313.251 446.422C307.735 443.462 312.22 432.655 312.758 431.422C312.858 431.199 313.028 431.014 313.243 430.897C313.457 430.779 313.704 430.735 313.946 430.772C320.852 431.758 338.88 434.247 341.996 434.404L355.068 427.677C355.215 427.606 355.376 427.569 355.539 427.569C355.702 427.569 355.863 427.606 356.01 427.677C361.526 429.92 379.531 437.834 380.383 442.476C380.456 442.854 380.43 443.244 380.308 443.609C380.187 443.975 379.973 444.302 379.688 444.561C376.997 447.05 356.571 448.059 339.037 448.059ZM314.485 433.103C313.296 436.243 311.435 442.902 314.328 444.449C319.462 447.229 374.867 445.794 378.141 442.79C378.275 440.951 367.804 434.942 355.719 429.807L342.848 436.534C342.691 436.623 342.513 436.67 342.333 436.669C339.754 436.669 319.081 433.754 314.485 433.103Z"
          fill="#231F20"/>
    <path d="M211.322 108.388L261.839 120.137L259.888 163.031H216.479L211.322 108.388Z" fill="#1CBCC8"/>
    <path d="M235.023 175.16C234.754 175.158 234.496 175.059 234.294 174.882C234.093 174.705 233.961 174.462 233.924 174.196L226.816 123.567C226.797 123.42 226.807 123.271 226.846 123.127C226.884 122.984 226.951 122.849 227.041 122.732C227.132 122.614 227.245 122.516 227.374 122.442C227.502 122.368 227.644 122.32 227.791 122.3C227.939 122.281 228.088 122.291 228.232 122.33C228.375 122.369 228.509 122.435 228.627 122.526C228.745 122.616 228.843 122.729 228.917 122.858C228.991 122.987 229.039 123.129 229.058 123.276L236.166 173.882C236.188 174.028 236.18 174.178 236.143 174.321C236.107 174.464 236.041 174.598 235.951 174.715C235.861 174.832 235.748 174.93 235.62 175.003C235.491 175.076 235.349 175.121 235.202 175.138L235.023 175.16Z"
          fill="#231F20"/>
    <path d="M134.638 179.914C134.512 179.938 134.383 179.938 134.257 179.914C134.117 179.867 133.988 179.791 133.878 179.693C133.767 179.594 133.678 179.474 133.615 179.34C133.552 179.206 133.517 179.061 133.512 178.913C133.507 178.765 133.531 178.618 133.585 178.479L144.033 149.331C144.08 149.188 144.155 149.057 144.254 148.944C144.353 148.831 144.473 148.739 144.608 148.674C144.742 148.608 144.889 148.57 145.039 148.563C145.188 148.555 145.338 148.577 145.479 148.628C145.62 148.679 145.749 148.758 145.859 148.859C145.969 148.961 146.058 149.084 146.12 149.221C146.181 149.357 146.215 149.505 146.219 149.655C146.222 149.805 146.196 149.954 146.141 150.093L135.692 179.242C135.603 179.446 135.455 179.619 135.268 179.739C135.08 179.858 134.861 179.92 134.638 179.914Z"
          fill="#231F20"/>
    <path d="M272.579 308.145H272.22C271.94 308.044 271.711 307.837 271.581 307.569C271.451 307.301 271.431 306.993 271.525 306.71C271.637 306.374 283.319 271.732 276.189 262.36C271.458 256.171 254.709 252.359 254.529 252.337C254.382 252.305 254.243 252.243 254.119 252.157C253.995 252.071 253.89 251.961 253.809 251.834C253.727 251.707 253.672 251.565 253.646 251.417C253.619 251.269 253.622 251.116 253.655 250.969C253.687 250.822 253.748 250.683 253.834 250.559C253.921 250.435 254.03 250.33 254.157 250.249C254.285 250.167 254.426 250.112 254.575 250.086C254.723 250.059 254.875 250.062 255.022 250.095C255.74 250.252 272.758 254.108 277.96 260.947C285.83 271.283 274.148 305.925 273.633 307.383C273.561 307.606 273.42 307.8 273.231 307.937C273.041 308.074 272.813 308.147 272.579 308.145Z"
          fill="white"/>
</svg>
