<svg width="24" height="24" viewBox="0 0 24 24" fill="none" xmlns="http://www.w3.org/2000/svg">
<path d="M18 18.0577C18.4167 18.0577 18.7708 17.9119 19.0625 17.6202C19.3542 17.3286 19.5 16.9744 19.5 16.5577C19.5 16.1411 19.3542 15.7869 19.0625 15.4952C18.7708 15.2036 18.4167 15.0577 18 15.0577C17.5833 15.0577 17.2292 15.2036 16.9375 15.4952C16.6458 15.7869 16.5 16.1411 16.5 16.5577C16.5 16.9744 16.6458 17.3286 16.9375 17.6202C17.2292 17.9119 17.5833 18.0577 18 18.0577ZM18 21.0578C18.5 21.0578 18.9667 20.9411 19.4 20.7078C19.8333 20.4744 20.1917 20.1494 20.475 19.7327C20.0917 19.4994 19.6917 19.3286 19.275 19.2203C18.8583 19.1119 18.4333 19.0577 18 19.0577C17.5667 19.0577 17.1417 19.1119 16.725 19.2203C16.3083 19.3286 15.9083 19.4994 15.525 19.7327C15.8083 20.1494 16.1667 20.4744 16.6 20.7078C17.0333 20.9411 17.5 21.0578 18 21.0578ZM5.30775 20.5C4.81058 20.5 4.385 20.323 4.031 19.969C3.677 19.615 3.5 19.1894 3.5 18.6923V5.30775C3.5 4.81058 3.677 4.385 4.031 4.031C4.385 3.677 4.81058 3.5 5.30775 3.5H18.6923C19.1894 3.5 19.615 3.677 19.969 4.031C20.323 4.385 20.5 4.81058 20.5 5.30775V10.3655C20.5 10.578 20.4281 10.7561 20.2843 10.8997C20.1404 11.0436 19.9622 11.1155 19.7498 11.1155C19.5371 11.1155 19.359 11.0436 19.2155 10.8997C19.0718 10.7561 19 10.578 19 10.3655V5.30775C19 5.23075 18.9679 5.16025 18.9038 5.09625C18.8398 5.03208 18.7692 5 18.6923 5H5.30775C5.23075 5 5.16025 5.03208 5.09625 5.09625C5.03208 5.16025 5 5.23075 5 5.30775V18.6923C5 18.7692 5.03208 18.8398 5.09625 18.9038C5.16025 18.9679 5.23075 19 5.30775 19H10.3655C10.578 19 10.7561 19.0719 10.8997 19.2158C11.0436 19.3596 11.1155 19.5378 11.1155 19.7502C11.1155 19.9629 11.0436 20.141 10.8997 20.2845C10.7561 20.4282 10.578 20.5 10.3655 20.5H5.30775ZM5 18.0033V19V5V11.1905V11.1155V18.0033ZM7.25 15.885C7.25 16.0975 7.32192 16.2756 7.46575 16.4193C7.60942 16.5628 7.7875 16.6345 8 16.6345H10.5173C10.7298 16.6345 10.9079 16.5626 11.0518 16.4187C11.1954 16.2751 11.2673 16.0969 11.2673 15.8842C11.2673 15.6718 11.1954 15.4937 11.0518 15.35C10.9079 15.2065 10.7298 15.1348 10.5173 15.1348H8C7.7875 15.1348 7.60942 15.2066 7.46575 15.3503C7.32192 15.4941 7.25 15.6723 7.25 15.885ZM7.25 12.0003C7.25 12.2129 7.32192 12.391 7.46575 12.5345C7.60942 12.6782 7.7875 12.75 8 12.75H13.7405C13.953 12.75 14.1311 12.6781 14.2747 12.5343C14.4186 12.3904 14.4905 12.2122 14.4905 11.9998C14.4905 11.7871 14.4186 11.609 14.2747 11.4655C14.1311 11.3218 13.953 11.25 13.7405 11.25H8C7.7875 11.25 7.60942 11.3219 7.46575 11.4658C7.32192 11.6096 7.25 11.7878 7.25 12.0003ZM7.25 8.11575C7.25 8.32825 7.32192 8.50633 7.46575 8.65C7.60942 8.7935 7.7875 8.86525 8 8.86525H16C16.2125 8.86525 16.3906 8.79342 16.5343 8.64975C16.6781 8.50592 16.75 8.32767 16.75 8.115C16.75 7.9025 16.6781 7.72442 16.5343 7.58075C16.3906 7.43725 16.2125 7.3655 16 7.3655H8C7.7875 7.3655 7.60942 7.43742 7.46575 7.58125C7.32192 7.72492 7.25 7.90308 7.25 8.11575ZM18 22.5578C16.7513 22.5578 15.6892 22.1199 14.8135 21.2443C13.9378 20.3686 13.5 19.3064 13.5 18.0577C13.5 16.8091 13.9378 15.7469 14.8135 14.8713C15.6892 13.9956 16.7513 13.5577 18 13.5577C19.2487 13.5577 20.3108 13.9956 21.1865 14.8713C22.0622 15.7469 22.5 16.8091 22.5 18.0577C22.5 19.3064 22.0622 20.3686 21.1865 21.2443C20.3108 22.1199 19.2487 22.5578 18 22.5578Z" fill="#A0AEC0"/>
</svg>
