<svg width="24" height="24" viewBox="0 0 24 24" fill="none" xmlns="http://www.w3.org/2000/svg">
<path d="M3.5 20.8808V3.11933C3.5 3.0155 3.54358 2.94592 3.63075 2.91058C3.71792 2.87542 3.8 2.88992 3.877 2.95408L4.59225 3.58283C4.67942 3.65717 4.77692 3.69433 4.88475 3.69433C4.99242 3.69433 5.08983 3.65717 5.177 3.58283L6.0155 2.87908C6.10267 2.80458 6.20008 2.76733 6.30775 2.76733C6.41542 2.76733 6.51283 2.80458 6.6 2.87908L7.4385 3.58283C7.52567 3.65717 7.62308 3.69433 7.73075 3.69433C7.83842 3.69433 7.93583 3.65717 8.023 3.58283L8.8615 2.87908C8.94867 2.80458 9.04608 2.76733 9.15375 2.76733C9.26158 2.76733 9.35908 2.80458 9.44625 2.87908L10.2848 3.58283C10.3719 3.65717 10.4693 3.69433 10.577 3.69433C10.6847 3.69433 10.7821 3.65717 10.8692 3.58283L11.7078 2.87908C11.7949 2.80458 11.8923 2.76733 12 2.76733C12.1077 2.76733 12.2051 2.80458 12.2923 2.87908L13.1307 3.58283C13.2179 3.65717 13.3153 3.69433 13.423 3.69433C13.5307 3.69433 13.6281 3.65717 13.7153 3.58283L14.5538 2.87908C14.6409 2.80458 14.7384 2.76733 14.8462 2.76733C14.9539 2.76733 15.0513 2.80458 15.1385 2.87908L15.977 3.58283C16.0642 3.65717 16.1616 3.69433 16.2693 3.69433C16.3769 3.69433 16.4743 3.65717 16.5615 3.58283L17.4 2.87908C17.4872 2.80458 17.5846 2.76733 17.6923 2.76733C17.7999 2.76733 17.8973 2.80458 17.9845 2.87908L18.823 3.58283C18.9102 3.65717 19.0076 3.69433 19.1152 3.69433C19.2231 3.69433 19.3206 3.65717 19.4078 3.58283L20.123 2.95408C20.2 2.88992 20.2821 2.87542 20.3693 2.91058C20.4564 2.94592 20.5 3.0155 20.5 3.11933V20.8808C20.5 20.9847 20.4564 21.0543 20.3693 21.0896C20.2821 21.1248 20.2 21.1103 20.123 21.0461L19.4078 20.4173C19.3206 20.343 19.2231 20.3058 19.1152 20.3058C19.0076 20.3058 18.9102 20.343 18.823 20.4173L17.9845 21.1211C17.8973 21.1956 17.7999 21.2328 17.6923 21.2328C17.5846 21.2328 17.4872 21.1956 17.4 21.1211L16.5615 20.4173C16.4743 20.343 16.3769 20.3058 16.2693 20.3058C16.1616 20.3058 16.0642 20.343 15.977 20.4173L15.1385 21.1211C15.0513 21.1956 14.9539 21.2328 14.8462 21.2328C14.7384 21.2328 14.6409 21.1956 14.5538 21.1211L13.7153 20.4173C13.6281 20.343 13.5307 20.3058 13.423 20.3058C13.3153 20.3058 13.2179 20.343 13.1307 20.4173L12.2923 21.1211C12.2051 21.1956 12.1077 21.2328 12 21.2328C11.8923 21.2328 11.7949 21.1956 11.7078 21.1211L10.8692 20.4173C10.7821 20.343 10.6847 20.3058 10.577 20.3058C10.4693 20.3058 10.3719 20.343 10.2848 20.4173L9.44625 21.1211C9.35908 21.1956 9.26158 21.2328 9.15375 21.2328C9.04608 21.2328 8.94867 21.1956 8.8615 21.1211L8.023 20.4173C7.93583 20.343 7.83842 20.3058 7.73075 20.3058C7.62308 20.3058 7.52567 20.343 7.4385 20.4173L6.6 21.1211C6.51283 21.1956 6.41542 21.2328 6.30775 21.2328C6.20008 21.2328 6.10267 21.1956 6.0155 21.1211L5.177 20.4173C5.08983 20.343 4.99242 20.3058 4.88475 20.3058C4.77692 20.3058 4.67942 20.343 4.59225 20.4173L3.877 21.0461C3.8 21.1103 3.71792 21.1248 3.63075 21.0896C3.54358 21.0543 3.5 20.9847 3.5 20.8808ZM7 16.4423H17C17.2128 16.4423 17.391 16.3706 17.5345 16.2271C17.6782 16.0834 17.75 15.9052 17.75 15.6923C17.75 15.4795 17.6782 15.3013 17.5345 15.1578C17.391 15.0142 17.2128 14.9423 17 14.9423H7C6.78717 14.9423 6.609 15.0142 6.4655 15.1578C6.32183 15.3013 6.25 15.4795 6.25 15.6923C6.25 15.9052 6.32183 16.0834 6.4655 16.2271C6.609 16.3706 6.78717 16.4423 7 16.4423ZM7 12.7501H17C17.2128 12.7501 17.391 12.6783 17.5345 12.5346C17.6782 12.3911 17.75 12.2129 17.75 12.0001C17.75 11.7873 17.6782 11.6091 17.5345 11.4656C17.391 11.3219 17.2128 11.2501 17 11.2501H7C6.78717 11.2501 6.609 11.3219 6.4655 11.4656C6.32183 11.6091 6.25 11.7873 6.25 12.0001C6.25 12.2129 6.32183 12.3911 6.4655 12.5346C6.609 12.6783 6.78717 12.7501 7 12.7501ZM7 9.05783H17C17.2128 9.05783 17.391 8.986 17.5345 8.84233C17.6782 8.69883 17.75 8.52067 17.75 8.30783C17.75 8.095 17.6782 7.91675 17.5345 7.77308C17.391 7.62958 17.2128 7.55783 17 7.55783H7C6.78717 7.55783 6.609 7.62958 6.4655 7.77308C6.32183 7.91675 6.25 8.095 6.25 8.30783C6.25 8.52067 6.32183 8.69883 6.4655 8.84233C6.609 8.986 6.78717 9.05783 7 9.05783ZM5 19.1001H19V4.90008H5V19.1001Z" fill="#A0AEC0"/>
</svg>
