<svg width="24" height="24" viewBox="0 0 24 24" fill="none" xmlns="http://www.w3.org/2000/svg">
<path d="M11 11.6923C10.0375 11.6923 9.21358 11.3496 8.52825 10.6643C7.84275 9.97876 7.5 9.15476 7.5 8.19226C7.5 7.22976 7.84275 6.40584 8.52825 5.72051C9.21358 5.03501 10.0375 4.69226 11 4.69226C11.9625 4.69226 12.7864 5.03501 13.4718 5.72051C14.1573 6.40584 14.5 7.22976 14.5 8.19226C14.5 9.15476 14.1573 9.97876 13.4718 10.6643C12.7864 11.3496 11.9625 11.6923 11 11.6923ZM11 10.1923C11.55 10.1923 12.0208 9.99643 12.4125 9.60476C12.8042 9.21309 13 8.74226 13 8.19226C13 7.64226 12.8042 7.17143 12.4125 6.77976C12.0208 6.38809 11.55 6.19226 11 6.19226C10.45 6.19226 9.97917 6.38809 9.5875 6.77976C9.19583 7.17143 9 7.64226 9 8.19226C9 8.74226 9.19583 9.21309 9.5875 9.60476C9.97917 9.99643 10.45 10.1923 11 10.1923ZM21.1308 22.1845L18.727 19.7808C18.3898 19.9936 18.034 20.1603 17.6595 20.2808C17.2852 20.4013 16.8993 20.4615 16.502 20.4615C15.3982 20.4615 14.4616 20.0762 13.6923 19.3055C12.9231 18.5347 12.5385 17.5988 12.5385 16.4978C12.5385 15.3968 12.9238 14.4616 13.6945 13.6923C14.4653 12.9231 15.4013 12.5385 16.5023 12.5385C17.6033 12.5385 18.5384 12.9237 19.3077 13.694C20.0769 14.4643 20.4615 15.3997 20.4615 16.5C20.4615 16.8987 20.4012 17.2852 20.2808 17.6595C20.1602 18.034 19.9936 18.3898 19.7808 18.727L22.1845 21.1308C22.323 21.2693 22.3938 21.4433 22.397 21.6528C22.4002 21.8624 22.3293 22.0397 22.1845 22.1845C22.0397 22.3293 21.8641 22.4018 21.6578 22.4018C21.4513 22.4018 21.2756 22.3293 21.1308 22.1845ZM16.5 18.9615C17.1937 18.9615 17.7773 18.7247 18.251 18.251C18.7247 17.7773 18.9615 17.1937 18.9615 16.5C18.9615 15.8063 18.7247 15.2227 18.251 14.749C17.7773 14.2753 17.1937 14.0385 16.5 14.0385C15.8063 14.0385 15.2227 14.2753 14.749 14.749C14.2753 15.2227 14.0385 15.8063 14.0385 16.5C14.0385 17.1937 14.2753 17.7773 14.749 18.251C15.2227 18.7247 15.8063 18.9615 16.5 18.9615ZM3.5 17.7885V17.1C3.5 16.6038 3.6305 16.1478 3.8915 15.7318C4.15233 15.3158 4.51033 14.9923 4.9655 14.7615C5.64617 14.4077 6.46058 14.0884 7.40875 13.8038C8.35675 13.5193 9.34167 13.3673 10.3635 13.348C10.5763 13.334 10.7571 13.4004 10.9058 13.5473C11.0546 13.6943 11.129 13.8718 11.129 14.08C11.129 14.2882 11.0546 14.4692 10.9058 14.623C10.7571 14.7768 10.5763 14.864 10.3635 14.8845C9.29167 14.9372 8.35708 15.093 7.55975 15.352C6.76225 15.6108 6.13208 15.8602 5.66925 16.1C5.45775 16.2025 5.29333 16.3431 5.176 16.5218C5.05867 16.7004 5 16.8932 5 17.1V17.8078H10.2348C10.4473 17.8078 10.6253 17.8797 10.769 18.0235C10.9128 18.1672 10.9848 18.3453 10.9848 18.558C10.9848 18.7707 10.9128 18.9488 10.769 19.0923C10.6253 19.2359 10.4473 19.3078 10.2348 19.3078H5.01925C4.59742 19.3078 4.23875 19.16 3.94325 18.8645C3.64775 18.5688 3.5 18.2102 3.5 17.7885Z" fill="#A0AEC0"/>
</svg>
