<svg width="24" height="24" viewBox="0 0 24 24" fill="none" xmlns="http://www.w3.org/2000/svg">
<path d="M12 21.5C10.6858 21.5 9.45083 21.2507 8.295 20.752C7.13917 20.2533 6.13375 19.5766 5.27875 18.7218C4.42375 17.8669 3.74692 16.8617 3.24825 15.706C2.74942 14.5503 2.5 13.3156 2.5 12.0017C2.5 10.6877 2.74933 9.45267 3.248 8.2965C3.74667 7.14033 4.42342 6.13467 5.27825 5.2795C6.13308 4.42433 7.13833 3.74725 8.294 3.24825C9.44967 2.74942 10.6844 2.5 11.9983 2.5C13.3123 2.5 14.5473 2.74942 15.7035 3.24825C16.8597 3.74692 17.8653 4.42375 18.7205 5.27875C19.5757 6.13375 20.2528 7.13917 20.7518 8.295C21.2506 9.45083 21.5 10.6858 21.5 12V19.6923C21.5 20.1894 21.323 20.615 20.969 20.969C20.615 21.323 20.1894 21.5 19.6923 21.5H12ZM12 20C14.2333 20 16.125 19.225 17.675 17.675C19.225 16.125 20 14.2333 20 12C20 9.76667 19.225 7.875 17.675 6.325C16.125 4.775 14.2333 4 12 4C9.76667 4 7.875 4.775 6.325 6.325C4.775 7.875 4 9.76667 4 12C4 12.4282 4.03142 12.8481 4.09425 13.2598C4.15708 13.6713 4.2545 14.0713 4.3865 14.4598L7.427 11.4192C7.59183 11.2536 7.79042 11.167 8.02275 11.1595C8.25508 11.1518 8.46158 11.2249 8.64225 11.3787L11.3193 13.6115L15.1807 9.75H14C13.7875 9.75 13.6094 9.67808 13.4658 9.53425C13.3219 9.39042 13.25 9.21225 13.25 8.99975C13.25 8.78708 13.3219 8.609 13.4658 8.4655C13.6094 8.32183 13.7875 8.25 14 8.25H16.8462C17.1022 8.25 17.3169 8.33658 17.4902 8.50975C17.6634 8.68308 17.75 8.89775 17.75 9.15375V12C17.75 12.2125 17.6781 12.3906 17.5343 12.5343C17.3904 12.6781 17.2122 12.75 16.9998 12.75C16.7871 12.75 16.609 12.6781 16.4655 12.5343C16.3218 12.3906 16.25 12.2125 16.25 12V10.8288L11.9827 15.0712C11.8186 15.2353 11.6189 15.3256 11.3837 15.3422C11.1484 15.3589 10.9397 15.2853 10.7578 15.1213L8.1155 12.8635L5.05 15.9288C5.73083 17.1429 6.68292 18.125 7.90625 18.875C9.12975 19.625 10.4943 20 12 20ZM19.3845 20.2693C19.6295 20.2693 19.8382 20.183 20.0105 20.0105C20.183 19.8382 20.2693 19.6295 20.2693 19.3845C20.2693 19.1397 20.183 18.9311 20.0105 18.7587C19.8382 18.5863 19.6295 18.5 19.3845 18.5C19.1397 18.5 18.9311 18.5863 18.7587 18.7587C18.5863 18.9311 18.5 19.1397 18.5 19.3845C18.5 19.6295 18.5863 19.8382 18.7587 20.0105C18.9311 20.183 19.1397 20.2693 19.3845 20.2693Z" fill="#A0AEC0"/>
</svg>
