<svg width="24" height="24" viewBox="0 0 24 24" fill="none" xmlns="http://www.w3.org/2000/svg">
<path d="M19.5 20.5C19.7833 20.5 20.0208 20.4042 20.2125 20.2125C20.4042 20.0208 20.5 19.7833 20.5 19.5C20.5 19.2167 20.4042 18.9792 20.2125 18.7875C20.0208 18.5958 19.7833 18.5 19.5 18.5C19.2167 18.5 18.9792 18.5958 18.7875 18.7875C18.5958 18.9792 18.5 19.2167 18.5 19.5C18.5 19.7833 18.5958 20.0208 18.7875 20.2125C18.9792 20.4042 19.2167 20.5 19.5 20.5ZM12 22C10.2833 22 8.6875 21.5917 7.2125 20.775C5.7375 19.9583 4.575 18.9 3.725 17.6L8.125 13.2L10.7 15.4C10.9 15.5833 11.1292 15.6667 11.3875 15.65C11.6458 15.6333 11.8667 15.5333 12.05 15.35L16 11.425V12C16 12.2833 16.0958 12.5208 16.2875 12.7125C16.4792 12.9042 16.7167 13 17 13C17.2833 13 17.5208 12.9042 17.7125 12.7125C17.9042 12.5208 18 12.2833 18 12V9C18 8.71667 17.9042 8.47917 17.7125 8.2875C17.5208 8.09583 17.2833 8 17 8H14C13.7167 8 13.4792 8.09583 13.2875 8.2875C13.0958 8.47917 13 8.71667 13 9C13 9.28333 13.0958 9.52083 13.2875 9.7125C13.4792 9.90417 13.7167 10 14 10H14.575L11.3 13.275L8.7 11.1C8.5 10.9333 8.27083 10.8542 8.0125 10.8625C7.75417 10.8708 7.53333 10.9667 7.35 11.15L2.725 15.775C2.49167 15.225 2.3125 14.6042 2.1875 13.9125C2.0625 13.2208 2 12.5833 2 12C2 10.6167 2.2625 9.31667 2.7875 8.1C3.3125 6.88333 4.025 5.825 4.925 4.925C5.825 4.025 6.88333 3.3125 8.1 2.7875C9.31667 2.2625 10.6167 2 12 2C13.3833 2 14.6833 2.2625 15.9 2.7875C17.1167 3.3125 18.175 4.025 19.075 4.925C19.975 5.825 20.6875 6.88333 21.2125 8.1C21.7375 9.31667 22 10.6167 22 12V20C22 20.55 21.8042 21.0208 21.4125 21.4125C21.0208 21.8042 20.55 22 20 22H12Z" fill="#1CBCC8"/>
</svg>
