<svg width="24" height="24" viewBox="0 0 24 24" fill="none" xmlns="http://www.w3.org/2000/svg">
<path d="M7 21H4C3.45 21 2.97917 20.8042 2.5875 20.4125C2.19583 20.0208 2 19.55 2 19V10C2 9.68333 2.07083 9.38333 2.2125 9.1C2.35417 8.81667 2.55 8.58333 2.8 8.4L8.8 3.9C8.98333 3.76667 9.175 3.66667 9.375 3.6C9.575 3.53333 9.78333 3.5 10 3.5C10.2167 3.5 10.425 3.53333 10.625 3.6C10.825 3.66667 11.0167 3.76667 11.2 3.9L14.5 6.4C14.6667 6.53333 14.7292 6.7 14.6875 6.9C14.6458 7.1 14.5167 7.23333 14.3 7.3C13.65 7.53333 13.075 7.8875 12.575 8.3625C12.075 8.8375 11.6833 9.39167 11.4 10.025C11.1167 10.6583 10.9792 11.3208 10.9875 12.0125C10.9958 12.7042 11.1417 13.3667 11.425 14C11.5083 14.2167 11.5125 14.4292 11.4375 14.6375C11.3625 14.8458 11.225 14.9917 11.025 15.075C10.325 15.3917 9.79167 15.7 9.425 16C9.05833 16.3 8.75833 16.6667 8.525 17.1C8.34167 17.4 8.20833 17.7208 8.125 18.0625C8.04167 18.4042 8 18.75 8 19.1V20C8 20.2833 7.90417 20.5208 7.7125 20.7125C7.52083 20.9042 7.28333 21 7 21ZM16 16C16.9 16 17.7708 16.1167 18.6125 16.35C19.4542 16.5833 20.2583 16.925 21.025 17.375C21.325 17.5583 21.5625 17.8042 21.7375 18.1125C21.9125 18.4208 22 18.75 22 19.1C22 19.6333 21.8167 20.0833 21.45 20.45C21.0833 20.8167 20.6333 21 20.1 21H11.9C11.3667 21 10.9167 20.8167 10.55 20.45C10.1833 20.0833 10 19.6333 10 19.1C10 18.75 10.0875 18.4208 10.2625 18.1125C10.4375 17.8042 10.675 17.5583 10.975 17.375C11.7417 16.925 12.5458 16.5833 13.3875 16.35C14.2292 16.1167 15.1 16 16 16ZM16 15C15.1667 15 14.4583 14.7083 13.875 14.125C13.2917 13.5417 13 12.8333 13 12C13 11.1667 13.2917 10.4583 13.875 9.875C14.4583 9.29167 15.1667 9 16 9C16.8333 9 17.5417 9.29167 18.125 9.875C18.7083 10.4583 19 11.1667 19 12C19 12.8333 18.7083 13.5417 18.125 14.125C17.5417 14.7083 16.8333 15 16 15Z" fill="#1CBCC8"/>
</svg>
