<svg width="20" height="21" viewBox="0 0 20 21" fill="none" xmlns="http://www.w3.org/2000/svg">
<path opacity="0.4" d="M16.5807 11.75H3.41406C2.16406 11.75 1.66406 12.2833 1.66406 13.6083V16.975C1.66406 18.3 2.16406 18.8333 3.41406 18.8333H16.5807C17.8307 18.8333 18.3307 18.3 18.3307 16.975V13.6083C18.3307 12.2833 17.8307 11.75 16.5807 11.75Z" fill="#1CBCC8"/>
<path d="M16.5807 2.16797H3.41406C2.16406 2.16797 1.66406 2.7013 1.66406 4.0263V7.39297C1.66406 8.71797 2.16406 9.2513 3.41406 9.2513H16.5807C17.8307 9.2513 18.3307 8.71797 18.3307 7.39297V4.0263C18.3307 2.7013 17.8307 2.16797 16.5807 2.16797Z" fill="#1CBCC8"/>
</svg>
